<?xml version='1.0' encoding='utf-8'?>
<!DOCTYPE svg>
<!-- Generator: Adobe Illustrator 15.1.0, SVG Export Plug-In . SVG Version: 6.00 Build 0)  -->
<svg xmlns="http://www.w3.org/2000/svg" version="1.1" xmlns:xml="http://www.w3.org/XML/1998/namespace"  x="0px" height="2.36222in" y="0px" id="Layer_2" viewBox="0 0 56.69 170.08" width="0.787361in" enable-background="new 0 0 56.69 170.08" xml:space="preserve" gorn="0">
    <desc >
        <referenceFile >FC28_P_BREADBOARD_v3.svg</referenceFile>
    </desc>
    <path d="M52.807,0H3.884C2.066,0.777,0.644,2.3,0,4.185v36.982h19.72c0.004-0.092,0.007-0.184,0.015-0.275c0.15-4.52,3.942-8.141,8.61-8.141c4.695,0,8.505,3.663,8.614,8.218h0.021v0.198H56.69V4.185C56.047,2.3,54.624,0.777,52.807,0z M8.313,13.375c-2.555,0-4.625-2.071-4.625-4.625s2.07-4.625,4.625-4.625s4.625,2.071,4.625,4.625S10.867,13.375,8.313,13.375z M24.745,8.611c-0.661,0-1.197-0.536-1.197-1.197s0.536-1.197,1.197-1.197s1.197,0.536,1.197,1.197S25.406,8.611,24.745,8.611z M31.944,8.611c-0.662,0-1.197-0.536-1.197-1.198s0.535-1.198,1.197-1.198s1.197,0.536,1.197,1.198S32.606,8.611,31.944,8.611z M48.25,13.375c-2.555,0-4.625-2.071-4.625-4.625s2.07-4.625,4.625-4.625s4.625,2.071,4.625,4.625S50.805,13.375,48.25,13.375z"  fill="#191919"/>
    <g >
        <polygon points="0,41.167 0,147.5 8.35,170.08 11.611,170.08 19.729,147.5 19.729,41.167 "  fill="#7E847E"/>
        <g >
            <polygon points="56.667,170.08 56.69,170.08 56.69,147.5 56.667,150 "  fill="#7E847E"/>
            <polygon points="36.979,41.167 36.979,147.5 45.063,170.08 48.354,170.08 56.69,147.5 56.69,41.167 "  fill="#7E847E"/>
        </g>
    </g>
    <g >
        <polygon points="2.5,41.167 2.5,147.5 9.833,167 17,147.5 17,41.167 "  fill="#4C5456"/>
        <polygon points="39.666,41.167 39.666,147.5 46.999,167 54.166,147.5 54.166,41.167 "  fill="#4C5456"/>
    </g>
    <g  id="silkscreen" gorn="0.4">
        <rect stroke="#FFFFFF"  fill="none" x="21.252" height="6.651" y="4.088" stroke-miterlimit="10" stroke-width="0.65" width="14.186"/>
        <g  transform="matrix(1 0 0 1 19.7285 20.23)">
            <g >
                <g >
                    <g >
                        <text  fill="#FFFFFF" font-family="DroidSans" font-size="7">FC-28</text>
                    </g>
                </g>
            </g>
        </g>
    </g>
    <g >
        <path d="M24.745,5.021c-1.322,0-2.393,1.07-2.393,2.393s1.07,2.394,2.393,2.394s2.393-1.071,2.393-2.394S26.067,5.021,24.745,5.021z M24.745,8.61c-0.662,0-1.197-0.535-1.197-1.197c0-0.66,0.535-1.197,1.197-1.197c0.66,0,1.197,0.537,1.197,1.197C25.942,8.075,25.405,8.61,24.745,8.61z"  fill="#9A916C" id="connector8pin" gorn="0.5.0"/>
        <path d="M31.945,5.021c-1.322,0-2.395,1.07-2.395,2.393s1.072,2.394,2.395,2.394c1.32,0,2.393-1.071,2.393-2.394S33.266,5.021,31.945,5.021z M31.945,8.61c-0.662,0-1.197-0.535-1.197-1.197c0-0.66,0.535-1.197,1.197-1.197c0.66,0,1.195,0.537,1.195,1.197C33.141,8.075,32.605,8.61,31.945,8.61z"  fill="#9A916C" id="connector9pin" gorn="0.5.1"/>
    </g>
</svg>
