<?xml version='1.0' encoding='utf-8'?>
<!DOCTYPE svg>
<!-- Generator: Adobe Illustrator 15.1.0, SVG Export Plug-In . SVG Version: 6.00 Build 0)  -->
<svg xmlns="http://www.w3.org/2000/svg" version="1.1" xmlns:xml="http://www.w3.org/XML/1998/namespace"  x="0px" height="1.25986in" y="0px" id="Layer_2" viewBox="0 0 39.69 90.71" width="0.55125in" enable-background="new 0 0 39.69 90.71" xml:space="preserve" gorn="0">
    <desc >
        <referenceFile >FC28_B_BREADBOARD_v2.svg</referenceFile>
    </desc>
    <path d="M0,0v90.71h39.69V0H0z M23.127,3.989c0.661,0,1.197,0.537,1.197,1.198s-0.536,1.198-1.197,1.198c-0.662,0-1.198-0.537-1.198-1.198S22.465,3.989,23.127,3.989z M9.23,84.634c-0.662,0-1.198-0.537-1.198-1.198s0.536-1.198,1.198-1.198c0.661,0,1.197,0.537,1.197,1.198S9.891,84.634,9.23,84.634z M14.728,5.186c0-0.661,0.536-1.198,1.198-1.198c0.661,0,1.197,0.537,1.197,1.198s-0.536,1.198-1.197,1.198C15.264,6.384,14.728,5.847,14.728,5.186z M16.43,84.634c-0.662,0-1.198-0.537-1.198-1.198s0.536-1.198,1.198-1.198c0.661,0,1.197,0.537,1.197,1.198S17.091,84.634,16.43,84.634z M23.631,84.634c-0.662,0-1.198-0.537-1.198-1.198s0.536-1.198,1.198-1.198c0.661,0,1.197,0.537,1.197,1.198S24.292,84.634,23.631,84.634z M20.174,71.166c-2.611,0-4.729-2.117-4.729-4.73c0-2.611,2.118-4.729,4.729-4.729c2.614,0,4.731,2.117,4.731,4.729C24.905,69.049,22.788,71.166,20.174,71.166z M30.829,84.634c-0.662,0-1.198-0.537-1.198-1.198s0.536-1.198,1.198-1.198c0.661,0,1.197,0.537,1.197,1.198S31.49,84.634,30.829,84.634z"  fill="#19283D"/>
    <g >
        <rect  fill="#115DA8" x="18.831" height="18.062" y="30.061" width="18.198"/>
        <circle r="4.021"  fill="#414141" cx="27.945" cy="39.083"/>
        <path d="M28.57,39.769v3.285c1.695-0.266,3.041-1.59,3.336-3.274L28.57,39.769z"  fill="#999999"/>
        <path d="M28.57,38.457h3.348c-0.269-1.718-1.625-3.076-3.342-3.347L28.57,38.457z"  fill="#999999"/>
        <path d="M23.973,38.457c0.267-1.702,1.601-3.052,3.295-3.339l-0.01,3.339H23.973z"  fill="#999999"/>
        <path d="M27.258,43.045c-1.656-0.289-2.966-1.605-3.268-3.276h3.268V43.045z"  fill="#999999"/>
        <circle r="1.042"  fill="#D1D2D1" cx="32.841" cy="45.708"/>
    </g>
    <g  id="silkscreen" gorn="0.3">
        <g >
            <polyline stroke="#FFFFFF" points="9.362,66.998 9.362,72.873 2.862,72.873 2.862,66.998 "  fill="none" stroke-miterlimit="10" stroke-width="1"/>
            <polyline stroke="#FFFFFF" points="9.362,64.811 9.362,60.373 8.112,59.092 4.362,59.092 2.862,60.342 2.862,64.811 "  fill="none" stroke-miterlimit="10" stroke-width="1"/>
        </g>
        <rect stroke="#FFFFFF"  fill="none" x="5.945" height="7.043" y="79.914" stroke-miterlimit="10" stroke-width="1" width="28.167"/>
        <rect stroke="#FFFFFF"  fill="none" x="12.456" height="7.041" y="1.666" stroke-miterlimit="10" stroke-width="1" width="14.141"/>
        <g >
            <line stroke="#FFFFFF"  fill="none" stroke-miterlimit="10" y1="7.091" stroke-width="1" y2="3.406" x1="29.778" x2="29.778"/>
            <line stroke="#FFFFFF"  fill="none" stroke-miterlimit="10" y1="5.249" stroke-width="1" y2="5.249" x1="31.684" x2="27.999"/>
        </g>
        <g >
            <polyline stroke="#FFFFFF" points="10.956,17.769 10.956,12.144 4.581,12.144 4.581,17.769 "  fill="none" stroke-miterlimit="10" stroke-width="1"/>
            <polyline stroke="#FFFFFF" points="10.956,20.092 10.956,25.717 4.581,25.717 4.581,20.092 "  fill="none" stroke-miterlimit="10" stroke-width="1"/>
        </g>
        <g >
            <polyline stroke="#FFFFFF" points="18.831,17.769 18.831,12.144 12.456,12.144 12.456,17.769 "  fill="none" stroke-miterlimit="10" stroke-width="1"/>
            <polyline stroke="#FFFFFF" points="18.831,20.092 18.831,25.717 12.456,25.717 12.456,20.092 "  fill="none" stroke-miterlimit="10" stroke-width="1"/>
        </g>
        <g >
            <polyline stroke="#FFFFFF" points="26.597,20.092 26.597,24.514 24.925,26.041 22.003,26.041 20.221,24.514 20.221,20.092 "  fill="none" stroke-miterlimit="10" stroke-width="1"/>
            <polyline stroke="#FFFFFF" points="20.221,17.769 20.221,13.347 21.894,11.821 24.815,11.821 26.597,13.347 26.597,17.769 "  fill="none" stroke-miterlimit="10" stroke-width="1"/>
        </g>
        <g >
            <polyline stroke="#FFFFFF" points="34.534,20.092 34.534,24.514 32.862,26.041 29.94,26.041 28.159,24.514 28.159,20.092 "  fill="none" stroke-miterlimit="10" stroke-width="1"/>
            <polyline stroke="#FFFFFF" points="28.159,17.769 28.159,13.347 29.831,11.821 32.753,11.821 34.534,13.347 34.534,17.769 "  fill="none" stroke-miterlimit="10" stroke-width="1"/>
        </g>
        <rect stroke="#FFFFFF"  fill="none" x="17.862" height="19.833" y="29.166" stroke-miterlimit="10" stroke-width="1" width="20.167"/>
        <g >
            <polyline stroke="#FFFFFF" points="10.821,56.967 16.362,56.967 16.362,50.676 10.821,50.676 "  fill="none" stroke-miterlimit="10" stroke-width="1"/>
            <polyline stroke="#FFFFFF" points="8.53,56.967 2.862,56.967 2.862,50.676 8.53,50.676 "  fill="none" stroke-miterlimit="10" stroke-width="1"/>
        </g>
        <g >
            <polyline stroke="#FFFFFF" points="31.487,57.207 37.028,57.207 37.028,50.914 31.487,50.914 "  fill="none" stroke-miterlimit="10" stroke-width="1"/>
            <polyline stroke="#FFFFFF" points="29.195,57.207 23.528,57.207 23.528,50.914 29.195,50.914 "  fill="none" stroke-miterlimit="10" stroke-width="1"/>
        </g>
        <g >
            <polyline stroke="#FFFFFF" points="37.362,66.998 37.362,72.873 30.862,72.873 30.862,66.998 "  fill="none" stroke-miterlimit="10" stroke-width="1"/>
            <polyline stroke="#FFFFFF" points="37.362,64.811 37.362,60.373 36.112,59.092 32.362,59.092 30.862,60.342 30.862,64.811 "  fill="none" stroke-miterlimit="10" stroke-width="1"/>
        </g>
        <line stroke="#FFFFFF"  fill="none" stroke-miterlimit="10" y1="4.967" stroke-width="1" y2="4.967" x1="10.956" x2="7.838"/>
        <g  transform="matrix(1 0 0 1 7.2793 78.1973)">
            <g >
                <g >
                    <g >
                        <g >
                            <text  fill="#FFFFFF" font-family="DroidSans" font-size="3.4">AO  DO  GND  VCC</text>
                        </g>
                    </g>
                </g>
            </g>
        </g>
        <g  transform="matrix(0 1 -1 0 27.3574 58.3203)">
            <g >
                <g >
                    <g >
                        <g >
                            <text  fill="#FFFFFF" font-family="DroidSans" font-size="3.4">PWR—LED</text>
                        </g>
                    </g>
                </g>
            </g>
        </g>
        <g  transform="matrix(0 -1 1 0 12.8911 73.0195)">
            <g >
                <g >
                    <g >
                        <g >
                            <text  fill="#FFFFFF" font-family="DroidSans" font-size="3.4">DO—LED</text>
                        </g>
                    </g>
                </g>
            </g>
        </g>
    </g>
    <path d="M20.175,73.02c3.636,0,6.583-2.947,6.583-6.584c0-3.635-2.947-6.582-6.583-6.582c-3.636,0-6.583,2.947-6.583,6.582C13.592,70.072,16.539,73.02,20.175,73.02z M20.175,61.707c2.612,0,4.73,2.117,4.73,4.729c0,2.613-2.118,4.73-4.73,4.73c-2.612,0-4.73-2.117-4.73-4.73C15.445,63.824,17.563,61.707,20.175,61.707z"  fill="#B0AFB0"/>
    <g  id="copper1" gorn="0.5">
        <g  id="copper0" gorn="0.5.0">
            <path d="M30.829,85.828c1.322,0,2.393-1.07,2.393-2.393s-1.07-2.393-2.393-2.393s-2.393,1.07-2.393,2.393S29.507,85.828,30.829,85.828z M30.829,82.238c0.662,0,1.197,0.535,1.197,1.197c0,0.66-0.535,1.197-1.197,1.197c-0.66,0-1.197-0.537-1.197-1.197C29.632,82.773,30.169,82.238,30.829,82.238z"  fill="#9A916C" id="connector8pin" gorn="0.5.0.0"/>
            <path d="M23.629,85.828c1.322,0,2.395-1.07,2.395-2.393s-1.072-2.393-2.395-2.393c-1.32,0-2.393,1.07-2.393,2.393S22.309,85.828,23.629,85.828z M23.629,82.238c0.662,0,1.197,0.535,1.197,1.197c0,0.66-0.535,1.197-1.197,1.197c-0.66,0-1.195-0.537-1.195-1.197C22.434,82.773,22.969,82.238,23.629,82.238z"  fill="#9A916C" id="connector9pin" gorn="0.5.0.1"/>
            <path d="M16.429,85.828c1.322,0,2.393-1.07,2.393-2.393s-1.07-2.393-2.393-2.393s-2.393,1.07-2.393,2.393S15.107,85.828,16.429,85.828z M16.427,82.238c0.662,0,1.197,0.535,1.197,1.197c0,0.66-0.535,1.197-1.197,1.197c-0.66,0-1.195-0.537-1.195-1.197C15.232,82.773,15.767,82.238,16.427,82.238z"  fill="#9A916C" id="connector10pin" gorn="0.5.0.2"/>
            <path d="M9.228,85.828c1.322,0,2.393-1.07,2.393-2.393s-1.07-2.393-2.393-2.393s-2.393,1.07-2.393,2.393S7.906,85.828,9.228,85.828z M9.228,82.238c0.662,0,1.197,0.535,1.197,1.197c0,0.66-0.535,1.197-1.197,1.197c-0.66,0-1.197-0.537-1.197-1.197C8.031,82.773,8.568,82.238,9.228,82.238z"  fill="#9A916C" id="connector11pin" gorn="0.5.0.3"/>
        </g>
        <g  id="copper0_2_" gorn="0.5.1">
            <g  id="copper0_1_" gorn="0.5.1.0">
                <path d="M23.127,7.579c1.322,0,2.393-1.07,2.393-2.393s-1.07-2.393-2.393-2.393s-2.393,1.07-2.393,2.393S21.805,7.579,23.127,7.579z M23.125,3.989c0.662,0,1.197,0.535,1.197,1.197c0,0.66-0.535,1.197-1.197,1.197c-0.66,0-1.195-0.537-1.195-1.197C21.93,4.524,22.465,3.989,23.125,3.989z"  fill="#9A916C" id="connector12pin" gorn="0.5.1.0.0"/>
                <path d="M15.926,7.579c1.322,0,2.393-1.07,2.393-2.393s-1.07-2.393-2.393-2.393s-2.393,1.07-2.393,2.393S14.604,7.579,15.926,7.579z M15.926,3.989c0.662,0,1.197,0.535,1.197,1.197c0,0.66-0.535,1.197-1.197,1.197c-0.66,0-1.197-0.537-1.197-1.197C14.729,4.524,15.266,3.989,15.926,3.989z"  fill="#9A916C" id="connector13pin" gorn="0.5.1.0.1"/>
            </g>
        </g>
    </g>
    <g >
        <rect  fill="#020202" x="6.088" height="5.848" y="15.471" width="3.499"/>
        <rect  fill="#999999" x="6.088" height="1.209" y="20.11" width="3.499"/>
        <rect  fill="#999999" x="6.088" height="1.076" y="15.471" width="3.499"/>
    </g>
    <g >
        <rect  fill="#847863" x="30.124" height="5.271" y="15.76" width="3.119"/>
        <rect  fill="#999999" x="30.124" height="1.186" y="15.76" width="3.119"/>
        <rect  fill="#999999" x="30.123" height="1.188" y="19.842" width="3.12"/>
    </g>
    <g >
        <rect  fill="#8E8D8A" x="5.002" height="5.625" y="63.623" width="2.922"/>
        <rect  fill="#B6B39A" x="5.002" height="3.406" y="64.623" width="2.922"/>
        <rect  fill="#D8C66B" x="5.554" height="1.625" y="65.781" width="1.438"/>
        <circle r="0.18"  fill="#508759" cx="6.635" cy="66.154"/>
    </g>
    <g >
        <rect  fill="#847863" x="21.969" height="5.271" y="15.76" width="3.119"/>
        <rect  fill="#999999" x="21.969" height="1.186" y="15.76" width="3.119"/>
        <rect  fill="#999999" x="21.969" height="1.188" y="19.842" width="3.119"/>
    </g>
    <g >
        <rect  fill="#020202" x="13.893" height="5.848" y="15.471" width="3.499"/>
        <rect  fill="#999999" x="13.893" height="1.208" y="20.111" width="3.499"/>
        <rect  fill="#999999" x="13.893" height="1.077" y="15.471" width="3.499"/>
    </g>
    <g >
        <rect  fill="#8E8D8A" x="33.128" height="5.625" y="63.162" width="2.922"/>
        <rect  fill="#B6B39A" x="33.128" height="3.406" y="64.162" width="2.922"/>
        <rect  fill="#D8C66B" x="33.68" height="1.625" y="65.32" width="1.438"/>
        <circle r="0.18"  fill="#508759" cx="34.761" cy="65.693"/>
    </g>
    <g >
        <rect  fill="#020202" x="28.097" height="3.217" y="52.213" width="5.848"/>
        <rect  fill="#999999" x="28.097" height="3.217" y="52.213" width="1.209"/>
        <rect  fill="#999999" x="32.868" height="3.217" y="52.213" width="1.076"/>
    </g>
    <g >
        <rect  fill="#020202" x="7.744" height="3.219" y="52.451" width="5.848"/>
        <rect  fill="#999999" x="7.744" height="3.219" y="52.451" width="1.209"/>
        <rect  fill="#999999" x="12.515" height="3.219" y="52.451" width="1.076"/>
    </g>
    <g >
        <rect  fill="#414141" x="3.162" height="9.235" y="34.214" width="13.2"/>
        <g >
            <g >
                <rect  fill="#999999" x="14.562" height="3.708" y="30.506" width="1.107"/>
                <rect  fill="#666766" x="14.562" height="0.938" y="31.808" width="1.107"/>
            </g>
            <g >
                <rect  fill="#999999" x="11" height="3.708" y="30.506" width="1.107"/>
                <rect  fill="#666766" x="11" height="0.938" y="31.808" width="1.107"/>
            </g>
            <g >
                <rect  fill="#999999" x="7.417" height="3.708" y="30.506" width="1.107"/>
                <rect  fill="#666766" x="7.417" height="0.938" y="31.808" width="1.107"/>
            </g>
            <g >
                <rect  fill="#999999" x="3.708" height="3.708" y="30.506" width="1.107"/>
                <rect  fill="#666766" x="3.708" height="0.938" y="31.808" width="1.107"/>
            </g>
        </g>
        <g >
            <g >
                <rect  fill="#999999" x="3.666" height="3.708" y="43.45" width="1.107"/>
                <rect  fill="#666766" x="3.666" height="0.938" y="44.918" width="1.107"/>
            </g>
            <g >
                <rect  fill="#999999" x="7.312" height="3.708" y="43.45" width="1.107"/>
                <rect  fill="#666766" x="7.312" height="0.938" y="44.918" width="1.107"/>
            </g>
            <g >
                <rect  fill="#999999" x="10.853" height="3.708" y="43.45" width="1.107"/>
                <rect  fill="#666766" x="10.853" height="0.938" y="44.918" width="1.107"/>
            </g>
            <g >
                <rect  fill="#999999" x="14.562" height="3.708" y="43.45" width="1.107"/>
                <rect  fill="#666766" x="14.562" height="0.938" y="44.918" width="1.107"/>
            </g>
        </g>
        <circle r="0.926"  fill="#232323" cx="5.002" cy="41.791"/>
    </g>
</svg>
