<?xml version='1.0' encoding='utf-8'?>
<!DOCTYPE svg>
<!-- Generator: Adobe Illustrator 15.1.0, SVG Export Plug-In . SVG Version: 6.00 Build 0)  -->
<svg xmlns="http://www.w3.org/2000/svg" xmlns:xml="http://www.w3.org/XML/1998/namespace"  viewBox="0 0 66.61 66.61" enable-background="new 0 0 66.61 66.61" gorn="0" height="0.925139in" version="1.1" width="0.925139in" xml:space="preserve" id="Layer_2" x="0px" y="0px">
    <desc >
        <referenceFile >TTP223B_BREADBOARD_v4.svg</referenceFile>
    </desc>
    <path  fill="#0C4260" d="M61.267,0H4.11c0,0-4.109,0.938-4.11,5.343V62.5c0,0,0.938,4.11,5.344,4.11h57.157c0,0,4.109-0.938,4.109-5.344V4.11C66.61,4.11,65.673,0,61.267,0z M6.083,64.5c-1.703,0-3.084-1.381-3.084-3.084s1.381-3.084,3.084-3.084s3.084,1.381,3.084,3.084S7.786,64.5,6.083,64.5z M6.083,8.5c-1.703,0-3.084-1.381-3.084-3.084c0-1.703,1.381-3.083,3.084-3.083s3.084,1.381,3.084,3.083C9.167,7.119,7.786,8.5,6.083,8.5z M26.106,11.698c-0.737,0-1.334-0.598-1.334-1.334S25.37,9.03,26.106,9.03c0.736,0,1.333,0.598,1.333,1.334S26.843,11.698,26.106,11.698z M33.307,11.699c-0.736,0-1.334-0.598-1.334-1.334s0.598-1.333,1.334-1.333s1.333,0.598,1.333,1.334S34.043,11.699,33.307,11.699z M40.506,11.699c-0.736,0-1.333-0.598-1.333-1.334s0.597-1.334,1.333-1.334s1.334,0.598,1.334,1.334S41.242,11.699,40.506,11.699z M61.083,64.5c-1.703,0-3.084-1.381-3.084-3.084s1.381-3.084,3.084-3.084s3.084,1.381,3.084,3.084S62.786,64.5,61.083,64.5z M61.083,8.5c-1.703,0-3.084-1.381-3.084-3.084s1.381-3.084,3.084-3.084s3.084,1.381,3.084,3.084S62.786,8.5,61.083,8.5z"/>
    <circle cx="33.563"  cy="46.987" gorn="0.2" r="16.344" fill="#0D364C" id="pad"/>
    <g  gorn="0.3" id="silkscreen">
        <g >
            <path  fill="#FFFFFF" d="M23.471,18.726c0-0.005,0.001-0.018,0.004-0.036c0.005-0.008,0.017-0.021,0.034-0.038c0.018-0.017,0.028-0.027,0.032-0.03c0.004-0.003,0.01-0.005,0.018-0.006c0.008-0.001,0.015-0.002,0.02-0.002s0.012,0.001,0.02,0.002c0.008,0.001,0.013,0.002,0.016,0.002c0.01,0.021,0.034,0.05,0.072,0.086c0.037,0.036,0.078,0.073,0.122,0.11c0.044,0.038,0.087,0.071,0.13,0.1s0.075,0.048,0.096,0.056c0.002,0.002,0.019,0.005,0.048,0.008s0.063,0.005,0.1,0.008c0.037,0.003,0.075,0.005,0.112,0.006c0.038,0.001,0.068,0.002,0.092,0.002c0.013,0,0.037-0.001,0.07-0.002c0.033-0.001,0.068-0.003,0.104-0.006c0.036-0.002,0.071-0.005,0.104-0.008s0.057-0.005,0.07-0.008c0.008-0.008,0.023-0.021,0.044-0.04c0.021-0.019,0.043-0.04,0.066-0.062c0.022-0.023,0.043-0.045,0.062-0.066c0.019-0.021,0.032-0.036,0.04-0.044c0.008-0.01,0.021-0.033,0.038-0.068c0.018-0.035,0.027-0.059,0.03-0.072c0.002-0.003,0.004-0.018,0.006-0.044c0.001-0.027,0.002-0.047,0.002-0.06c0-0.014,0-0.034-0.002-0.06c-0.001-0.027-0.003-0.042-0.006-0.044c0-0.011-0.009-0.034-0.028-0.068c-0.019-0.034-0.032-0.059-0.04-0.072c-0.013-0.019-0.031-0.042-0.054-0.07c-0.023-0.028-0.045-0.056-0.068-0.082c-0.023-0.027-0.043-0.049-0.06-0.068c-0.018-0.019-0.027-0.028-0.03-0.028h-0.768l-0.492-0.524v-0.492l0.492-0.488h0.98c0.003,0,0.013,0.009,0.03,0.026c0.017,0.018,0.03,0.031,0.038,0.042c0.01,0.014,0.026,0.034,0.048,0.062s0.043,0.057,0.066,0.086c0.023,0.029,0.043,0.057,0.062,0.082s0.031,0.042,0.036,0.05c0.005,0.013,0.017,0.037,0.036,0.072c0.019,0.035,0.029,0.058,0.032,0.068c0.003,0.003,0.004,0.009,0.004,0.02c0,0.008,0,0.015,0,0.02s0,0.012,0,0.02c0,0.008-0.001,0.012-0.004,0.012c-0.005,0.008-0.017,0.021-0.034,0.038c-0.018,0.017-0.029,0.027-0.034,0.03c-0.003,0.003-0.014,0.005-0.034,0.006c-0.02,0.001-0.035,0.002-0.046,0.002c-0.008,0-0.02,0-0.034-0.002c-0.015-0.001-0.023-0.003-0.026-0.006l-0.352-0.348h-0.7c-0.014,0-0.034,0.011-0.06,0.032c-0.027,0.021-0.055,0.046-0.084,0.076c-0.029,0.03-0.058,0.06-0.084,0.092c-0.027,0.032-0.044,0.059-0.052,0.08c0,0.002-0.001,0.011-0.004,0.024s-0.005,0.029-0.006,0.048c-0.001,0.019-0.003,0.038-0.004,0.056c-0.001,0.019-0.002,0.033-0.002,0.044c0,0.013,0.001,0.029,0.002,0.048c0.001,0.019,0.002,0.038,0.004,0.056c0.001,0.019,0.003,0.035,0.006,0.05s0.004,0.023,0.004,0.026c0.011,0.024,0.029,0.053,0.054,0.088s0.053,0.069,0.084,0.102s0.059,0.062,0.086,0.086s0.045,0.036,0.056,0.036h0.912c0.005,0.008,0.017,0.026,0.034,0.054c0.018,0.028,0.029,0.046,0.034,0.054c0.005,0.008,0.019,0.025,0.04,0.052c0.021,0.027,0.044,0.056,0.068,0.086c0.024,0.031,0.046,0.06,0.066,0.088c0.02,0.028,0.033,0.046,0.038,0.054c0.005,0.008,0.012,0.019,0.02,0.032c0.008,0.013,0.015,0.028,0.022,0.044c0.006,0.016,0.013,0.03,0.018,0.042c0.005,0.012,0.008,0.02,0.008,0.022s0,0.014,0.002,0.034s0.003,0.042,0.004,0.068c0.001,0.025,0.002,0.051,0.002,0.078c0,0.026,0,0.048,0,0.064c0,0.016,0,0.037,0,0.064c0,0.026-0.001,0.053-0.002,0.08c-0.001,0.026-0.002,0.049-0.004,0.068s-0.002,0.029-0.002,0.032c0,0.008-0.009,0.03-0.026,0.066c-0.018,0.036-0.031,0.061-0.042,0.074c-0.005,0.008-0.018,0.025-0.036,0.05c-0.019,0.025-0.039,0.052-0.062,0.082c-0.022,0.03-0.044,0.058-0.066,0.086c-0.021,0.028-0.038,0.048-0.048,0.062c-0.008,0.013-0.021,0.028-0.038,0.046c-0.018,0.017-0.027,0.026-0.03,0.026h-0.98c-0.328-0.328-0.493-0.496-0.494-0.504C23.472,18.738,23.471,18.731,23.471,18.726z"/>
            <path  fill="#FFFFFF" d="M25.663,19.146c0-0.005,0.001-0.017,0.004-0.036c0.005-0.008,0.017-0.021,0.034-0.038c0.018-0.017,0.03-0.028,0.038-0.034c0.011-0.003,0.029-0.008,0.054-0.016s0.053-0.015,0.084-0.022s0.059-0.013,0.086-0.02s0.045-0.01,0.056-0.01v-2.1c-0.011,0-0.029-0.003-0.056-0.01c-0.027-0.006-0.055-0.013-0.086-0.02c-0.031-0.006-0.059-0.014-0.084-0.022c-0.025-0.008-0.043-0.015-0.054-0.02c-0.008-0.002-0.021-0.013-0.038-0.03c-0.017-0.018-0.027-0.028-0.03-0.032c-0.003-0.004-0.005-0.01-0.006-0.02c-0.001-0.009-0.002-0.017-0.002-0.022s0-0.012,0.002-0.02c0.001-0.008,0.002-0.013,0.002-0.016c0.005-0.011,0.017-0.025,0.036-0.042c0.019-0.018,0.03-0.026,0.036-0.026h0.908c0.005,0,0.017,0.009,0.036,0.026c0.019,0.017,0.03,0.031,0.036,0.042v0.036v0.036c-0.005,0.008-0.017,0.021-0.036,0.038c-0.019,0.017-0.031,0.027-0.036,0.03c-0.011,0.005-0.029,0.012-0.054,0.02c-0.025,0.008-0.053,0.016-0.084,0.022c-0.031,0.007-0.059,0.014-0.086,0.02c-0.027,0.007-0.045,0.01-0.056,0.01v2.1c0.011,0,0.029,0.003,0.056,0.01s0.055,0.013,0.086,0.02s0.059,0.014,0.084,0.022s0.043,0.013,0.054,0.016c0.005,0.005,0.017,0.017,0.036,0.034c0.019,0.018,0.03,0.03,0.036,0.038v0.036v0.032c-0.005,0.013-0.017,0.028-0.036,0.046c-0.019,0.017-0.031,0.026-0.036,0.026h-0.908c-0.005,0-0.017-0.009-0.036-0.026c-0.019-0.018-0.03-0.029-0.032-0.036c-0.003-0.007-0.005-0.014-0.006-0.022C25.664,19.158,25.663,19.151,25.663,19.146z"/>
            <path  fill="#FFFFFF" d="M27.571,16.59h0.908l0.492,0.488c0,0.002,0.001,0.008,0.002,0.016c0.001,0.008,0.002,0.015,0.002,0.02c0,0.005-0.001,0.012-0.002,0.02c-0.001,0.008-0.002,0.014-0.002,0.016c-0.005,0.008-0.017,0.021-0.034,0.038c-0.018,0.018-0.03,0.027-0.038,0.03c-0.003,0.003-0.008,0.005-0.016,0.006c-0.008,0.001-0.015,0.002-0.02,0.002s-0.012,0-0.02-0.002c-0.008-0.001-0.012-0.003-0.012-0.006l-0.42-0.348h-0.772l-0.28,0.28v1.54c0,0.003,0.008,0.013,0.024,0.03c0.016,0.017,0.036,0.037,0.058,0.06c0.022,0.023,0.046,0.045,0.07,0.068c0.024,0.022,0.044,0.039,0.06,0.05c0.013,0.011,0.038,0.025,0.072,0.044s0.057,0.028,0.068,0.028c0.002,0,0.017,0,0.042,0.002c0.025,0.001,0.054,0.002,0.086,0.002c0.035,0,0.069,0,0.102,0.002s0.061,0.002,0.082,0.002s0.049,0,0.084-0.002s0.068-0.002,0.1-0.002c0.035,0,0.064-0.001,0.09-0.002c0.025-0.001,0.04-0.002,0.042-0.002s0.011-0.003,0.024-0.008s0.027-0.012,0.042-0.02c0.015-0.008,0.029-0.016,0.044-0.024s0.025-0.015,0.03-0.02c0.016-0.011,0.036-0.027,0.06-0.05c0.024-0.023,0.047-0.045,0.07-0.068c0.022-0.022,0.042-0.042,0.058-0.06c0.016-0.018,0.024-0.027,0.024-0.03v-0.596h-0.7c-0.005,0-0.017-0.014-0.036-0.04c-0.019-0.027-0.031-0.048-0.036-0.064c0-0.003,0-0.008-0.002-0.016c-0.001-0.008-0.002-0.015-0.002-0.02s0-0.012,0.002-0.02c0.001-0.008,0.002-0.013,0.002-0.016c0.005-0.011,0.017-0.024,0.036-0.042c0.019-0.017,0.03-0.026,0.036-0.026h0.98v1.048c0,0.005-0.009,0.017-0.028,0.034c-0.019,0.017-0.033,0.03-0.044,0.038c-0.013,0.01-0.034,0.026-0.062,0.048s-0.057,0.042-0.086,0.064s-0.057,0.042-0.082,0.06s-0.042,0.031-0.05,0.036c-0.008,0.005-0.02,0.012-0.034,0.02c-0.015,0.008-0.029,0.016-0.044,0.024c-0.015,0.008-0.028,0.015-0.04,0.02c-0.012,0.005-0.02,0.008-0.022,0.008h-0.908c-0.002,0-0.01-0.002-0.022-0.008c-0.012-0.005-0.026-0.012-0.042-0.02c-0.016-0.008-0.031-0.016-0.044-0.024c-0.013-0.008-0.024-0.015-0.032-0.02c-0.008-0.005-0.024-0.018-0.05-0.036s-0.053-0.039-0.082-0.06s-0.058-0.042-0.086-0.064s-0.049-0.038-0.062-0.048c-0.013-0.008-0.029-0.021-0.046-0.038c-0.018-0.018-0.026-0.029-0.026-0.034v-1.82L27.571,16.59z"/>
        </g>
        <g >
            <path  fill="#FFFFFF" d="M30.294,16.586c0-0.005,0.008-0.017,0.026-0.034c0.017-0.017,0.029-0.027,0.036-0.03c0.006-0.002,0.014-0.004,0.022-0.006c0.008-0.001,0.015-0.002,0.02-0.002c0.005,0,0.017,0.001,0.036,0.004c0.016,0.005,0.038,0.017,0.064,0.034c0.027,0.018,0.04,0.029,0.04,0.034v1.684l0.668,0.628h0.068c0.093-0.112,0.19-0.229,0.292-0.35c0.101-0.121,0.203-0.238,0.304-0.35v-1.612c0-0.002,0.014-0.013,0.042-0.032c0.028-0.019,0.049-0.031,0.062-0.036c0.003,0,0.008,0,0.016-0.002s0.015-0.002,0.02-0.002s0.017,0.001,0.036,0.004c0.01,0.005,0.024,0.017,0.042,0.034c0.017,0.018,0.026,0.029,0.026,0.034v1.752c0,0.003-0.008,0.015-0.024,0.036s-0.035,0.047-0.056,0.078s-0.044,0.061-0.068,0.092s-0.044,0.056-0.06,0.074c-0.016,0.021-0.042,0.053-0.076,0.094c-0.035,0.042-0.07,0.085-0.108,0.13c-0.037,0.045-0.072,0.087-0.104,0.124c-0.032,0.038-0.053,0.062-0.064,0.072c-0.013,0.013-0.031,0.032-0.052,0.056c-0.021,0.024-0.043,0.046-0.064,0.068c-0.021,0.021-0.042,0.041-0.06,0.058c-0.019,0.017-0.03,0.027-0.032,0.03s-0.013,0.005-0.032,0.008c-0.019,0.003-0.034,0.004-0.044,0.004c-0.008,0-0.02-0.001-0.036-0.004c-0.016-0.002-0.025-0.005-0.028-0.008l-0.912-0.912V16.586z"/>
            <path  fill="#FFFFFF" d="M32.934,16.59h0.908l0.492,0.488c0,0.002,0,0.008,0.002,0.016c0.001,0.008,0.002,0.015,0.002,0.02c0,0.005-0.001,0.012-0.002,0.02c-0.002,0.008-0.002,0.014-0.002,0.016c-0.006,0.008-0.017,0.021-0.034,0.038c-0.018,0.018-0.03,0.027-0.038,0.03c-0.003,0.003-0.008,0.005-0.016,0.006c-0.009,0.001-0.015,0.002-0.021,0.002c-0.005,0-0.012,0-0.02-0.002c-0.009-0.001-0.013-0.003-0.013-0.006l-0.42-0.348h-0.772l-0.28,0.28v1.54c0,0.003,0.008,0.013,0.024,0.03c0.016,0.017,0.036,0.037,0.058,0.06c0.022,0.023,0.046,0.045,0.07,0.068c0.024,0.022,0.044,0.039,0.06,0.05c0.013,0.011,0.038,0.025,0.072,0.044s0.057,0.028,0.068,0.028c0.002,0,0.017,0,0.042,0.002c0.025,0.001,0.054,0.002,0.086,0.002c0.035,0,0.069,0,0.102,0.002s0.061,0.002,0.082,0.002s0.049,0,0.084-0.002s0.068-0.002,0.1-0.002c0.035,0,0.065-0.001,0.09-0.002c0.024-0.001,0.039-0.002,0.042-0.002c0.005,0,0.025-0.009,0.062-0.026c0.036-0.017,0.063-0.033,0.078-0.046c0.005-0.002,0.018-0.011,0.038-0.024c0.02-0.013,0.042-0.028,0.065-0.044c0.024-0.016,0.047-0.031,0.068-0.044c0.021-0.014,0.034-0.023,0.04-0.028c0.005-0.002,0.016-0.007,0.03-0.014c0.015-0.007,0.029-0.014,0.044-0.022c0.015-0.008,0.027-0.016,0.04-0.022c0.012-0.007,0.02-0.01,0.021-0.01c0.003,0,0.009,0,0.019-0.002c0.009-0.001,0.017-0.002,0.021-0.002c0.006,0,0.017,0.001,0.032,0.004c0.008,0.005,0.021,0.017,0.038,0.034c0.018,0.017,0.028,0.029,0.034,0.034c0,0.003,0,0.013,0.002,0.03c0.001,0.017,0.002,0.031,0.002,0.042s-0.002,0.033-0.004,0.068c-0.003,0.005-0.013,0.017-0.03,0.034c-0.018,0.017-0.031,0.03-0.042,0.038c-0.014,0.01-0.034,0.026-0.063,0.048c-0.027,0.021-0.057,0.042-0.086,0.064s-0.057,0.042-0.082,0.06s-0.042,0.031-0.05,0.036s-0.02,0.012-0.034,0.02c-0.015,0.008-0.029,0.016-0.044,0.024c-0.015,0.008-0.027,0.015-0.04,0.02c-0.012,0.005-0.019,0.008-0.021,0.008h-0.908c-0.002,0-0.01-0.002-0.022-0.008c-0.012-0.005-0.026-0.012-0.042-0.02c-0.016-0.008-0.031-0.016-0.044-0.024c-0.013-0.008-0.024-0.015-0.032-0.02c-0.008-0.005-0.024-0.018-0.05-0.036s-0.053-0.039-0.082-0.06s-0.058-0.042-0.086-0.064s-0.049-0.038-0.062-0.048c-0.013-0.008-0.029-0.021-0.046-0.038c-0.018-0.018-0.026-0.029-0.026-0.034v-1.82L32.934,16.59z"/>
            <path  fill="#FFFFFF" d="M35.158,16.59h0.907l0.492,0.488c0,0.002,0.001,0.008,0.002,0.016c0.002,0.008,0.002,0.015,0.002,0.02c0,0.005,0,0.012-0.002,0.02c-0.001,0.008-0.002,0.014-0.002,0.016c-0.005,0.008-0.017,0.021-0.034,0.038c-0.017,0.018-0.029,0.027-0.038,0.03c-0.002,0.003-0.008,0.005-0.016,0.006s-0.015,0.002-0.02,0.002c-0.006,0-0.013,0-0.021-0.002s-0.012-0.003-0.012-0.006l-0.42-0.348h-0.772l-0.279,0.28v1.54c0,0.003,0.008,0.013,0.023,0.03c0.016,0.017,0.035,0.037,0.058,0.06c0.023,0.023,0.047,0.045,0.07,0.068c0.024,0.022,0.044,0.039,0.061,0.05c0.013,0.011,0.037,0.025,0.071,0.044c0.035,0.019,0.058,0.028,0.068,0.028c0.003,0,0.017,0,0.042,0.002c0.025,0.001,0.054,0.002,0.086,0.002c0.034,0,0.068,0,0.102,0.002c0.034,0.001,0.062,0.002,0.082,0.002c0.021,0,0.05,0,0.084-0.002c0.035-0.001,0.068-0.002,0.101-0.002c0.034,0,0.064-0.001,0.09-0.002c0.025-0.001,0.039-0.002,0.042-0.002c0.005,0,0.026-0.009,0.063-0.026c0.035-0.017,0.062-0.033,0.077-0.046c0.006-0.002,0.019-0.011,0.038-0.024c0.021-0.013,0.042-0.028,0.066-0.044c0.023-0.016,0.047-0.031,0.068-0.044c0.021-0.014,0.034-0.023,0.039-0.028c0.006-0.002,0.016-0.007,0.03-0.014c0.015-0.007,0.029-0.014,0.044-0.022c0.015-0.008,0.028-0.016,0.04-0.022c0.013-0.007,0.02-0.01,0.022-0.01c0.002,0,0.009,0,0.018-0.002c0.01-0.001,0.017-0.002,0.022-0.002c0.005,0,0.016,0.001,0.031,0.004c0.009,0.005,0.021,0.017,0.038,0.034c0.018,0.017,0.029,0.029,0.034,0.034c0,0.003,0.001,0.013,0.002,0.03c0.002,0.017,0.002,0.031,0.002,0.042s-0.001,0.033-0.004,0.068c-0.003,0.005-0.013,0.017-0.03,0.034c-0.017,0.017-0.031,0.03-0.042,0.038c-0.013,0.01-0.033,0.026-0.062,0.048s-0.057,0.042-0.086,0.064s-0.057,0.042-0.082,0.06s-0.042,0.031-0.05,0.036s-0.02,0.012-0.034,0.02c-0.015,0.008-0.029,0.016-0.044,0.024c-0.015,0.008-0.028,0.015-0.04,0.02s-0.02,0.008-0.022,0.008h-0.907c-0.003,0-0.011-0.002-0.022-0.008s-0.026-0.012-0.042-0.02c-0.016-0.008-0.03-0.016-0.044-0.024c-0.014-0.008-0.024-0.015-0.032-0.02s-0.024-0.018-0.05-0.036s-0.053-0.039-0.082-0.06s-0.058-0.042-0.086-0.064s-0.049-0.038-0.062-0.048c-0.014-0.008-0.029-0.021-0.047-0.038c-0.017-0.018-0.025-0.029-0.025-0.034v-1.82L35.158,16.59z"/>
        </g>
        <g >
            <path  fill="#FFFFFF" d="M39.317,16.59h0.907l0.492,0.488c0,0.002,0.001,0.008,0.002,0.016c0.002,0.008,0.002,0.015,0.002,0.02c0,0.005,0,0.012-0.002,0.02c-0.001,0.008-0.002,0.014-0.002,0.016c-0.005,0.008-0.017,0.021-0.034,0.038c-0.017,0.018-0.029,0.027-0.038,0.03c-0.002,0.003-0.008,0.005-0.016,0.006s-0.015,0.002-0.02,0.002c-0.006,0-0.013,0-0.021-0.002s-0.012-0.003-0.012-0.006l-0.42-0.348h-0.772l-0.279,0.28v1.54c0,0.003,0.008,0.013,0.023,0.03c0.016,0.017,0.035,0.037,0.058,0.06c0.023,0.023,0.047,0.045,0.07,0.068c0.024,0.022,0.044,0.039,0.061,0.05c0.013,0.011,0.037,0.025,0.071,0.044c0.035,0.019,0.058,0.028,0.068,0.028c0.003,0,0.017,0,0.042,0.002c0.025,0.001,0.054,0.002,0.086,0.002c0.034,0,0.068,0,0.102,0.002c0.034,0.001,0.062,0.002,0.082,0.002c0.021,0,0.05,0,0.084-0.002c0.035-0.001,0.068-0.002,0.101-0.002c0.034,0,0.064-0.001,0.09-0.002c0.025-0.001,0.039-0.002,0.042-0.002s0.011-0.003,0.024-0.008c0.013-0.005,0.027-0.012,0.042-0.02c0.015-0.008,0.029-0.016,0.044-0.024s0.024-0.015,0.029-0.02c0.017-0.011,0.036-0.027,0.061-0.05c0.023-0.023,0.047-0.045,0.07-0.068c0.022-0.022,0.042-0.042,0.058-0.06c0.016-0.018,0.023-0.027,0.023-0.03v-0.596h-0.699c-0.006,0-0.018-0.014-0.036-0.04c-0.019-0.027-0.031-0.048-0.036-0.064c0-0.003-0.001-0.008-0.002-0.016c-0.001-0.008-0.002-0.015-0.002-0.02s0.001-0.012,0.002-0.02c0.001-0.008,0.002-0.013,0.002-0.016c0.005-0.011,0.018-0.024,0.036-0.042c0.019-0.017,0.03-0.026,0.036-0.026h0.979v1.048c0,0.005-0.009,0.017-0.027,0.034c-0.02,0.017-0.034,0.03-0.045,0.038c-0.013,0.01-0.033,0.026-0.062,0.048s-0.057,0.042-0.086,0.064s-0.057,0.042-0.082,0.06s-0.042,0.031-0.05,0.036s-0.02,0.012-0.034,0.02c-0.015,0.008-0.029,0.016-0.044,0.024c-0.015,0.008-0.028,0.015-0.04,0.02s-0.02,0.008-0.022,0.008h-0.907c-0.003,0-0.011-0.002-0.022-0.008s-0.026-0.012-0.042-0.02c-0.016-0.008-0.03-0.016-0.044-0.024c-0.014-0.008-0.024-0.015-0.032-0.02s-0.024-0.018-0.05-0.036s-0.053-0.039-0.082-0.06s-0.058-0.042-0.086-0.064s-0.049-0.038-0.062-0.048c-0.014-0.008-0.029-0.021-0.047-0.038c-0.017-0.018-0.025-0.029-0.025-0.034v-1.82L39.317,16.59z"/>
            <path  fill="#FFFFFF" d="M41.028,16.514c0.006,0,0.013,0,0.021,0s0.012,0.001,0.012,0.004c0.006,0.005,0.016,0.014,0.03,0.026c0.015,0.012,0.029,0.025,0.044,0.04s0.028,0.029,0.04,0.044s0.021,0.025,0.026,0.03l1.191,1.82l0.104,0.072v-1.964c0-0.002,0.014-0.013,0.042-0.032c0.027-0.019,0.048-0.031,0.062-0.036c0.003,0,0.008,0,0.017-0.002c0.008-0.001,0.014-0.002,0.02-0.002c0.005,0,0.018,0.001,0.036,0.004c0.011,0.005,0.024,0.017,0.042,0.034c0.018,0.018,0.025,0.029,0.025,0.034v2.592c0,0.005-0.008,0.017-0.025,0.036c-0.018,0.019-0.031,0.031-0.042,0.036c-0.003,0-0.008,0-0.017,0.002c-0.008,0.001-0.015,0.002-0.02,0.002c-0.006,0-0.012,0-0.02-0.002c-0.009-0.001-0.014-0.002-0.017-0.002c-0.005-0.002-0.016-0.011-0.03-0.024s-0.029-0.027-0.044-0.042s-0.028-0.029-0.042-0.044c-0.013-0.015-0.021-0.025-0.023-0.03l-1.188-1.824l-0.107-0.068v1.96c0,0.005-0.014,0.017-0.04,0.036c-0.027,0.019-0.044,0.029-0.053,0.032c-0.008,0.002-0.017,0.004-0.025,0.006c-0.01,0.001-0.017,0.002-0.022,0.002c-0.005,0-0.016-0.001-0.031-0.004c-0.014-0.005-0.029-0.017-0.047-0.036c-0.017-0.019-0.025-0.03-0.025-0.036v-2.592c0-0.005,0.009-0.017,0.025-0.034c0.018-0.017,0.033-0.028,0.047-0.034c0-0.003,0.004-0.004,0.012-0.004C41.016,16.514,41.023,16.514,41.028,16.514z"/>
            <path  fill="#FFFFFF" d="M42.94,16.586h1.332l0.487,0.492v1.82c0,0.003-0.008,0.013-0.025,0.032c-0.018,0.019-0.031,0.032-0.042,0.04c-0.014,0.01-0.034,0.026-0.063,0.048c-0.027,0.021-0.057,0.042-0.086,0.064s-0.057,0.042-0.082,0.06s-0.042,0.031-0.05,0.036c-0.016,0.013-0.042,0.028-0.078,0.046c-0.036,0.017-0.057,0.026-0.062,0.026H42.94V16.586z M43.221,18.97h0.911c0.009,0,0.03-0.009,0.066-0.026c0.036-0.017,0.061-0.033,0.074-0.046c0.016-0.011,0.036-0.027,0.06-0.05c0.024-0.023,0.047-0.045,0.068-0.068c0.021-0.022,0.04-0.042,0.056-0.06c0.017-0.018,0.024-0.027,0.024-0.03v-1.544l-0.28-0.28h-0.979V18.97z"/>
        </g>
        <g >
            <path  fill="#FFFFFF" d="M20.883,20.324l-0.453,0.453h-0.902c-0.002,0-0.012-0.007-0.028-0.022c-0.016-0.015-0.034-0.032-0.053-0.053s-0.04-0.042-0.061-0.064c-0.021-0.022-0.037-0.041-0.049-0.055c-0.013-0.012-0.031-0.034-0.055-0.064c-0.025-0.031-0.051-0.063-0.078-0.096s-0.053-0.065-0.077-0.096c-0.025-0.031-0.041-0.052-0.048-0.064c-0.388,0.344-0.586,0.516-0.593,0.517c-0.007,0.001-0.013,0.002-0.018,0.002s-0.016-0.001-0.033-0.003c-0.007-0.005-0.019-0.016-0.035-0.031c-0.016-0.016-0.026-0.028-0.031-0.035c0-0.002,0-0.007-0.002-0.015c-0.001-0.007-0.002-0.014-0.002-0.019s0.001-0.015,0.004-0.029l0.711-0.773v-0.615h-0.645c-0.005,0-0.016-0.012-0.033-0.037c-0.017-0.025-0.028-0.044-0.033-0.059c0-0.002,0-0.007-0.002-0.015c-0.001-0.007-0.002-0.014-0.002-0.019s0.001-0.015,0.004-0.029c0.005-0.012,0.016-0.026,0.033-0.042s0.028-0.024,0.033-0.024h2.449V20.324z M19.399,19.292c0,0.602,0.007,0.913,0.022,0.934s0.033,0.045,0.054,0.072c0.021,0.027,0.042,0.055,0.064,0.083c0.022,0.028,0.04,0.052,0.055,0.072c0.007,0.01,0.019,0.023,0.035,0.041c0.016,0.017,0.025,0.026,0.028,0.026h0.711l0.258-0.258v-0.969H19.399z"/>
            <path  fill="#FFFFFF" d="M19.981,22.548c0.005,0.002,0.025,0.006,0.063,0.011c0.037,0.005,0.065,0.007,0.084,0.007c0.01,0,0.024-0.001,0.042-0.002c0.019-0.001,0.037-0.003,0.055-0.005s0.035-0.005,0.05-0.008s0.023-0.003,0.026-0.003c0.02-0.01,0.044-0.026,0.074-0.05c0.029-0.023,0.058-0.049,0.084-0.077c0.027-0.028,0.05-0.055,0.07-0.079c0.02-0.025,0.03-0.042,0.03-0.052v-0.711l-0.32-0.387c-0.002,0-0.004-0.003-0.006-0.011c-0.001-0.007-0.002-0.014-0.002-0.019s0.001-0.012,0.002-0.02c0.001-0.009,0.003-0.013,0.006-0.013c0.002-0.007,0.011-0.019,0.027-0.035c0.016-0.016,0.028-0.026,0.035-0.031c0.002,0,0.007,0,0.015-0.001c0.007-0.001,0.014-0.002,0.019-0.002s0.011,0,0.018,0.002c0.007,0.001,0.012,0.001,0.015,0.001l0.449,0.453v0.836l-0.449,0.453h-0.516l-1.26-1.16v1.094c0,0.005-0.012,0.016-0.037,0.031c-0.025,0.016-0.044,0.028-0.059,0.035h-0.033h-0.029c-0.012-0.005-0.026-0.016-0.042-0.033s-0.024-0.028-0.024-0.033v-1.738L19.981,22.548z"/>
        </g>
        <g >
            <path  fill="#FFFFFF" d="M9.75,12.906l-0.453-0.453v-0.902c0-0.002,0.007-0.012,0.022-0.028c0.015-0.016,0.032-0.034,0.053-0.053s0.042-0.04,0.064-0.061c0.022-0.021,0.041-0.037,0.055-0.049c0.012-0.013,0.034-0.031,0.064-0.055c0.031-0.025,0.063-0.051,0.096-0.078s0.065-0.053,0.096-0.077c0.031-0.025,0.052-0.041,0.064-0.048c-0.344-0.388-0.516-0.586-0.517-0.593c-0.001-0.007-0.002-0.013-0.002-0.018s0.001-0.016,0.003-0.033c0.005-0.007,0.016-0.019,0.031-0.035c0.016-0.016,0.028-0.026,0.035-0.031c0.002,0,0.007,0,0.015-0.002c0.007-0.001,0.014-0.002,0.019-0.002s0.015,0.001,0.029,0.004l0.773,0.711h0.615v-0.645c0-0.005,0.012-0.016,0.037-0.033c0.025-0.017,0.044-0.028,0.059-0.033c0.002,0,0.007,0,0.015-0.002c0.007-0.001,0.014-0.002,0.019-0.002s0.015,0.001,0.029,0.004c0.012,0.005,0.026,0.016,0.042,0.033s0.024,0.028,0.024,0.033v2.449H9.75z M10.782,11.422c-0.602,0-0.913,0.007-0.934,0.022s-0.045,0.033-0.072,0.054c-0.027,0.021-0.055,0.042-0.083,0.064c-0.028,0.022-0.052,0.04-0.072,0.055c-0.01,0.007-0.023,0.019-0.041,0.035c-0.017,0.016-0.026,0.025-0.026,0.028v0.711l0.258,0.258h0.969V11.422z"/>
            <path  fill="#FFFFFF" d="M8.668,10.486c0,0.005-0.001,0.016-0.004,0.033c-0.005,0.007-0.015,0.019-0.031,0.035c-0.016,0.016-0.027,0.026-0.035,0.031c-0.01,0.002-0.026,0.007-0.05,0.015s-0.049,0.014-0.078,0.02c-0.028,0.006-0.054,0.013-0.079,0.019c-0.024,0.006-0.042,0.009-0.051,0.009v1.742c0.007-0.008,0.02-0.018,0.039-0.03s0.038-0.025,0.057-0.039s0.039-0.026,0.059-0.039c0.02-0.012,0.033-0.02,0.041-0.022c0.002-0.002,0.007-0.004,0.015-0.004c0.007,0,0.013,0,0.018,0s0.011,0,0.019,0s0.011,0.001,0.011,0.004c0.007,0.002,0.019,0.011,0.035,0.027c0.016,0.016,0.026,0.028,0.031,0.035c0,0.002,0.001,0.007,0.002,0.015c0.001,0.007,0.002,0.014,0.002,0.019s0,0.011-0.002,0.018c-0.001,0.007-0.002,0.012-0.002,0.015c-0.302,0.299-0.456,0.45-0.462,0.451c-0.006,0.001-0.012,0.001-0.017,0.001s-0.012,0-0.021-0.001C8.157,12.84,8.151,12.84,8.148,12.84c-0.015-0.005-0.034-0.016-0.059-0.031c-0.024-0.016-0.037-0.026-0.037-0.031v-2.129c-0.01,0-0.029-0.003-0.057-0.009c-0.028-0.006-0.058-0.012-0.09-0.019c-0.032-0.006-0.062-0.013-0.088-0.02c-0.027-0.007-0.045-0.012-0.056-0.015c-0.005-0.005-0.016-0.016-0.033-0.031c-0.018-0.016-0.028-0.028-0.033-0.035v-0.033v-0.029c0.005-0.012,0.016-0.026,0.033-0.042c0.017-0.016,0.028-0.024,0.033-0.024h0.836c0.005,0,0.016,0.008,0.033,0.024c0.018,0.016,0.027,0.027,0.03,0.033c0.002,0.006,0.004,0.013,0.005,0.02C8.667,10.475,8.668,10.481,8.668,10.486z"/>
        </g>
        <g >
            <path  fill="#FFFFFF" d="M60.562,18.975c-0.005,0-0.016-0.008-0.032-0.024s-0.027-0.03-0.032-0.042v-0.029v-0.033c0.007-0.015,0.019-0.034,0.034-0.059c0.016-0.024,0.025-0.037,0.03-0.037h1.887l0.251-0.291v-0.711l-0.251-0.287h-1.887c-0.005,0-0.015-0.013-0.03-0.039s-0.027-0.046-0.034-0.061v-0.029v-0.033c0.005-0.01,0.016-0.023,0.032-0.041s0.027-0.026,0.032-0.026h1.947l0.442,0.453v0.836l-0.442,0.453H60.562z"/>
            <path  fill="#FFFFFF" d="M62.857,16.607c-0.005,0-0.016-0.001-0.032-0.004c-0.007-0.005-0.019-0.015-0.034-0.031c-0.016-0.016-0.025-0.027-0.03-0.035c-0.002-0.01-0.007-0.026-0.015-0.05c-0.007-0.023-0.014-0.049-0.02-0.078c-0.006-0.028-0.012-0.054-0.018-0.079c-0.006-0.024-0.01-0.042-0.01-0.051H61c0.007,0.007,0.017,0.02,0.028,0.039c0.013,0.019,0.024,0.038,0.038,0.057c0.013,0.02,0.025,0.039,0.038,0.059c0.012,0.02,0.019,0.033,0.021,0.041c0.002,0.002,0.003,0.007,0.003,0.015c0,0.007,0,0.013,0,0.018s0,0.011,0,0.019s-0.001,0.011-0.003,0.011c-0.003,0.007-0.012,0.019-0.027,0.035c-0.016,0.016-0.027,0.026-0.034,0.031c-0.002,0-0.007,0.001-0.015,0.002c-0.007,0.001-0.013,0.002-0.018,0.002s-0.011,0-0.018-0.002c-0.008-0.001-0.013-0.002-0.015-0.002c-0.292-0.302-0.439-0.456-0.44-0.462c-0.001-0.006-0.002-0.012-0.002-0.017s0.001-0.012,0.002-0.021c0.001-0.008,0.002-0.014,0.002-0.017c0.005-0.015,0.015-0.034,0.03-0.059c0.016-0.025,0.026-0.037,0.03-0.037h2.077c0-0.01,0.004-0.029,0.01-0.057c0.006-0.028,0.012-0.058,0.018-0.09c0.006-0.032,0.013-0.062,0.02-0.088c0.008-0.027,0.013-0.045,0.015-0.056c0.005-0.005,0.015-0.016,0.03-0.033c0.016-0.018,0.027-0.028,0.034-0.033h0.032h0.029c0.012,0.005,0.025,0.016,0.041,0.033c0.016,0.017,0.023,0.028,0.023,0.033v0.836c0,0.005-0.008,0.016-0.023,0.033c-0.016,0.018-0.026,0.027-0.032,0.03s-0.013,0.004-0.02,0.005C62.868,16.606,62.862,16.607,62.857,16.607z"/>
        </g>
        <g >
            <path  fill="#FFFFFF" d="M50.886,9.362c0,0.015-0.001,0.035-0.003,0.06C50.881,9.446,50.88,9.46,50.88,9.464c-0.004,0.008-0.02,0.023-0.045,0.048c-0.026,0.024-0.043,0.039-0.052,0.042c-0.008,0.004-0.018,0.006-0.029,0.008c-0.013,0.002-0.022,0.003-0.03,0.003s-0.019-0.001-0.03-0.003s-0.02-0.002-0.023-0.002s-0.017-0.005-0.036-0.014c-0.021-0.01-0.041-0.02-0.063-0.031c-0.021-0.012-0.043-0.022-0.063-0.031c-0.021-0.01-0.036-0.016-0.048-0.02c-0.009-0.008-0.027-0.021-0.058-0.04c-0.03-0.019-0.063-0.04-0.099-0.063c-0.036-0.023-0.07-0.043-0.103-0.063c-0.031-0.019-0.052-0.03-0.06-0.034c-0.012-0.007-0.028-0.017-0.048-0.028c-0.021-0.011-0.042-0.021-0.066-0.031c-0.023-0.009-0.045-0.019-0.063-0.028c-0.019-0.009-0.029-0.014-0.033-0.014s-0.026-0.001-0.066-0.003s-0.069-0.002-0.09-0.002c-0.02,0-0.05,0-0.09,0.002s-0.062,0.003-0.066,0.003c-0.016,0.004-0.051,0.018-0.104,0.042c-0.054,0.025-0.089,0.044-0.105,0.06c-0.023,0.015-0.054,0.039-0.09,0.071c-0.036,0.032-0.07,0.064-0.104,0.096s-0.063,0.061-0.087,0.085c-0.024,0.025-0.036,0.039-0.036,0.043v2.581c0.016,0,0.044,0.005,0.084,0.014s0.083,0.019,0.129,0.028s0.088,0.02,0.126,0.031s0.065,0.021,0.081,0.028c0.012,0.004,0.031,0.018,0.057,0.042c0.026,0.025,0.041,0.04,0.045,0.045c0.004,0.006,0.007,0.015,0.009,0.028c0.003,0.013,0.004,0.024,0.004,0.031c0,0.008-0.001,0.017-0.004,0.028c-0.002,0.012-0.003,0.019-0.003,0.023c-0.008,0.015-0.025,0.035-0.054,0.06c-0.027,0.024-0.046,0.037-0.054,0.037h-1.362c-0.008,0-0.025-0.012-0.054-0.037c-0.028-0.025-0.046-0.044-0.054-0.06v-0.051v-0.051c0.008-0.012,0.025-0.029,0.054-0.054c0.028-0.024,0.046-0.039,0.054-0.042c0.017-0.007,0.046-0.017,0.09-0.028s0.093-0.022,0.145-0.031s0.101-0.019,0.146-0.028s0.077-0.014,0.094-0.014V9.266c0.012-0.007,0.037-0.024,0.077-0.051s0.066-0.043,0.078-0.051c0.013-0.007,0.038-0.025,0.078-0.054s0.084-0.06,0.132-0.094c0.048-0.034,0.093-0.066,0.132-0.096c0.04-0.03,0.066-0.047,0.078-0.051c0.013-0.007,0.028-0.017,0.048-0.028c0.021-0.011,0.043-0.022,0.066-0.034c0.024-0.011,0.045-0.021,0.063-0.028c0.018-0.007,0.028-0.011,0.032-0.011c0.005,0,0.021-0.001,0.052-0.003c0.029-0.002,0.064-0.003,0.104-0.003c0.036,0,0.074,0,0.114-0.002s0.072-0.003,0.096-0.003c0.024,0,0.057,0.001,0.096,0.003c0.04,0.002,0.08,0.002,0.12,0.002s0.074,0.001,0.103,0.003s0.044,0.003,0.048,0.003c0.008,0,0.021,0.004,0.039,0.011c0.018,0.008,0.038,0.017,0.06,0.028c0.022,0.012,0.043,0.023,0.063,0.034c0.02,0.011,0.036,0.021,0.048,0.028c0.012,0.008,0.037,0.024,0.075,0.051c0.038,0.026,0.079,0.055,0.123,0.085s0.087,0.061,0.129,0.091s0.073,0.053,0.093,0.068c0.016,0.012,0.038,0.029,0.066,0.054c0.027,0.024,0.042,0.039,0.042,0.042c0,0.003,0.001,0.018,0.003,0.042C50.885,9.327,50.886,9.347,50.886,9.362z"/>
            <path  fill="#FFFFFF" d="M47.021,8.914c0,0.008-0.002,0.024-0.006,0.051c-0.009,0.011-0.025,0.029-0.052,0.054c-0.025,0.024-0.045,0.041-0.057,0.048c-0.016,0.003-0.043,0.011-0.081,0.022s-0.08,0.022-0.126,0.031s-0.089,0.019-0.129,0.028s-0.068,0.014-0.084,0.014v2.684c0.012-0.011,0.033-0.026,0.063-0.045c0.03-0.019,0.062-0.039,0.094-0.06c0.032-0.021,0.063-0.041,0.096-0.06s0.054-0.03,0.066-0.034c0.004-0.004,0.012-0.005,0.023-0.005s0.022,0,0.03,0s0.018,0,0.03,0c0.012,0,0.018,0.001,0.018,0.005c0.012,0.004,0.031,0.018,0.057,0.042c0.026,0.025,0.043,0.042,0.052,0.054c0,0.003,0.001,0.011,0.003,0.022s0.003,0.021,0.003,0.028c0,0.008-0.001,0.017-0.003,0.028c-0.002,0.012-0.003,0.019-0.003,0.023c-0.492,0.461-0.743,0.693-0.753,0.695c-0.011,0.002-0.02,0.003-0.027,0.003s-0.019-0.001-0.033-0.003c-0.014-0.002-0.022-0.003-0.026-0.003c-0.024-0.007-0.057-0.023-0.097-0.048c-0.04-0.025-0.06-0.041-0.06-0.048V9.164c-0.017,0-0.047-0.005-0.093-0.014C45.88,9.14,45.831,9.13,45.779,9.121s-0.1-0.02-0.144-0.031s-0.074-0.019-0.091-0.022c-0.008-0.008-0.025-0.024-0.054-0.048s-0.046-0.042-0.054-0.054V8.914V8.869c0.008-0.019,0.025-0.041,0.054-0.065c0.028-0.025,0.046-0.037,0.054-0.037h1.362c0.008,0,0.026,0.012,0.054,0.037c0.028,0.024,0.044,0.042,0.049,0.051c0.004,0.009,0.007,0.02,0.009,0.031S47.021,8.906,47.021,8.914z"/>
        </g>
        <g >
            <path  fill="#FFFFFF" d="M6.386,21.343H5.209l-0.431-0.435V19.3c0-0.002,0.008-0.012,0.023-0.028c0.016-0.017,0.028-0.028,0.037-0.035c0.012-0.01,0.03-0.024,0.055-0.042c0.024-0.019,0.05-0.038,0.076-0.057s0.05-0.037,0.073-0.053c0.022-0.016,0.037-0.027,0.044-0.032c0.014-0.012,0.037-0.025,0.069-0.041s0.05-0.023,0.055-0.023h1.177V21.343z M6.139,19.237H5.333c-0.007,0-0.027,0.007-0.059,0.023c-0.032,0.015-0.053,0.029-0.065,0.041c-0.014,0.009-0.032,0.024-0.053,0.044c-0.021,0.02-0.042,0.04-0.06,0.06c-0.019,0.02-0.036,0.038-0.05,0.053c-0.014,0.015-0.021,0.024-0.021,0.026v1.364l0.248,0.247h0.866V19.237z"/>
        </g>
        <g >
            <path  fill="#FFFFFF" d="M56.683,30.768h-0.907l-0.492-0.437c0-0.002-0.001-0.007-0.002-0.015c-0.002-0.007-0.002-0.013-0.002-0.018c0-0.005,0-0.011,0.002-0.018c0.001-0.007,0.002-0.012,0.002-0.015c0.005-0.007,0.017-0.019,0.034-0.034c0.017-0.016,0.029-0.025,0.038-0.027c0.002-0.002,0.008-0.004,0.016-0.005c0.008-0.001,0.015-0.002,0.02-0.002c0.006,0,0.013,0,0.021,0.002c0.008,0.001,0.012,0.003,0.012,0.005l0.42,0.312h0.772l0.279-0.251v-1.379c0-0.002-0.008-0.012-0.023-0.027c-0.016-0.016-0.035-0.034-0.058-0.054c-0.023-0.02-0.047-0.041-0.07-0.061c-0.024-0.021-0.044-0.036-0.061-0.045c-0.013-0.01-0.037-0.023-0.071-0.04c-0.035-0.017-0.058-0.025-0.068-0.025c-0.003,0-0.017,0-0.042-0.002c-0.025-0.001-0.054-0.002-0.086-0.002c-0.034,0-0.068,0-0.102-0.001c-0.034-0.001-0.062-0.002-0.082-0.002c-0.021,0-0.05,0-0.084,0.002c-0.035,0.001-0.068,0.001-0.101,0.001c-0.034,0-0.064,0.001-0.09,0.002c-0.025,0.001-0.039,0.002-0.042,0.002c-0.005,0-0.026,0.008-0.063,0.023c-0.035,0.015-0.062,0.029-0.077,0.041c-0.006,0.002-0.019,0.009-0.038,0.021c-0.021,0.012-0.042,0.025-0.066,0.04c-0.023,0.014-0.047,0.027-0.068,0.039c-0.021,0.012-0.034,0.021-0.039,0.025c-0.006,0.002-0.016,0.006-0.03,0.012c-0.015,0.006-0.029,0.013-0.044,0.02s-0.028,0.014-0.04,0.02c-0.013,0.006-0.02,0.009-0.022,0.009c-0.002,0-0.009,0-0.018,0.001c-0.01,0.001-0.017,0.002-0.022,0.002c-0.005,0-0.016-0.001-0.031-0.003c-0.009-0.005-0.021-0.015-0.038-0.031c-0.018-0.016-0.029-0.025-0.034-0.03c0-0.002-0.001-0.011-0.002-0.027c-0.002-0.016-0.002-0.028-0.002-0.038c0-0.01,0.001-0.03,0.004-0.061c0.003-0.005,0.013-0.015,0.03-0.03c0.017-0.016,0.031-0.027,0.042-0.034c0.013-0.01,0.033-0.024,0.062-0.043c0.028-0.02,0.057-0.039,0.086-0.058s0.057-0.037,0.082-0.054s0.042-0.027,0.05-0.032s0.02-0.011,0.034-0.018c0.015-0.007,0.029-0.014,0.044-0.021c0.015-0.007,0.028-0.013,0.04-0.018c0.012-0.005,0.02-0.007,0.022-0.007h0.907c0.003,0,0.011,0.002,0.022,0.007c0.012,0.004,0.026,0.011,0.042,0.018c0.016,0.007,0.03,0.015,0.044,0.021c0.014,0.007,0.024,0.013,0.032,0.018s0.024,0.016,0.05,0.032s0.053,0.035,0.082,0.054s0.058,0.038,0.086,0.058c0.028,0.019,0.049,0.033,0.062,0.043c0.014,0.007,0.029,0.019,0.047,0.034c0.017,0.015,0.025,0.025,0.025,0.03v1.631L56.683,30.768z"/>
            <path  fill="#FFFFFF" d="M54.599,28.478c0,0.005-0.001,0.016-0.004,0.032c-0.005,0.007-0.017,0.019-0.034,0.034c-0.017,0.015-0.029,0.025-0.038,0.03c-0.011,0.002-0.028,0.007-0.054,0.014c-0.025,0.007-0.054,0.014-0.084,0.02c-0.03,0.006-0.06,0.012-0.086,0.018c-0.026,0.006-0.045,0.009-0.056,0.009v1.695c0.008-0.007,0.021-0.017,0.042-0.029c0.02-0.012,0.04-0.024,0.062-0.038s0.043-0.026,0.064-0.038c0.021-0.012,0.036-0.02,0.044-0.021c0.002-0.002,0.008-0.004,0.016-0.004s0.015,0,0.021,0c0.005,0,0.012,0,0.02,0s0.012,0.001,0.012,0.004c0.009,0.002,0.021,0.011,0.038,0.027c0.018,0.015,0.029,0.027,0.034,0.034c0,0.002,0.001,0.007,0.002,0.015c0.002,0.007,0.002,0.013,0.002,0.018c0,0.004,0,0.011-0.002,0.018c-0.001,0.007-0.002,0.012-0.002,0.015c-0.328,0.291-0.495,0.438-0.502,0.439c-0.007,0.001-0.013,0.001-0.018,0.001c-0.006,0-0.013,0-0.022-0.001c-0.009-0.001-0.016-0.002-0.018-0.002c-0.017-0.005-0.038-0.015-0.064-0.03c-0.026-0.016-0.04-0.026-0.04-0.031v-2.071c-0.011,0-0.031-0.003-0.062-0.009c-0.031-0.006-0.063-0.012-0.099-0.018c-0.034-0.006-0.066-0.013-0.096-0.02c-0.029-0.007-0.049-0.012-0.06-0.014c-0.006-0.005-0.018-0.015-0.036-0.03c-0.019-0.016-0.031-0.027-0.036-0.034v-0.032v-0.029c0.005-0.012,0.018-0.026,0.036-0.041c0.019-0.016,0.03-0.023,0.036-0.023h0.907c0.006,0,0.018,0.008,0.036,0.023c0.019,0.015,0.029,0.026,0.032,0.032c0.003,0.006,0.005,0.012,0.006,0.02C54.599,28.467,54.599,28.473,54.599,28.478z"/>
        </g>
        <g >
            <path  fill="#FFFFFF" d="M4.242,31.743c0-0.004,0.001-0.016,0.004-0.032c0.005-0.005,0.017-0.016,0.034-0.032c0.018-0.017,0.03-0.026,0.038-0.029c0-0.002,0.005-0.004,0.014-0.005c0.009-0.001,0.017-0.002,0.022-0.002s0.012,0,0.02,0.002c0.008,0.001,0.012,0.003,0.012,0.005c0.008,0.005,0.019,0.013,0.034,0.025c0.015,0.012,0.029,0.025,0.044,0.038s0.028,0.026,0.04,0.038c0.012,0.012,0.02,0.021,0.022,0.025l0.648,1.097l0.684-1.162c0.005-0.007,0.017-0.019,0.034-0.034c0.017-0.016,0.028-0.024,0.034-0.027c0.003-0.002,0.008-0.004,0.016-0.004c0.008,0,0.015,0,0.02,0s0.012,0,0.02,0c0.011,0,0.016,0.001,0.016,0.004c0.008,0.005,0.021,0.015,0.038,0.03c0.017,0.016,0.027,0.026,0.03,0.031c0.003,0.002,0.005,0.012,0.006,0.029c0.001,0.017,0.002,0.029,0.002,0.036c0,0.007-0.001,0.019-0.002,0.034c-0.001,0.016-0.003,0.024-0.006,0.027l-0.768,1.385c-0.005,0.007-0.017,0.019-0.034,0.034c-0.018,0.016-0.028,0.025-0.032,0.027s-0.011,0.004-0.02,0.005C5.203,33.29,5.195,33.29,5.19,33.29s-0.016-0.001-0.032-0.003c-0.008-0.005-0.02-0.013-0.034-0.025c-0.015-0.012-0.029-0.025-0.044-0.038s-0.028-0.026-0.04-0.038c-0.012-0.012-0.02-0.021-0.022-0.025l-0.772-1.385c0-0.002-0.001-0.007-0.002-0.015C4.243,31.754,4.242,31.748,4.242,31.743z"/>
            <path  fill="#FFFFFF" d="M6.754,33.182c0-0.004,0.001-0.015,0.004-0.032c0.005-0.007,0.017-0.019,0.034-0.034c0.018-0.016,0.03-0.026,0.038-0.03c0.011-0.002,0.029-0.007,0.054-0.015s0.053-0.014,0.084-0.02c0.031-0.006,0.059-0.012,0.086-0.018c0.027-0.006,0.045-0.009,0.056-0.009v-1.702c-0.008,0.007-0.022,0.017-0.042,0.029c-0.02,0.012-0.041,0.025-0.062,0.038c-0.021,0.013-0.043,0.025-0.064,0.038c-0.021,0.012-0.036,0.019-0.044,0.021c-0.003,0.002-0.008,0.004-0.016,0.004c-0.008,0-0.015,0-0.02,0s-0.012,0-0.02,0c-0.008,0-0.012-0.001-0.012-0.004c-0.008-0.002-0.021-0.011-0.038-0.027c-0.017-0.016-0.028-0.027-0.034-0.034c0-0.002-0.001-0.007-0.002-0.015c-0.001-0.007-0.002-0.013-0.002-0.018s0-0.011,0.002-0.018c0.001-0.007,0.002-0.012,0.002-0.015c0.328-0.292,0.495-0.439,0.502-0.44c0.006-0.001,0.013-0.002,0.018-0.002s0.013,0,0.022,0.002c0.009,0.001,0.015,0.001,0.018,0.001c0.016,0.005,0.037,0.015,0.064,0.031c0.026,0.016,0.04,0.026,0.04,0.031v2.079c0.01,0,0.031,0.003,0.062,0.009c0.03,0.006,0.063,0.012,0.098,0.018c0.035,0.006,0.067,0.012,0.096,0.02s0.049,0.012,0.06,0.015c0.005,0.004,0.017,0.015,0.036,0.03c0.019,0.016,0.03,0.027,0.036,0.034v0.032v0.029c-0.005,0.012-0.017,0.026-0.036,0.042c-0.019,0.016-0.031,0.023-0.036,0.023H6.83c-0.005,0-0.017-0.008-0.036-0.023c-0.019-0.016-0.03-0.026-0.032-0.032c-0.003-0.006-0.005-0.013-0.006-0.02C6.754,33.193,6.754,33.187,6.754,33.182z"/>
            <path  fill="#FFFFFF" d="M8.73,33.315c-0.136,0-0.232-0.097-0.232-0.227c0-0.13,0.1-0.227,0.24-0.227s0.236,0.094,0.236,0.227c0,0.129-0.096,0.227-0.24,0.227H8.73z"/>
            <path  fill="#FFFFFF" d="M9.598,33.182c0-0.004,0.001-0.015,0.004-0.032c0.005-0.007,0.017-0.019,0.034-0.034c0.018-0.016,0.03-0.026,0.038-0.03c0.011-0.002,0.029-0.007,0.054-0.015s0.053-0.014,0.084-0.02c0.031-0.006,0.059-0.012,0.086-0.018c0.027-0.006,0.045-0.009,0.056-0.009v-1.702c-0.008,0.007-0.022,0.017-0.042,0.029c-0.02,0.012-0.041,0.025-0.062,0.038c-0.021,0.013-0.043,0.025-0.064,0.038c-0.021,0.012-0.036,0.019-0.044,0.021c-0.003,0.002-0.008,0.004-0.016,0.004c-0.008,0-0.015,0-0.02,0s-0.012,0-0.02,0c-0.008,0-0.012-0.001-0.012-0.004c-0.008-0.002-0.021-0.011-0.038-0.027c-0.017-0.016-0.028-0.027-0.034-0.034c0-0.002-0.001-0.007-0.002-0.015c-0.001-0.007-0.002-0.013-0.002-0.018s0-0.011,0.002-0.018c0.001-0.007,0.002-0.012,0.002-0.015c0.328-0.292,0.495-0.439,0.502-0.44c0.006-0.001,0.013-0.002,0.018-0.002s0.013,0,0.022,0.002c0.009,0.001,0.015,0.001,0.018,0.001c0.016,0.005,0.037,0.015,0.064,0.031c0.026,0.016,0.04,0.026,0.04,0.031v2.079c0.01,0,0.031,0.003,0.062,0.009c0.03,0.006,0.063,0.012,0.098,0.018c0.035,0.006,0.067,0.012,0.096,0.02s0.049,0.012,0.06,0.015c0.005,0.004,0.017,0.015,0.036,0.03c0.019,0.016,0.03,0.027,0.036,0.034v0.032v0.029c-0.005,0.012-0.017,0.026-0.036,0.042c-0.019,0.016-0.031,0.023-0.036,0.023H9.674c-0.005,0-0.017-0.008-0.036-0.023c-0.019-0.016-0.03-0.026-0.032-0.032C9.603,33.214,9.601,33.208,9.6,33.2C9.599,33.193,9.598,33.187,9.598,33.182z"/>
        </g>
        <g >
            <g >
                <path  fill="#FFFFFF" d="M4.395,26.011c-0.007,0-0.022-0.018-0.046-0.055s-0.038-0.061-0.041-0.071S4.302,25.863,4.3,25.853c-0.001-0.01-0.002-0.019-0.002-0.026c0-0.007,0.001-0.023,0.005-0.047c0.007-0.014,0.022-0.034,0.046-0.058s0.039-0.037,0.046-0.037H6.63c0.007,0,0.022,0.013,0.046,0.037c0.023,0.024,0.039,0.044,0.046,0.058v0.047v0.042c-0.01,0.021-0.026,0.05-0.049,0.087c-0.022,0.037-0.037,0.055-0.043,0.055H5.689v3.182c0,0.007-0.017,0.023-0.051,0.048c-0.034,0.024-0.056,0.039-0.066,0.042s-0.021,0.006-0.033,0.008c-0.012,0.002-0.021,0.003-0.028,0.003s-0.021-0.002-0.041-0.005c-0.021-0.007-0.049-0.023-0.084-0.047c-0.036-0.025-0.054-0.041-0.054-0.048v-3.182H4.395z"/>
                <path  fill="#FFFFFF" d="M7.593,27.441c0-0.003,0.01-0.017,0.031-0.04s0.045-0.048,0.074-0.076c0.029-0.028,0.059-0.058,0.089-0.09s0.056-0.056,0.077-0.074c0.024-0.021,0.055-0.046,0.092-0.076s0.076-0.06,0.115-0.09c0.039-0.03,0.073-0.055,0.102-0.077c0.029-0.021,0.045-0.032,0.049-0.032h1.162c0.003,0,0.02,0.011,0.048,0.032c0.029,0.021,0.063,0.047,0.103,0.077c0.039,0.03,0.077,0.06,0.115,0.09s0.068,0.055,0.092,0.076c0.021,0.018,0.046,0.042,0.077,0.074s0.061,0.062,0.09,0.09c0.029,0.028,0.054,0.053,0.074,0.076c0.02,0.023,0.03,0.036,0.03,0.04v1.198l-0.629,0.649H8.222l-0.629-0.649V27.441z M8.309,28.918h0.987l0.358-0.369v-0.923c0-0.004-0.012-0.017-0.036-0.04c-0.024-0.022-0.043-0.041-0.057-0.055c-0.024-0.021-0.055-0.046-0.095-0.077c-0.039-0.03-0.078-0.06-0.118-0.089c-0.039-0.03-0.072-0.056-0.1-0.077s-0.042-0.032-0.046-0.032s-0.021-0.002-0.054-0.005c-0.033-0.003-0.07-0.006-0.113-0.008s-0.086-0.003-0.13-0.005c-0.044-0.001-0.08-0.002-0.107-0.002s-0.063,0.001-0.105,0.002c-0.042,0.002-0.085,0.003-0.128,0.005s-0.08,0.004-0.112,0.008c-0.033,0.003-0.051,0.005-0.054,0.005c-0.003,0-0.019,0.011-0.046,0.032s-0.061,0.046-0.1,0.077c-0.039,0.03-0.079,0.06-0.118,0.089c-0.039,0.03-0.071,0.056-0.095,0.077c-0.017,0.014-0.037,0.033-0.059,0.055c-0.022,0.023-0.034,0.036-0.034,0.04v0.923L8.309,28.918z"/>
                <path  fill="#FFFFFF" d="M10.882,26.993c0-0.007,0.011-0.022,0.033-0.045s0.038-0.036,0.046-0.04c0.009-0.003,0.018-0.006,0.028-0.008c0.01-0.001,0.019-0.002,0.025-0.002s0.016,0.001,0.026,0.002c0.01,0.002,0.017,0.003,0.021,0.003c0.021,0.007,0.047,0.022,0.082,0.045s0.051,0.038,0.051,0.045v1.572l0.404,0.37h1.387v-1.942c0-0.007,0.018-0.022,0.054-0.045c0.036-0.023,0.059-0.036,0.069-0.04s0.021-0.006,0.031-0.008c0.01-0.001,0.019-0.002,0.025-0.002s0.022,0.002,0.046,0.005c0.014,0.007,0.032,0.022,0.056,0.045s0.036,0.038,0.036,0.045v2.311h-1.791l-0.629-0.649V26.993z"/>
                <path  fill="#FFFFFF" d="M14.172,27.441l0.629-0.649H16.5c0.007,0,0.022,0.012,0.046,0.037c0.024,0.024,0.039,0.044,0.046,0.058v0.048v0.042c-0.01,0.021-0.026,0.05-0.048,0.087c-0.022,0.037-0.037,0.055-0.043,0.055h-1.612l-0.358,0.412v1.019l0.358,0.417H16.5c0.007,0,0.021,0.018,0.043,0.053c0.022,0.035,0.038,0.063,0.048,0.084v0.047v0.042c-0.007,0.018-0.022,0.038-0.046,0.061s-0.039,0.034-0.046,0.034h-1.699l-0.629-0.649V27.441z"/>
                <path  fill="#FFFFFF" d="M17.595,25.773c0.007,0,0.016,0.001,0.026,0.002c0.01,0.002,0.017,0.003,0.021,0.003c0.021,0.007,0.047,0.022,0.082,0.045s0.051,0.038,0.051,0.045v1.108l0.317-0.185h1.162c0.003,0,0.02,0.011,0.048,0.032s0.063,0.046,0.103,0.076c0.039,0.03,0.077,0.061,0.115,0.093c0.038,0.031,0.068,0.058,0.092,0.079c0.021,0.018,0.046,0.042,0.077,0.071s0.061,0.06,0.09,0.089c0.029,0.03,0.054,0.056,0.074,0.077c0.02,0.021,0.03,0.034,0.03,0.037v1.847c0,0.007-0.012,0.023-0.036,0.048c-0.024,0.024-0.039,0.039-0.046,0.042s-0.016,0.006-0.028,0.008c-0.012,0.002-0.021,0.003-0.028,0.003s-0.02-0.002-0.041-0.005c-0.021-0.007-0.049-0.023-0.084-0.047c-0.036-0.025-0.054-0.041-0.054-0.048v-1.662c-0.01-0.007-0.033-0.022-0.066-0.045c-0.034-0.023-0.057-0.038-0.067-0.045c-0.014-0.01-0.038-0.029-0.071-0.055c-0.034-0.026-0.071-0.054-0.11-0.082c-0.039-0.028-0.075-0.056-0.107-0.084c-0.032-0.028-0.055-0.047-0.069-0.058h-0.896l-0.404,0.37v1.662c0,0.007-0.017,0.023-0.051,0.048c-0.034,0.024-0.061,0.041-0.082,0.047c-0.003,0-0.01,0.001-0.021,0.002c-0.01,0.002-0.019,0.003-0.026,0.003s-0.021-0.002-0.041-0.005c-0.017-0.007-0.037-0.023-0.059-0.047c-0.022-0.025-0.033-0.041-0.033-0.048v-3.324c0-0.007,0.011-0.022,0.033-0.045s0.038-0.036,0.046-0.04c0.009-0.003,0.018-0.006,0.028-0.008C17.58,25.774,17.588,25.773,17.595,25.773z"/>
            </g>
            <g >
                <path  fill="#FFFFFF" d="M24.016,28.597c0-0.007,0.001-0.023,0.005-0.047c0.007-0.011,0.021-0.027,0.043-0.05c0.022-0.023,0.036-0.036,0.041-0.04c0.005-0.003,0.013-0.006,0.023-0.008c0.01-0.002,0.019-0.002,0.026-0.002s0.015,0,0.025,0.002s0.017,0.002,0.021,0.002c0.014,0.028,0.044,0.066,0.092,0.114c0.048,0.047,0.1,0.096,0.156,0.145c0.057,0.049,0.112,0.093,0.167,0.132c0.055,0.039,0.095,0.063,0.123,0.074c0.003,0.004,0.024,0.007,0.062,0.011s0.08,0.007,0.128,0.011s0.096,0.006,0.144,0.008c0.047,0.002,0.087,0.002,0.118,0.002c0.017,0,0.047,0,0.089-0.002s0.087-0.004,0.133-0.008c0.046-0.003,0.09-0.007,0.133-0.011c0.042-0.003,0.072-0.007,0.089-0.011c0.01-0.01,0.029-0.028,0.057-0.053c0.027-0.024,0.055-0.052,0.084-0.082c0.029-0.03,0.056-0.059,0.08-0.087c0.024-0.028,0.041-0.048,0.051-0.058c0.01-0.014,0.026-0.044,0.048-0.09c0.022-0.046,0.035-0.077,0.039-0.095c0.003-0.003,0.006-0.022,0.007-0.058c0.002-0.035,0.003-0.061,0.003-0.079c0-0.018-0.001-0.044-0.003-0.079c-0.001-0.035-0.004-0.054-0.007-0.058c0-0.014-0.012-0.044-0.036-0.089c-0.024-0.046-0.041-0.078-0.051-0.095c-0.017-0.024-0.041-0.055-0.069-0.092s-0.058-0.073-0.087-0.108c-0.029-0.035-0.055-0.065-0.077-0.089c-0.022-0.025-0.035-0.037-0.039-0.037H24.65l-0.629-0.691v-0.649l0.629-0.644h1.254c0.003,0,0.016,0.012,0.038,0.035c0.022,0.022,0.039,0.041,0.049,0.055c0.014,0.018,0.034,0.045,0.062,0.082c0.027,0.037,0.055,0.075,0.084,0.113c0.029,0.039,0.056,0.075,0.08,0.108c0.024,0.034,0.039,0.056,0.046,0.066c0.007,0.018,0.022,0.049,0.046,0.095c0.024,0.046,0.038,0.076,0.041,0.09c0.003,0.003,0.005,0.012,0.005,0.026c0,0.01,0,0.02,0,0.026s0,0.016,0,0.026s-0.002,0.016-0.005,0.016c-0.007,0.011-0.021,0.027-0.043,0.05c-0.022,0.023-0.037,0.036-0.043,0.04c-0.003,0.003-0.018,0.006-0.043,0.008c-0.025,0.002-0.045,0.003-0.059,0.003c-0.01,0-0.025-0.001-0.044-0.003c-0.019-0.001-0.03-0.004-0.033-0.008l-0.45-0.459h-0.896c-0.017,0-0.042,0.014-0.077,0.042c-0.034,0.028-0.07,0.062-0.107,0.101c-0.038,0.039-0.073,0.079-0.107,0.121c-0.034,0.042-0.056,0.078-0.066,0.105c0,0.004-0.002,0.014-0.005,0.032s-0.006,0.039-0.007,0.063c-0.002,0.024-0.003,0.049-0.005,0.074c-0.001,0.025-0.002,0.044-0.002,0.058c0,0.018,0.001,0.039,0.002,0.063c0.002,0.024,0.003,0.049,0.005,0.074c0.001,0.025,0.004,0.047,0.007,0.066c0.003,0.02,0.005,0.031,0.005,0.034c0.014,0.032,0.037,0.071,0.069,0.116c0.033,0.046,0.068,0.091,0.107,0.135c0.04,0.044,0.076,0.082,0.11,0.113c0.034,0.032,0.058,0.047,0.071,0.047h1.167c0.007,0.011,0.021,0.035,0.043,0.071c0.022,0.037,0.037,0.061,0.043,0.071c0.007,0.011,0.024,0.034,0.051,0.069c0.027,0.035,0.056,0.073,0.087,0.113s0.059,0.079,0.084,0.116c0.025,0.037,0.042,0.061,0.048,0.071c0.007,0.01,0.016,0.024,0.026,0.042c0.01,0.018,0.02,0.037,0.028,0.058c0.009,0.021,0.016,0.04,0.023,0.056c0.007,0.016,0.01,0.025,0.01,0.029s0.001,0.019,0.003,0.045c0.001,0.026,0.003,0.056,0.005,0.09c0.001,0.033,0.002,0.068,0.002,0.103c0,0.036,0,0.063,0,0.084c0,0.021,0,0.049,0,0.084s-0.001,0.071-0.002,0.105c-0.002,0.036-0.003,0.065-0.005,0.09c-0.002,0.025-0.003,0.039-0.003,0.042c0,0.01-0.011,0.04-0.033,0.087c-0.022,0.047-0.04,0.08-0.054,0.098c-0.007,0.011-0.022,0.033-0.046,0.066c-0.024,0.034-0.05,0.069-0.08,0.108c-0.029,0.039-0.057,0.076-0.084,0.113c-0.027,0.037-0.048,0.064-0.062,0.082c-0.01,0.018-0.026,0.038-0.049,0.061c-0.022,0.023-0.035,0.034-0.038,0.034H24.65c-0.419-0.433-0.63-0.654-0.632-0.665C24.017,28.613,24.016,28.604,24.016,28.597z"/>
                <path  fill="#FFFFFF" d="M27.229,27.441l0.629-0.649h1.162l0.629,0.649v0.787h-1.99c0,0.01-0.005,0.031-0.015,0.063s-0.021,0.064-0.031,0.098c-0.01,0.034-0.019,0.066-0.026,0.098s-0.007,0.053,0,0.063c0.014,0.032,0.039,0.071,0.074,0.119c0.036,0.047,0.073,0.093,0.11,0.137c0.037,0.044,0.073,0.082,0.107,0.113c0.034,0.032,0.056,0.048,0.066,0.048h1.075c0.006,0,0.021,0.018,0.043,0.053c0.022,0.035,0.038,0.063,0.048,0.084v0.047v0.042c-0.007,0.018-0.022,0.038-0.046,0.061s-0.04,0.034-0.046,0.034h-1.162l-0.629-0.649V27.441z M29.35,27.755c-0.005-0.026-0.011-0.054-0.018-0.084c-0.007-0.03-0.015-0.058-0.023-0.084c-0.009-0.026-0.015-0.044-0.018-0.055c-0.017-0.028-0.043-0.063-0.077-0.105c-0.034-0.042-0.071-0.083-0.11-0.122c-0.039-0.039-0.075-0.072-0.107-0.1c-0.032-0.028-0.054-0.042-0.064-0.042h-0.987c-0.01,0-0.033,0.014-0.066,0.042c-0.034,0.028-0.07,0.062-0.107,0.1c-0.038,0.039-0.074,0.079-0.11,0.122c-0.036,0.042-0.061,0.077-0.074,0.105c-0.007,0.011-0.014,0.029-0.02,0.055c-0.007,0.027-0.015,0.055-0.023,0.084c-0.008,0.03-0.015,0.058-0.021,0.084c-0.005,0.026-0.007,0.045-0.007,0.056h1.842C29.358,27.8,29.355,27.781,29.35,27.755z"/>
                <path  fill="#FFFFFF" d="M32.223,26.887c0.003,0,0.02,0.011,0.049,0.032c0.029,0.021,0.062,0.046,0.1,0.074c0.038,0.028,0.076,0.058,0.115,0.089s0.071,0.058,0.095,0.079c0.021,0.018,0.046,0.042,0.077,0.071c0.031,0.03,0.06,0.06,0.087,0.09s0.051,0.056,0.072,0.079s0.031,0.036,0.031,0.04v1.847h-0.312v-1.662c-0.01-0.007-0.033-0.023-0.067-0.048c-0.034-0.024-0.056-0.04-0.066-0.047c-0.014-0.011-0.038-0.029-0.072-0.055c-0.034-0.027-0.071-0.054-0.11-0.082s-0.075-0.055-0.107-0.082c-0.032-0.026-0.056-0.044-0.069-0.055h-1.213v2.032h-0.312v-2.401H32.223z"/>
                <path  fill="#FFFFFF" d="M33.722,29.151c0-0.007,0.002-0.023,0.005-0.047c0.007-0.021,0.022-0.049,0.046-0.084s0.039-0.053,0.046-0.053h1.52c0.003,0,0.017-0.012,0.041-0.037c0.023-0.024,0.05-0.055,0.078-0.09c0.029-0.035,0.058-0.071,0.085-0.108c0.027-0.037,0.045-0.062,0.054-0.074c0.008-0.012,0.014-0.024,0.016-0.037s0.002-0.022,0.002-0.029c0-0.007-0.002-0.021-0.005-0.042c-0.011-0.011-0.027-0.03-0.052-0.058c-0.023-0.028-0.05-0.057-0.078-0.087c-0.029-0.03-0.058-0.057-0.085-0.082c-0.027-0.024-0.046-0.042-0.056-0.053c-0.038,0-0.104-0.004-0.197-0.013s-0.193-0.018-0.297-0.026c-0.104-0.009-0.203-0.018-0.297-0.026s-0.158-0.017-0.191-0.024c-0.011-0.003-0.039-0.017-0.085-0.04c-0.046-0.022-0.077-0.041-0.095-0.055c-0.01-0.007-0.031-0.023-0.064-0.047c-0.031-0.025-0.066-0.051-0.104-0.08c-0.038-0.028-0.074-0.056-0.11-0.084c-0.036-0.028-0.063-0.049-0.079-0.063c-0.014-0.011-0.033-0.028-0.057-0.053c-0.024-0.025-0.036-0.039-0.036-0.042c-0.003-0.003-0.006-0.024-0.008-0.063c-0.001-0.039-0.002-0.067-0.002-0.084s0.001-0.043,0.002-0.077c0.002-0.033,0.004-0.05,0.008-0.05c0.003-0.003,0.016-0.018,0.038-0.042c0.022-0.025,0.047-0.052,0.074-0.082c0.027-0.03,0.057-0.059,0.087-0.087c0.03-0.028,0.054-0.051,0.071-0.069c0.024-0.021,0.054-0.047,0.092-0.079s0.075-0.062,0.115-0.089c0.039-0.028,0.073-0.053,0.103-0.074c0.029-0.021,0.045-0.032,0.049-0.032h1.611c0.007,0,0.021,0.012,0.043,0.035c0.022,0.023,0.037,0.041,0.044,0.055c0.003,0,0.005,0.007,0.005,0.021c0,0.011,0,0.02,0,0.026c0,0.007,0,0.016,0,0.026c0,0.011-0.002,0.018-0.005,0.021c-0.007,0.018-0.022,0.045-0.046,0.082c-0.024,0.037-0.038,0.056-0.041,0.056h-1.433l-0.358,0.322c0.004,0.007,0.014,0.021,0.031,0.04c0.017,0.02,0.034,0.039,0.053,0.058c0.02,0.02,0.038,0.038,0.057,0.055c0.02,0.018,0.031,0.028,0.039,0.032c0.017,0.014,0.047,0.033,0.092,0.056c0.044,0.023,0.073,0.036,0.087,0.04c0.04,0.007,0.111,0.015,0.212,0.023c0.101,0.009,0.208,0.018,0.322,0.026c0.115,0.009,0.223,0.018,0.325,0.027S35.569,27.9,35.61,27.9c0.007,0.007,0.021,0.022,0.044,0.047c0.021,0.024,0.036,0.041,0.043,0.047c0.014,0.018,0.034,0.045,0.062,0.082c0.027,0.037,0.056,0.075,0.085,0.113c0.028,0.039,0.055,0.075,0.078,0.108c0.024,0.033,0.04,0.055,0.047,0.066c0.003,0.007,0.01,0.019,0.018,0.037c0.009,0.018,0.018,0.036,0.028,0.056c0.011,0.019,0.02,0.038,0.028,0.055c0.008,0.018,0.013,0.03,0.013,0.037c0.003,0,0.005,0.007,0.005,0.021c0,0.011,0,0.02,0,0.026c0,0.007,0,0.016,0,0.026c0,0.011-0.002,0.016-0.005,0.016c0,0.007-0.005,0.019-0.013,0.037c-0.009,0.018-0.018,0.036-0.028,0.056c-0.011,0.019-0.02,0.038-0.028,0.055c-0.008,0.018-0.015,0.03-0.018,0.037c-0.007,0.011-0.022,0.033-0.047,0.066c-0.023,0.034-0.05,0.069-0.078,0.108c-0.029,0.039-0.058,0.076-0.085,0.113s-0.048,0.064-0.062,0.082c-0.01,0.018-0.026,0.038-0.049,0.061c-0.021,0.023-0.035,0.034-0.038,0.034H33.82c-0.007,0-0.022-0.011-0.046-0.034s-0.038-0.039-0.041-0.048c-0.003-0.008-0.006-0.018-0.007-0.029C33.723,29.167,33.722,29.158,33.722,29.151z"/>
                <path  fill="#FFFFFF" d="M36.93,27.441c0-0.003,0.011-0.017,0.031-0.04s0.045-0.048,0.074-0.076c0.029-0.028,0.059-0.058,0.09-0.09c0.03-0.032,0.056-0.056,0.076-0.074c0.023-0.021,0.055-0.046,0.092-0.076c0.038-0.03,0.076-0.06,0.115-0.09s0.074-0.055,0.103-0.077c0.029-0.021,0.046-0.032,0.049-0.032h1.161c0.004,0,0.02,0.011,0.049,0.032c0.029,0.021,0.063,0.047,0.103,0.077c0.039,0.03,0.077,0.06,0.114,0.09c0.038,0.03,0.068,0.055,0.093,0.076c0.021,0.018,0.046,0.042,0.077,0.074c0.03,0.032,0.061,0.062,0.09,0.09c0.028,0.028,0.053,0.053,0.074,0.076c0.02,0.023,0.029,0.036,0.029,0.04v1.198l-0.629,0.649H37.56l-0.63-0.649V27.441z M37.646,28.918h0.987l0.358-0.369v-0.923c0-0.004-0.012-0.017-0.035-0.04c-0.024-0.022-0.043-0.041-0.057-0.055c-0.024-0.021-0.056-0.046-0.096-0.077c-0.039-0.03-0.078-0.06-0.117-0.089c-0.039-0.03-0.072-0.056-0.1-0.077s-0.043-0.032-0.046-0.032s-0.021-0.002-0.054-0.005c-0.033-0.003-0.07-0.006-0.113-0.008c-0.042-0.002-0.086-0.003-0.13-0.005c-0.044-0.001-0.08-0.002-0.107-0.002s-0.063,0.001-0.104,0.002c-0.043,0.002-0.086,0.003-0.129,0.005c-0.042,0.002-0.08,0.004-0.111,0.008c-0.033,0.003-0.051,0.005-0.055,0.005c-0.003,0-0.019,0.011-0.046,0.032s-0.061,0.046-0.1,0.077c-0.039,0.03-0.079,0.06-0.118,0.089c-0.039,0.03-0.07,0.056-0.094,0.077c-0.018,0.014-0.037,0.033-0.059,0.055c-0.023,0.023-0.034,0.036-0.034,0.04v0.923L37.646,28.918z"/>
                <path  fill="#FFFFFF" d="M40.354,26.882c0.006,0,0.021,0.001,0.046,0.005c0.011,0.007,0.027,0.022,0.051,0.045c0.024,0.023,0.038,0.038,0.041,0.045c0.003,0.021,0.011,0.058,0.021,0.111s0.02,0.108,0.028,0.167c0.009,0.058,0.017,0.113,0.025,0.166s0.013,0.09,0.013,0.111c0.018-0.014,0.047-0.038,0.09-0.071c0.043-0.033,0.088-0.07,0.136-0.111s0.093-0.078,0.136-0.113c0.042-0.035,0.072-0.06,0.09-0.074c0.023-0.021,0.055-0.046,0.094-0.076s0.078-0.06,0.117-0.09c0.04-0.03,0.073-0.055,0.101-0.077c0.027-0.021,0.042-0.032,0.046-0.032s0.018-0.001,0.041-0.005s0.053-0.006,0.087-0.008c0.034-0.001,0.068-0.003,0.103-0.005c0.033-0.002,0.061-0.003,0.082-0.003c0.01,0,0.03,0.001,0.061,0.003c0.031,0.001,0.063,0.003,0.096,0.005c0.031,0.002,0.063,0.005,0.094,0.008c0.031,0.003,0.052,0.005,0.063,0.005c0.01,0.007,0.025,0.022,0.048,0.045c0.022,0.023,0.036,0.038,0.044,0.045v0.047v0.048c-0.008,0.01-0.022,0.027-0.047,0.05c-0.023,0.023-0.039,0.036-0.045,0.04c-0.011,0.004-0.038,0.01-0.082,0.019c-0.045,0.009-0.092,0.018-0.141,0.026c-0.051,0.009-0.098,0.019-0.141,0.029c-0.045,0.01-0.072,0.018-0.082,0.021c-0.004,0-0.02,0.011-0.049,0.034s-0.063,0.048-0.103,0.077c-0.04,0.028-0.077,0.058-0.115,0.09s-0.068,0.056-0.093,0.074c-0.014,0.011-0.047,0.039-0.1,0.084s-0.109,0.095-0.171,0.148c-0.062,0.053-0.118,0.102-0.169,0.147c-0.051,0.046-0.084,0.074-0.098,0.084c-0.01,0.007-0.033,0.022-0.068,0.045c-0.036,0.023-0.059,0.038-0.069,0.045v1.108c0,0.007-0.017,0.023-0.052,0.048c-0.033,0.024-0.061,0.041-0.081,0.047c-0.003,0-0.011,0.001-0.021,0.002c-0.01,0.002-0.02,0.003-0.025,0.003c-0.008,0-0.021-0.002-0.041-0.005c-0.018-0.007-0.037-0.023-0.059-0.047c-0.022-0.025-0.033-0.041-0.033-0.048v-2.216c0-0.007,0.011-0.022,0.033-0.045c0.021-0.022,0.037-0.036,0.045-0.04c0.01-0.003,0.019-0.006,0.029-0.008C40.338,26.883,40.346,26.882,40.354,26.882z"/>
            </g>
        </g>
        <g  gorn="0.3.11" id="touch_pad">
            <circle cx="33.563"  cy="46.987" stroke="#FFFFFF" r="1.542" fill="none" stroke-miterlimit="10" stroke-width="0.5"/>
            <circle cx="33.563"  cy="46.987" stroke="#FFFFFF" r="5.292" fill="none" stroke-miterlimit="10" stroke-width="0.5"/>
            <circle cx="33.563"  cy="46.987" stroke="#FFFFFF" r="8.625" fill="none" stroke-miterlimit="10" stroke-width="0.5"/>
            <circle cx="33.563"  cy="46.987" stroke="#FFFFFF" r="11.125" fill="none" stroke-miterlimit="10" stroke-width="0.5"/>
            <circle cx="33.563"  cy="46.987" stroke="#FFFFFF" r="13.188" fill="none" stroke-miterlimit="10" stroke-width="0.5"/>
            <circle cx="33.563"  cy="46.987" stroke="#FFFFFF" r="14.688" fill="none" stroke-miterlimit="10" stroke-width="0.5"/>
            <circle cx="33.563"  cy="46.987" stroke="#FFFFFF" r="16.344" fill="none" stroke-miterlimit="10" stroke-width="1"/>
        </g>
        <g  gorn="0.3.12" id="boxes">
            <rect  stroke="#FFFFFF" height="7.219" fill="none" stroke-miterlimit="10" width="21.344" x="22.656" stroke-width="0.4" y="6.781"/>
            <rect  stroke="#FFFFFF" height="4.333" fill="none" stroke-miterlimit="10" width="8.896" x="11.646" stroke-width="0.4" y="9.667"/>
            <rect  stroke="#FFFFFF" height="8.646" fill="none" stroke-miterlimit="10" width="4.417" x="7.042" stroke-width="0.4" y="16.208"/>
            <rect  stroke="#FFFFFF" height="9.125" fill="none" stroke-miterlimit="10" width="4.25" x="13.5" stroke-width="0.4" y="15.938"/>
            <rect  stroke="#FFFFFF" height="4.354" fill="none" stroke-miterlimit="10" width="8.709" x="50.854" stroke-width="0.4" y="23.417"/>
        </g>
    </g>
    <g >
        <path  gorn="0.4.0" fill="#9A916C" d="M38.276,10.365c0,1.231,0.998,2.229,2.229,2.229c1.23,0,2.229-0.998,2.229-2.229s-0.998-2.229-2.229-2.229C39.274,8.135,38.276,9.133,38.276,10.365z M41.839,10.365c0,0.736-0.597,1.333-1.333,1.333s-1.334-0.597-1.334-1.333s0.598-1.333,1.334-1.333S41.839,9.628,41.839,10.365z" id="connector8pin"/>
        <path  gorn="0.4.1" fill="#9A916C" d="M35.535,10.365c0-1.231-0.998-2.229-2.229-2.229c-1.23,0-2.229,0.998-2.229,2.229s0.998,2.23,2.229,2.23C34.537,12.594,35.535,11.596,35.535,10.365z M31.973,10.364c0-0.736,0.597-1.333,1.333-1.333s1.334,0.597,1.334,1.333s-0.598,1.333-1.334,1.333S31.973,11.101,31.973,10.364z" id="connector9pin"/>
        <path  gorn="0.4.2" fill="#9A916C" d="M28.335,10.364c0-1.231-0.998-2.229-2.229-2.229c-1.231,0-2.229,0.998-2.229,2.229s0.998,2.229,2.229,2.229C27.337,12.594,28.335,11.596,28.335,10.364z M24.772,10.364c0-0.736,0.597-1.333,1.333-1.333s1.334,0.597,1.334,1.333s-0.598,1.333-1.334,1.333S24.772,11.101,24.772,10.364z" id="connector10pin"/>
    </g>
    <g >
        <rect  height="4.943" fill="#F6EAAE" width="2.424" x="8.038" y="18.156"/>
        <polyline  stroke="#A3A2A2" points="8.643,22.071 8.643,21.69 8.923,20.329 " opacity="0.52" fill="none" stroke-miterlimit="10" stroke-width="0.5"/>
        <polyline  stroke="#EAE8BE" points="8.315,21.587 8.948,21.587 9.25,21.958 " fill="none" stroke-miterlimit="10" stroke-width="0.5"/>
        <polyline  stroke="#EAE8BE" points="8.315,20.227 9.306,20.227 9.535,20.625 9.957,21.363 " fill="none" stroke-miterlimit="10" stroke-width="0.5"/>
        <line y1="19.646" y2="20.625"  x1="9.787" stroke="#EAE8BE" x2="9.535" fill="#CEC3B2" stroke-miterlimit="10" stroke-width="0.5"/>
        <circle cx="9.299"  cy="20.59" opacity="0.69" r="0.333" fill="#938674"/>
        <rect  height="0.43" fill="#F9EFC4" width="2.424" x="8.038" y="18.156"/>
        <rect  height="0.429" fill="#F9EFC4" width="2.424" x="8.039" y="22.67"/>
        <polyline  points="8.781,18.156 9.535,18.156 9.159,18.511 " fill="#685F52"/>
        <polyline  points="9.535,23.099 8.781,23.099 9.16,22.743 " fill="#685F52"/>
        <g >
            <rect  height="0.722" fill="#82AB71" width="0.671" x="8.039" y="18.987"/>
        </g>
    </g>
    <g >
        <rect  height="4.054" fill="#020202" width="2.282" x="14.484" y="18.473"/>
        <rect  height="0.937" fill="#C6C6C5" width="2.282" x="14.484" y="18.473"/>
        <rect  height="0.964" fill="#C6C6C5" width="2.282" x="14.484" y="21.563"/>
    </g>
    <g >
        <rect  height="2.282" fill="#020202" width="4.054" x="13.982" y="10.557"/>
        <rect  height="2.282" fill="#C6C6C5" width="0.937" x="17.099" y="10.557"/>
        <rect  height="2.282" fill="#C6C6C5" width="0.964" x="13.982" y="10.557"/>
    </g>
    <g >
        <rect  height="3.845" fill="#303030" width="7.274" x="51.454" y="15.565"/>
        <polyline  points="58.729,15.565 59.144,15.239 59.144,19.768 58.729,19.41 "/>
        <polygon  points="51.035,15.239 51.035,19.768 51.454,19.41 51.454,15.565 " fill="#3D3E3D"/>
        <polygon  points="51.035,19.768 51.454,19.41 58.729,19.41 59.144,19.768 51.14,19.768 " fill="#1E1F1F"/>
        <polygon  points="51.035,15.239 51.454,15.565 58.729,15.565 59.144,15.239 51.14,15.239 " fill="#1E1F1F"/>
        <g >
            <rect  height="1.898" fill="#D3D3D3" width="1.262" x="57.132" y="19.768"/>
            <rect  height="0.576" fill="#707071" width="1.262" x="57.132" y="20.588"/>
        </g>
        <g >
            <rect  height="1.898" fill="#D3D3D3" width="1.262" x="54.367" y="19.768"/>
            <rect  height="0.576" fill="#707071" width="1.262" x="54.367" y="20.588"/>
        </g>
        <g >
            <rect  height="1.898" fill="#D3D3D3" width="1.262" x="51.859" y="19.768"/>
            <rect  height="0.576" fill="#707071" width="1.262" x="51.859" y="20.588"/>
        </g>
        <g >
            <rect  height="1.646" fill="#D3D3D3" width="1.262" x="57.132" y="13.594"/>
            <rect  height="0.537" fill="#707071" width="1.262" x="57.132" y="14.034"/>
        </g>
        <g >
            <rect  height="1.646" fill="#D3D3D3" width="1.216" x="51.882" y="13.594"/>
            <rect  height="0.537" fill="#707071" width="1.216" x="51.882" y="14.034"/>
        </g>
        <g >
            <rect  height="1.646" fill="#D3D3D3" width="1.217" x="54.391" y="13.594"/>
            <rect  height="0.537" fill="#707071" width="1.217" x="54.391" y="14.034"/>
        </g>
        <g  transform="matrix(-0.9678 0 0 -1 58.2559 16.4468)">
            <g >
                <g >
                    <text display="none"  opacity="0.48" font-size="2.9542" fill="#B0AFB0" font-family="Droid Sans">SFEB</text>
                </g>
            </g>
        </g>
    </g>
    <g >
        <rect  height="1.963" fill="#B7A283" width="4.254" x="53.082" y="24.719"/>
        <rect  height="1.963" fill="#C1C1C0" width="0.955" x="53.082" y="24.719"/>
        <rect  height="1.963" fill="#C1C1C0" width="0.96" x="56.376" y="24.719"/>
    </g>
	<!-- Author: Richard Bruneau/Omnigatherum -->
</svg>
