<?xml version="1.0" encoding="UTF-8" standalone="no"?>
<svg
   xmlns:dc="http://purl.org/dc/elements/1.1/"
   xmlns:cc="http://creativecommons.org/ns#"
   xmlns:rdf="http://www.w3.org/1999/02/22-rdf-syntax-ns#"
   xmlns:svg="http://www.w3.org/2000/svg"
   xmlns="http://www.w3.org/2000/svg"
   xmlns:sodipodi="http://sodipodi.sourceforge.net/DTD/sodipodi-0.dtd"
   xmlns:inkscape="http://www.inkscape.org/namespaces/inkscape"
   id="svg194"
   height="41.956341mm"
   version="1.1"
   viewBox="0 0 2047.2447 1651.8249"
   xml:space="preserve"
   width="52mm"
   clip-rule="evenodd"
   fill-rule="evenodd"
   image-rendering="optimizeQuality"
   shape-rendering="geometricPrecision"
   text-rendering="geometricPrecision"
   inkscape:version="0.91 r13725"
   sodipodi:docname="svg.breadboard.microbit_1_breadboard.svg"><sodipodi:namedview
     pagecolor="#ffffff"
     bordercolor="#666666"
     borderopacity="1"
     objecttolerance="10"
     gridtolerance="10"
     guidetolerance="10"
     inkscape:pageopacity="0"
     inkscape:pageshadow="2"
     inkscape:window-width="944"
     inkscape:window-height="1002"
     id="namedview143"
     showgrid="false"
     inkscape:zoom="3.1749406"
     inkscape:cx="92.125984"
     inkscape:cy="74.3321"
     inkscape:window-x="0"
     inkscape:window-y="0"
     inkscape:window-maximized="0"
     inkscape:current-layer="breadboard" /><metadata
     id="metadata200"><rdf:RDF><cc:Work
         rdf:about=""><dc:format>image/svg+xml</dc:format><dc:type
           rdf:resource="http://purl.org/dc/dcmitype/StillImage" /><dc:title /></cc:Work></rdf:RDF></metadata><defs
     id="defs198" /><desc
     id="desc2"><referenceFile>microbit_1_breadboard.svg</referenceFile></desc><g
     id="breadboard"><path
       gorn="0.1.1.18"
       id="path146"
       d="m 137.79531,35.155719 c 0,0.90861 0,0.30287 6.88979,0.60574 h 151.57484 c 6.88974,-0.30287 0,0 6.88974,-0.60574 V 1.2338855 H 144.6851 V 35.155719 Z"
       clip-rule="evenodd"
       fill="#cccccc"
       fill-rule="evenodd"
       stroke-width="1.72982216"
       image-rendering="optimizeQuality"
       shape-rendering="geometricPrecision"
       text-rendering="geometricPrecision" /><path
       d="m 1324.7902,1148.1988 h 33.0763 v 61.879 c 0,5.1565 -12.186,3.4377 -20.8904,3.4377 -13.9268,0 -12.1859,1.7188 -12.1859,-12.0321 v -51.5657 z M 1914.9399,8.594302 h 40.0396 c 10.4451,1.71886 20.8902,3.437722 33.0762,10.313164 20.8902,12.032023 36.5579,29.220629 48.744,51.565816 8.7042,17.188606 10.445,34.377208 10.445,56.722398 v 20.62633 1079.44429 20.6264 20.6263 20.6263 20.6264 20.6262 20.6264 20.6263 20.6264 20.6263 20.6264 20.6262 l -54.2794,0.6137 c -1.7408,25.783 5.3227,168.4484 -3.5819,176.9205 -6.5502,9.2054 0.7139,0 -12.0735,6.0147 0,0 1.3276,2.9463 -1.7409,-2.4548 l -9.8191,6.1369 c -10.846,6.5036 10.533,-203.1921 10.533,-225.5374 0,-30.9394 4.8094,-63.1063 -21.3034,-88.8892 -43.5214,-44.6904 -113.1556,-42.9716 -151.4543,6.8754 -20.8903,27.5018 -17.4086,53.2847 -17.4086,92.8185 0,22.3452 6.0368,217.3123 4.2959,222.469 l -18.7109,0.1053 -1.2274,-189.8652 -31.3607,-5.2074 1.8411,195.581 h -19.137 c -15.6323,-5.1397 -3.5588,-166.3095 -5.2996,-190.3736 l -27.8893,-5.2074 2.4548,195.581 -19.838,-1.3327 -3.4715,-190.7767 -27.8892,-3.4716 c -1.7408,18.9075 2.3546,194.4757 -1.1271,196.1947 l -14.3277,-0.6137 c -15.6322,-3.4378 -1.9284,-166.2925 -3.6693,-188.6378 l -31.3607,-6.9432 v 195.581 l -14.1272,-0.6137 c -1.7409,-36.0961 -0.3773,-78.0984 0.6137,-114.1808 l 3.0685,-111.7259 c 1.1797,-42.9553 3.4817,-63.5979 -19.1494,-92.8186 -38.2989,-49.8469 -118.3781,-46.4092 -151.4544,0 -22.6311,30.9396 -19.1494,49.8471 -19.1494,92.8186 0,15.4697 6.0368,212.1558 4.2959,225.9067 l -24.542,1.7358 -5.8211,-194.9673 -24.4176,-1.7358 c -1.7409,18.9075 4.1957,193.2483 0.7139,194.9673 -5.2225,1.7188 -15.1418,2.3325 -18.6235,0.6137 -13.8964,-3.4209 -1.2093,-168.0453 -2.9502,-192.1094 l -29.625,-3.4716 1.8411,195.581 -18.6106,0.6137 -2.3494,-190.9873 -29.6249,-5.2074 0.6137,195.581 -17.3833,0.2105 -4.0852,-188.8483 -27.8892,-6.9432 1.2274,195.581 -19.7327,-0.3864 c 0,0 1.122,-172.8325 -0.6237,-195.1776 l -31.9743,5.0148 0.6137,190.0576 h -11.5723 l -0.6137,-114.3029 v -111.7259 c 1.7408,-39.5338 1.7408,-67.0356 -19.1494,-92.8186 -45.2623,-56.7224 -125.34157,-41.2526 -153.19524,0 -20.89025,30.9396 -19.14939,51.5659 -19.14939,92.8186 0,22.3451 7.2641,222.5911 5.52325,226.0288 h -24.63721 c -8.68909,0.034 -1.73579,-169.2387 -3.47664,-189.865 l -24.41754,3.4715 -0.5084,186.3935 -19.13708,0.1222 c -13.89646,-3.4377 2.26226,-167.6251 0.5214,-189.9703 l -29.62491,1.7357 -1.6305,187.621 -18.50531,0.6136 -0.71899,-188.2346 -27.88912,-1.7357 c -1.74085,18.9075 0.72405,188.8651 -2.75765,190.584 l -17.39623,-0.6137 c -15.63224,-3.4208 -0.70092,-164.1706 -2.44177,-188.2346 l -27.88913,-1.7357 0.21059,190.584 -21.4685,-0.8946 2.1389,-191.4082 -26.15333,1.7357 c -1.74085,24.064 -0.81922,183.4108 -4.30086,190.2862 l -22.78312,-1.0348 c -1.74085,-20.6263 9.69575,-206.5416 9.69575,-232.3245 0,-44.6904 1.74086,-45.4314 -20.89025,-76.3709 -31.33538,-42.9715 -98.11387,-65.5586 -145.11694,-10.555 -20.89024,24.064 -28.9685,52.5487 -28.9685,90.3637 0,22.3451 6.03671,228.1143 2.55501,231.552 h -13.10036 l 1.12888,-195.456 H 434.5014 l 3.16698,194.2286 -16.74475,0.5627 3.47158,-196.5105 h -40.03965 c -1.74085,24.064 5.69605,190.1773 2.21434,195.3338 l -13.14398,0.6137 c -3.48171,-3.4377 2.22969,-173.6023 0.48884,-194.2286 h -40.03965 l 6.40564,194.8423 -17.9533,0.3595 3.88023,-195.2018 h -40.03965 l 4.75511,194.2286 h -20.14087 c 1.74085,-73.911 -2.66537,-156.4136 -2.66537,-230.3246 0,-37.815 0.005,-60.0924 -19.14433,-87.5942 -40.03966,-51.5659 -97.53849,-46.3923 -134.09644,-1.7019 -24.371957,29.2206 -27.833411,37.7302 -27.833411,80.7017 l -1.127159,228.7281 c -5.222563,-1.7189 -10.745815,-6.6284 -14.227524,-10.0661 -3.481708,-5.1565 0.613695,-161.3259 -1.127159,-183.6711 l -56.634041,-0.6137 V 450.34148 L 470.03069,0 h 8.70427 V 228.60847 L 710.26859,0 H 717.232 V 111.72593 L 830.38755,0 H 1923.6441 Z M 1166.3724,1189.4514 v -42.9715 h 33.0763 v 65.3167 h -34.8171 v -22.3452 z m -125.3414,-24.064 v 27.5018 18.9074 h -34.8172 v -63.5978 h 33.0763 v 18.9074 z m -193.23491,-17.1886 h 33.07624 v 51.5658 c 0,15.4697 5.22256,13.7509 -31.33539,13.7509 -5.22256,0 -3.4817,-20.6263 -3.4817,-29.2207 v -34.3771 z m -158.41775,39.5337 v -41.2526 h 33.07624 v 63.5979 h -33.07624 v -24.0641 z M 221.08851,991.78249 V 1118.9782 H 92.265282 c 1.740855,-3.4378 3.48171,-5.1567 6.963419,-8.5944 3.481709,-3.4377 5.222559,-5.1565 6.963419,-6.8755 l 48.74392,-48.128 c 8.70427,-8.5944 60.9299,-61.87896 66.15247,-63.59781 z m 1136.77799,-1.71886 v 63.59777 h -33.0763 c -1.7409,-15.4697 0,-34.3771 0,-49.8469 0,-12.03201 -3.4818,-15.46973 8.7043,-15.46973 h 26.1128 z m -191.4941,0 h 33.0763 v 65.31667 h -33.0763 z m -158.4177,0 h 33.0763 v 65.31667 h -33.0763 z m -125.34152,0 v 63.59777 h -33.07624 c -1.74085,-15.4697 0,-34.3771 0,-49.8469 0,-12.03201 -3.4817,-15.46973 8.70427,-15.46973 h 26.11282 z m -191.49399,0 h 33.07624 v 65.31667 H 691.11919 Z M 1711.2599,716.7648 c 6.9634,-1.71886 100.9696,0 116.6372,0 12.186,0 116.6372,-3.43772 118.3781,1.71885 v 1.71887 3.43772 220.01415 c 0,3.43772 0,5.15658 -1.7409,6.87544 -3.4817,3.43773 -231.5335,1.71886 -233.2744,0 -3.4818,-1.71886 -1.7409,-6.87544 -1.7409,-13.75088 v -204.54441 -8.5943 z m -1608.54949,0 c 10.44512,-1.71886 100.96956,0 118.3781,0 13.92683,0 116.63724,-3.43772 118.37809,1.71885 l 1.74086,173.60492 c 0,12.03203 1.74085,49.84696 0,58.44126 -12.18598,1.71886 -229.79278,1.71886 -236.7562,0 -1.74085,-8.5943 -1.74085,-223.45186 0,-233.76503 z M 1324.7902,878.33769 v -27.50177 -17.18861 h 33.0763 v 17.18861 29.22063 18.90747 h -33.0763 v -18.90747 z m -158.4178,0 v -27.50177 -17.18861 h 34.8171 v 65.31671 h -33.0762 V 880.05655 Z M 1041.031,850.83592 v 27.50177 18.90747 h -33.0763 v -65.31671 h 34.8171 v 18.90747 z m -193.23491,27.50177 v -27.50177 -17.18861 h 33.07624 v 17.18861 29.22063 18.90747 h -33.07624 v -18.90747 z m -158.41775,0 v -27.50177 -17.18861 h 33.07624 v 65.31671 H 689.37834 V 880.05655 Z M 1965.4246,831.92845 c -3.4817,-25.7829 34.8171,-30.93949 40.0397,-6.87544 5.2225,27.50178 -36.558,30.93949 -40.0397,6.87544 z m -1923.644094,0 c -3.48171,-27.50176 34.817087,-30.93949 38.298796,-6.87544 5.222563,27.50178 -36.557942,30.93949 -38.298796,6.87544 z M 1324.7902,677.23101 h 33.0763 v 61.87898 c 0,5.15658 -5.2227,3.43771 -15.6677,3.43771 -22.6312,0 -17.4086,1.71887 -17.4086,-22.34518 v -41.25265 z m -158.4178,41.25264 v -42.97151 h 33.0763 v 65.3167 h -34.8171 v -22.34519 z m -158.4177,0 v -41.25264 h 33.0763 v 65.31669 h -34.8172 V 720.20252 Z M 849.53694,677.23101 h 33.07624 v 63.59783 h -24.37197 c -13.92683,0 -10.44512,0 -10.44512,-15.46974 v -49.84696 z m -158.41775,41.25264 v -42.97151 h 33.07624 v 63.59785 H 691.11919 V 716.7648 Z M 1326.5311,565.50513 v -27.50176 -17.18861 h 33.0762 v 17.18861 29.22063 18.90747 h -33.0762 V 567.224 Z m -158.4178,0 v -27.50176 -17.18861 h 34.817 v 65.31671 h -34.817 V 567.224 Z m -125.3415,-27.50176 v 27.50176 18.90748 h -34.8171 V 519.0959 h 34.8171 z m -193.23486,27.50176 v -27.50176 -17.18861 h 33.07624 v 17.18861 27.50176 18.90748 h -33.07624 z m -158.41775,0 v -27.50176 -17.18861 h 33.07624 v 65.31671 H 691.11919 V 567.224 Z M 1829.638,675.51214 v -5.15657 -116.88246 -5.15658 c 12.1859,-1.71886 121.8598,-1.71886 128.8232,0 z M 933.09796,214.85759 c 19.14939,-3.43773 48.74391,-1.71887 69.63414,-1.71887 31.3354,0 109.6739,-3.43772 137.5276,5.15659 97.4877,29.22062 92.2652,180.48036 -17.4086,194.23124 -19.1495,3.43772 -50.4848,1.71886 -71.3751,1.71886 -31.3353,0 -111.41463,3.43772 -137.52745,-5.15658 -97.48784,-30.93949 -92.26528,-178.7615 19.14941,-194.23124 z"
       id="path5"
       text-rendering="geometricPrecision"
       shape-rendering="geometricPrecision"
       image-rendering="optimizeQuality"
       clip-rule="evenodd"
       stroke-width="1.7298224"
       fill-rule="evenodd"
       fill="#000000" /><path
       d="M 17.403935,458.93579 473.50779,8.594302 l -372.54284,0 c -6.963422,0 -13.926839,3.437722 -20.890258,6.875443 C 69.629566,20.626326 62.666149,25.782908 53.961877,32.65835 46.998459,37.814931 45.257605,41.252652 40.035042,46.409235 29.589916,58.441259 20.885644,79.067586 15.663081,94.53733 c 0,3.437721 -1.740855,12.03203 -1.740855,22.34519 l 0,116.88253 0,3.43772 0,3.43773 0,3.43771 0,3.43772 0,3.43773 0,3.43772 0,3.43772 0,3.43772 0,3.43773 0,3.43771 0,3.43772 0,3.43773 0,3.43771 0,3.43773 0,3.43772 0,3.43772 0,3.43772 0,3.43772 0,3.43773 0,3.43771 0,3.43772 0,3.43773 0,3.43771 0,3.43773 0,3.43772 0,3.43773 0,3.43771 0,3.43772 0,3.43773 0,3.43771 0,3.43773 0,3.43772 0,3.43771 0,3.43773 0,3.43772 0,3.43773 0,3.43771 0,3.43772 0,3.43773 0,3.43771 0,3.43773 0,3.43772 0,3.43771 0,3.43773 0,3.43772 0,3.43773 0,3.43771 0,3.43773 0,3.43772 0,3.43771 0,3.43773 0,3.43772 0,3.43772 0,3.43772 0,3.43772 0,3.43773 0,3.43771 0,3.43773 0,3.43772 0,3.43771 0,3.43773 0,3.43772 0,3.43772 0,3.43772 z"
       id="path7"
       inkscape:connector-curvature="0"
       style="clip-rule:evenodd;fill:#273ee1;fill-rule:evenodd;stroke-width:1.7298224;image-rendering:optimizeQuality;shape-rendering:geometricPrecision;text-rendering:geometricPrecision" /><path
       d="m 561.57945,1524.6292 12.18598,-3.4377 c 3.48171,-8.5943 0,-8.5943 13.92684,-8.5943 v 58.4412 h -13.92684 v -37.8148 h -12.18598 z m -60.92991,-134.0711 6.96342,-32.6584 c 3.48171,-10.3131 8.70428,-15.4697 15.6677,-22.3451 8.70427,-8.5943 24.37195,-18.9075 36.55793,-20.6264 45.26222,-10.3131 85.30187,15.4697 95.747,56.7224 6.96341,25.7829 0,53.2847 -19.1494,70.4733 -55.70734,55.0036 -135.78665,10.3132 -135.78665,-51.5658 z m -19.14939,256.1103 c 0,5.1565 0,1.7188 1.74085,3.4377 h 193.23484 c 1.74086,-1.7189 0,0 1.74086,-3.4377 -1.74086,-20.6264 0,-199.3879 0,-225.1708 0,-44.6903 1.74085,-60.1601 -20.89026,-91.0997 -31.33537,-42.9715 -107.93297,-53.2846 -154.93604,1.7189 -20.89025,24.0641 -19.1494,55.0036 -19.1494,92.8185 0,22.3452 1.74086,218.2953 -1.74085,221.7331 z"
       id="path175"
       gorn="0.1.1.2"
       clip-rule="evenodd"
       fill="#d4af37"
       fill-rule="evenodd"
       stroke-width="1.7298224"
       image-rendering="optimizeQuality"
       shape-rendering="geometricPrecision"
       text-rendering="geometricPrecision" /><path
       d="m 1011.7678,1531.2706 c 0,-22.3891 31.3354,-25.8336 40.0396,-10.3334 6.9634,10.3334 -1.7408,18.9448 -6.9634,24.1115 -10.4451,8.6113 -15.6677,6.889 -15.6677,15.5002 h 24.372 v 12.0558 h -41.7805 c 0,-36.1672 29.5945,-27.556 27.8537,-44.7785 -3.4818,-3.4445 -3.4818,-3.4445 -10.4452,-3.4445 l -3.4817,6.8889 h -12.186 z m -57.44843,-139.5022 c 0,-29.2783 10.44513,-49.9454 33.07623,-67.1679 22.6313,-17.2225 52.2259,-17.2225 76.5978,-6.8889 24.372,10.3334 45.2622,37.8895 45.2622,67.1677 0,25.8338 -5.2225,43.0563 -22.6311,58.5566 -19.1494,18.9448 -50.4848,27.556 -78.3384,20.667 l -12.18622,-5.1668 c -17.40855,-8.6112 -27.85368,-18.9447 -36.55795,-36.1672 -3.48171,-6.889 -6.96341,-18.9448 -6.96341,-29.2783 z m -17.40855,254.8932 c 0,5.1667 0,1.7222 1.74085,3.4445 h 188.01243 l 1.741,-3.4445 c 0,-36.1673 0,-75.7792 0,-110.2241 0,-37.8896 0,-75.7792 0,-111.9464 1.7408,-39.6118 1.7408,-67.1678 -19.1495,-93.0016 -45.2622,-56.8343 -125.34171,-41.334 -153.19538,0 -20.89025,31.0006 -19.1494,51.6676 -19.1494,93.0016 0,22.3893 1.74085,218.7259 0,222.1705 z"
       id="path181"
       gorn="0.1.1.3"
       clip-rule="evenodd"
       fill="#d4af37"
       fill-rule="evenodd"
       stroke-width="1.73152781"
       image-rendering="optimizeQuality"
       shape-rendering="geometricPrecision"
       text-rendering="geometricPrecision" /><path
       d="m 158.41775,843.96047 c -6.96342,-39.53378 20.89025,-68.75442 53.96649,-73.91099 36.55794,-5.15659 69.63417,18.90746 74.85673,53.28467 5.22256,36.09607 -20.89025,67.03556 -52.22563,72.19215 -40.03964,6.87543 -69.63417,-20.62633 -74.85674,-53.28468 z M 104.45126,716.7648 c -1.74085,8.5943 -1.74085,225.17073 0,233.76503 6.96342,1.71886 222.82936,1.71886 236.7562,0 1.74085,-8.5943 0,-46.40923 0,-58.44126 L 339.4666,718.48365 c 0,-5.15657 -104.45126,-1.71885 -118.37809,-1.71885 -17.40854,0 -107.93298,-1.71886 -118.3781,0 z"
       id="path11"
       clip-rule="evenodd"
       fill="#969696"
       fill-rule="evenodd"
       stroke-width="1.7298224"
       image-rendering="optimizeQuality"
       shape-rendering="geometricPrecision"
       text-rendering="geometricPrecision" /><path
       d="m 1892.3087,840.52276 c -8.7042,65.3167 -85.3019,70.47328 -113.1555,34.37721 -8.7043,-12.03202 -17.4085,-27.50177 -15.6677,-49.84696 3.4817,-32.65835 33.0763,-60.16012 71.375,-55.00353 31.3354,3.43772 62.6708,34.37721 57.4482,70.47328 z M 1709.519,725.3591 c 0,1.71887 0,5.15658 0,8.5943 v 204.54441 c 0,5.15658 -1.7409,10.31316 1.7409,13.75088 1.7409,1.71887 229.7927,3.43773 233.2744,0 1.7409,-1.71886 1.7409,-1.71886 1.7409,-6.87543 V 725.3591 c 0,-1.71886 0,-1.71886 0,-3.43772 0,0 0,0 0,-1.71886 0,-5.15658 -104.4513,-1.71887 -118.3781,-1.71887 -15.6676,0 -109.6738,-1.71885 -116.6372,0 z"
       id="path13"
       clip-rule="evenodd"
       fill="#969696"
       fill-rule="evenodd"
       stroke-width="1.7298224"
       image-rendering="optimizeQuality"
       shape-rendering="geometricPrecision"
       text-rendering="geometricPrecision" /><path
       d="m 158.38805,1558.6024 c -3.48171,-13.8119 -1.74086,-36.2563 8.70427,-43.1623 13.92683,-8.6323 33.07623,0 34.81709,13.812 1.74085,5.1795 1.74085,20.7179 0,25.8973 -3.48171,24.1708 -38.2988,25.8973 -45.26222,3.453 z m 29.59451,-91.5038 c -27.85366,0 -43.52135,-3.453 -64.41161,-24.1709 -6.96341,-6.9059 -10.44512,-13.8119 -15.66769,-22.4442 -8.704295,-20.7179 -8.704295,-41.4357 1.74086,-62.1537 3.48171,-8.6323 10.44513,-15.5383 15.66769,-22.4442 41.78051,-41.4357 113.15553,-25.8973 132.30494,34.5297 5.22256,15.5384 1.74085,32.8032 -1.74086,48.3416 -8.70428,25.8974 -40.03965,50.0681 -66.15247,50.0681 z M 85.27213,1639.7472 c 1.740854,5.1795 6.963417,6.9059 15.66769,8.6326 8.7043,1.7264 13.92686,1.7264 22.63113,1.7264 h 151.45434 c 1.74085,-74.239 0,-148.4779 0,-222.7168 0,-37.9828 1.74085,-67.333 -17.40854,-94.9569 -40.03966,-51.7945 -114.8964,-48.3416 -151.45435,-3.4529 -24.371979,29.3502 -20.89027,46.6151 -20.89027,89.7773 l -1.740854,219.2639 z"
       id="path173"
       gorn="0.1.1.6"
       clip-rule="evenodd"
       fill="#d4af37"
       fill-rule="evenodd"
       stroke-width="1.73365569"
       image-rendering="optimizeQuality"
       shape-rendering="geometricPrecision"
       text-rendering="geometricPrecision" /><path
       d="m 1444.9092,1528.1217 h -12.186 c -1.7409,-24.0533 33.0762,-24.0533 40.0396,-10.3085 3.4818,8.5904 0,15.4628 -5.2226,18.899 1.7409,3.4362 5.2226,5.1542 6.9634,8.5905 3.4818,10.3084 -1.7408,24.0532 -20.8902,24.0532 -13.9269,0 -22.6311,-6.8723 -22.6311,-22.3351 h 13.9269 l 1.7408,8.5903 h 12.186 l 1.7409,-10.3084 c -5.2227,-3.4363 -6.9635,-1.7181 -13.9269,-3.4363 v -10.3085 c 8.7042,0 6.9634,0 12.186,-3.4362 v -6.8724 c -12.186,-3.4361 -10.4451,0 -13.9268,6.8724 z m 33.0762,-17.1809 h 15.6677 l 12.1859,37.798 c 5.2226,-5.1542 8.7043,-27.4895 13.9269,-37.798 h 13.9268 c 0,8.5905 -17.4085,48.1066 -20.8902,58.4151 h -13.9269 z m 8.7042,-46.3885 c -15.6677,0 -24.3719,0 -40.0396,-6.8724 -15.6677,-6.8723 -24.372,-17.1808 -33.0762,-30.9255 -20.8902,-34.3618 -10.4452,-79.0322 22.6311,-101.3674 26.1128,-18.8989 64.4116,-18.8989 90.5244,0 l 15.6676,13.7447 c 27.8537,30.9257 22.6312,82.4684 -6.9633,108.2397 -13.9269,10.3085 -27.8537,18.8991 -47.0031,18.8991 z m -99.2287,182.1177 c 0,5.1542 0,1.7181 1.7409,3.4362 h 188.0123 l 1.7409,-3.4362 c -1.7409,-36.0799 0,-75.5961 0,-111.6759 0,-37.798 0,-73.8779 0,-111.6759 0,-42.9522 3.4817,-63.5693 -19.1494,-92.7769 -38.2989,-49.8247 -118.3781,-46.3885 -151.4544,0 -22.6311,30.9256 -19.1494,49.8247 -19.1494,92.7769 0,15.4628 1.7409,209.6071 0,223.3518 z"
       id="path168"
       gorn="0.1.1.7"
       clip-rule="evenodd"
       fill="#d4af37"
       fill-rule="evenodd"
       stroke-width="1.72943497"
       image-rendering="optimizeQuality"
       shape-rendering="geometricPrecision"
       text-rendering="geometricPrecision" /><path
       d="m 1914.9399,1570.9441 c 0,-12.0463 -1.741,-44.7435 0,-55.069 0,-5.1628 3.4817,-3.4418 10.445,-3.4418 5.2227,0 10.4452,0 13.9269,0 38.2988,1.7208 45.2622,68.8363 -24.3719,58.5108 z m -53.9666,-20.6507 c -8.7042,0 -5.2225,0 -8.7042,6.8836 -12.186,24.0926 -60.93,18.93 -57.4483,-18.9301 1.741,-17.2091 13.9269,-29.2554 33.0763,-27.5346 22.6311,0 38.2988,25.8138 12.186,22.372 -6.9634,-1.7211 -1.7409,-3.4419 -6.9634,-6.8837 -8.7043,-5.1628 -22.6312,0 -22.6312,15.4881 0,18.9299 24.372,25.8136 31.3354,8.6047 h -10.445 c -1.7409,-13.7673 -3.4818,-10.3255 31.3352,-10.3255 v -27.5346 c 17.4087,0 12.1861,-1.721 24.3721,17.2091 l 10.4451,17.2092 c 0,0 0,0 1.7409,0 0,-8.6047 0,-17.2092 0,-25.8138 0,-12.0463 1.7408,-8.6045 13.9267,-8.6045 v 58.5108 h -13.9267 l -20.8904,-34.418 v 34.418 h -13.9267 v -20.6507 z m -57.4481,-154.882 c 0,-22.3718 3.4816,-39.5809 19.1493,-56.79 1.7409,-3.4418 1.7409,-3.4418 5.2226,-5.1627 29.5945,-25.8137 66.1524,-29.2555 99.2287,-8.6046 1.7408,1.721 3.4818,1.721 5.2226,3.4418 1.7409,1.7209 3.4817,1.7209 5.2225,3.4418 l 15.6677,20.651 c 8.7043,15.4882 8.7043,25.8136 8.7043,41.3018 0,34.4182 -36.558,70.5573 -69.6342,70.5573 -24.3719,0 -26.1128,0 -47.0031,-10.3255 -12.1859,-6.8836 -26.1128,-20.6508 -31.3353,-32.6972 -3.4818,-6.8837 -8.7043,-17.2091 -8.7043,-27.5346 z m -19.1494,251.2529 c 0,5.1626 0,1.7209 1.7408,3.4418 h 156.6769 l 31.3354,-8.6046 c 5.2225,-1.7209 5.2225,-1.7209 6.9634,-6.8836 -3.4817,-5.1628 -1.7409,-197.9046 -1.7409,-220.2765 0,-30.9763 1.7409,-61.9527 -24.3719,-87.7663 -43.5214,-44.7437 -113.1556,-43.0228 -151.4543,6.8836 -20.8903,27.5346 -17.4086,53.3482 -17.4086,92.9291 0,22.3719 1.7409,215.1137 0,220.2765 z"
       id="path166-6"
       gorn="0.1.1.8"
       clip-rule="evenodd"
       fill="#d4af37"
       fill-rule="evenodd"
       stroke-width="1.7308532"
       image-rendering="optimizeQuality"
       shape-rendering="geometricPrecision"
       text-rendering="geometricPrecision" /><path
       d="m 1161.1499,326.58352 c -5.2225,24.06405 -26.1129,42.97151 -52.2256,44.69037 -29.5946,1.71886 -67.8933,0 -97.4879,0 -45.26221,0 -95.74699,8.59431 -116.63724,-29.22062 -6.96342,-12.03203 -10.44513,-25.78291 -6.96342,-41.25266 5.22256,-24.06404 26.11281,-42.97151 52.22563,-44.69037 29.59452,-1.71886 67.89333,0 97.48783,0 27.8537,0 69.6342,-3.43772 92.2653,6.87544 19.1494,8.5943 36.5579,34.37721 31.3354,63.59784 z M 931.35709,214.85759 c -113.15553,17.1886 -116.63724,163.29175 -19.14939,194.23124 24.37197,8.5943 106.1921,5.15658 137.5275,5.15658 20.8903,0 50.4847,1.71886 71.3751,-1.71886 109.6738,-15.46975 114.8963,-165.01062 17.4085,-194.23124 -26.1128,-8.59431 -104.4513,-5.15659 -137.5275,-5.15659 -20.89028,0 -50.4848,-1.71886 -69.63421,1.71887 z"
       id="path18-8"
       clip-rule="evenodd"
       fill="#273ee1"
       fill-rule="evenodd"
       stroke-width="1.7298224"
       image-rendering="optimizeQuality"
       shape-rendering="geometricPrecision"
       text-rendering="geometricPrecision" /><polygon
       points="401,0 267,0 267,133 "
       id="polygon20-1"
       transform="matrix(1.7408544,0,0,1.7188606,3.4817088,8.594302)"
       text-rendering="geometricPrecision"
       shape-rendering="geometricPrecision"
       image-rendering="optimizeQuality"
       clip-rule="evenodd"
       fill-rule="evenodd"
       fill="#273ee1" /><path
       d="m 1096.7383,293.92517 c 13.9268,-5.15658 24.372,3.43772 27.8537,12.03202 5.2225,13.75089 -3.4817,24.06405 -13.9269,27.50178 -27.8537,8.5943 -41.7805,-29.22064 -13.9268,-39.5338 z m -160.15863,0 c 26.11281,-8.5943 41.78049,30.93949 13.92683,39.5338 -27.85368,10.31316 -41.78051,-30.9395 -13.92683,-39.5338 z m 224.57023,32.65835 c 6.9634,-30.93949 -12.186,-55.00354 -31.3354,-63.59784 -22.6311,-10.31316 -64.4116,-6.87544 -92.2653,-6.87544 -29.5945,0 -67.89331,-1.71886 -97.48783,0 -27.85367,1.71886 -47.00307,20.62633 -52.22563,44.69037 -3.48171,15.46975 0,29.22063 6.96342,41.25266 20.89025,37.81493 71.37503,29.22062 116.63724,29.22062 31.3354,0 67.8933,1.71886 97.4879,0 26.1127,-1.71886 47.0031,-20.62632 52.2256,-44.69037 z"
       id="path22-0"
       clip-rule="evenodd"
       fill="#000000"
       fill-rule="evenodd"
       stroke-width="1.7298224"
       image-rendering="optimizeQuality"
       shape-rendering="geometricPrecision"
       text-rendering="geometricPrecision" /><path
       d="m 158.41775,843.96047 c 5.22256,30.9395 34.81709,58.44126 74.85673,53.28469 31.33539,-5.15659 57.4482,-34.37721 52.22564,-72.19215 -5.22257,-36.09607 -38.29879,-60.16012 -74.85674,-53.28467 -31.33538,5.15657 -59.18905,34.37721 -53.96648,73.911 z"
       id="path24-4"
       clip-rule="evenodd"
       fill="#000000"
       fill-rule="evenodd"
       stroke-width="1.7298224"
       image-rendering="optimizeQuality"
       shape-rendering="geometricPrecision"
       text-rendering="geometricPrecision" /><path
       d="m 1892.3087,840.52276 c 5.2226,-36.09607 -24.3719,-67.03556 -57.4482,-70.47328 -38.2987,-3.43773 -67.8933,24.06405 -71.375,55.00353 -1.7408,22.34519 5.2226,36.09608 15.6677,49.84696 27.8536,36.09607 104.4513,29.22063 113.1555,-34.37721 z"
       id="path207"
       clip-rule="evenodd"
       fill="#000000"
       fill-rule="evenodd"
       stroke-width="1.7298224"
       image-rendering="optimizeQuality"
       shape-rendering="geometricPrecision"
       text-rendering="geometricPrecision" /><path
       d="m 75.16669,1628.9326 c -3.384839,-6.4796 0,-196.5407 -1.692419,-224.6181 H 14.239588 v 114.4687 c 1.692419,25.9176 13.539356,58.3144 25.386292,77.7526 3.384839,4.3195 10.154517,12.9585 15.231776,19.438 1.69242,2.1597 6.769678,6.4792 8.462098,8.6391 15.231775,12.9588 10.154517,8.6392 11.846936,4.3197 z"
       id="path209"
       gorn="0.1.1.14"
       clip-rule="evenodd"
       fill="#d4af37"
       fill-rule="evenodd"
       stroke-width="1.91187501"
       image-rendering="optimizeQuality"
       shape-rendering="geometricPrecision"
       text-rendering="geometricPrecision" /><path
       d="m 1986.3149,1632.9175 c 5.2225,1.7188 10.445,-3.4378 17.4085,-10.3132 17.4086,-12.032 31.3354,-32.6583 38.2988,-53.2847 3.4817,-8.5944 5.2225,-15.4697 5.2225,-22.3451 v -32.6585 -1.7188 -1.7189 -1.7188 -1.7189 -1.7188 -1.7189 -1.7189 -1.7188 -1.7189 -1.7188 -1.7189 -1.7188 -1.7189 -1.7188 -1.719 -1.7188 -1.7189 -1.7188 -1.7189 -1.7188 -1.7189 -1.7188 -1.719 -1.7188 -1.7189 -1.7188 -1.7189 -1.7188 -1.7189 -1.7188 -1.719 -1.7188 -1.7189 -1.7188 -1.7189 -1.7188 -1.7189 -1.7188 -1.7189 -1.7189 -1.7188 -1.7189 -1.7188 -1.7189 -1.7188 -1.7189 -1.7188 -1.719 -1.7188 -1.7189 -1.7188 -1.7189 -1.7188 -1.7189 -1.7188 -1.719 -1.7188 -1.7189 -1.7188 -1.7189 -1.7188 -1.7189 -1.7188 -1.7189 h -59.189 c -1.7408,25.7829 3.4817,168.4483 -1.7408,178.7615 z"
       id="path211"
       gorn="0.1.1.15"
       clip-rule="evenodd"
       fill="#d4af37"
       fill-rule="evenodd"
       stroke-width="1.7298224"
       image-rendering="optimizeQuality"
       shape-rendering="geometricPrecision"
       text-rendering="geometricPrecision" /><path
       d="m 432.76055,1648.3872 v 3.4377 h 40.03965 c 1.74085,-1.7188 0,0 1.74085,-3.4377 V 1455.8748 H 434.5014 v 192.5124 z"
       id="path170"
       gorn="0.1.1.16"
       clip-rule="evenodd"
       fill="#d4af37"
       fill-rule="evenodd"
       stroke-width="1.7298224"
       image-rendering="optimizeQuality"
       shape-rendering="geometricPrecision"
       text-rendering="geometricPrecision" /><path
       d="m 1233.5629,1646.6685 c 0,5.1566 0,1.7189 1.7408,3.4377 h 38.2988 l 1.741,-3.4377 v -192.5124 h -40.0398 v 192.5124 z"
       id="path189"
       gorn="0.1.1.17"
       clip-rule="evenodd"
       fill="#d4af37"
       fill-rule="evenodd"
       stroke-width="1.7298224"
       image-rendering="optimizeQuality"
       shape-rendering="geometricPrecision"
       text-rendering="geometricPrecision" /><path
       d="m 284.42717,1648.3872 c 0,5.1566 0,1.7189 1.74086,3.4377 h 38.2988 c 1.74085,-1.7188 0,0 1.74085,-3.4377 v -192.5124 h -40.03965 v 192.5124 z"
       id="path201"
       gorn="0.1.1.18"
       clip-rule="evenodd"
       fill="#d4af37"
       fill-rule="evenodd"
       stroke-width="1.7298224"
       image-rendering="optimizeQuality"
       shape-rendering="geometricPrecision"
       text-rendering="geometricPrecision" /><path
       d="m 1686.1838,1646.6685 c 0,1.7189 -1.735,3.4377 6.9399,3.4377 h 34.6997 v -3.4377 c -3.4699,-6.8755 0,-168.4483 -1.7349,-192.5124 h -39.9047 z"
       id="path199"
       gorn="0.1.1.19"
       clip-rule="evenodd"
       fill="#d4af37"
       fill-rule="evenodd"
       stroke-width="1.72690558"
       image-rendering="optimizeQuality"
       shape-rendering="geometricPrecision"
       text-rendering="geometricPrecision" /><path
       d="m 734.96898,1646.6685 c 1.74085,1.7189 -1.74086,3.4377 6.96341,3.4377 h 34.81709 v -3.4377 c -3.48171,-5.1566 0,-168.4483 -1.74086,-192.5124 h -40.03964 z"
       id="path177"
       gorn="0.1.1.20"
       clip-rule="evenodd"
       fill="#d4af37"
       fill-rule="evenodd"
       stroke-width="1.7298224"
       image-rendering="optimizeQuality"
       shape-rendering="geometricPrecision"
       text-rendering="geometricPrecision" /><path
       d="m 882.2607,1646.6685 1.67126,3.4377 h 38.43876 c 0,-1.7188 0,-1.7188 1.67124,-3.4377 -3.34249,-3.4378 0,-171.886 -1.67124,-192.5124 h -38.43876 v 192.5124 z"
       id="path183"
       gorn="0.1.1.21"
       clip-rule="evenodd"
       fill="#d4af37"
       fill-rule="evenodd"
       stroke-width="1.69488847"
       image-rendering="optimizeQuality"
       shape-rendering="geometricPrecision"
       text-rendering="geometricPrecision" /><path
       d="m 1331.7536,1646.6734 c 0,6.8661 0,1.7165 1.7409,3.433 h 38.2987 l 1.7409,-3.433 v -192.2545 h -40.0396 c -1.7409,18.8822 1.7408,190.5378 -1.7409,192.2545 z"
       id="path193"
       gorn="0.1.1.22"
       clip-rule="evenodd"
       fill="#d4af37"
       fill-rule="evenodd"
       stroke-width="1.72866261"
       image-rendering="optimizeQuality"
       shape-rendering="geometricPrecision"
       text-rendering="geometricPrecision" /><path
       d="m 835.93903,1647.9576 c 1.74086,3.4377 -1.74085,1.7189 1.74086,1.7189 h 38.29879 v -3.4377 c -3.48171,-3.4378 0,-170.1672 -1.74086,-192.5125 h -40.03964 v 192.5125 z"
       id="path213"
       gorn="0.1.1.23"
       clip-rule="evenodd"
       fill="#d4af37"
       fill-rule="evenodd"
       stroke-width="1.7298224"
       image-rendering="optimizeQuality"
       shape-rendering="geometricPrecision"
       text-rendering="geometricPrecision" /><polygon
       id="polygon187"
       points="1019,841 995,841 995,954 996,955 1018,955 1019,954 "
       gorn="0.1.1.24"
       transform="matrix(1.7408544,0,0,1.7188606,3.4817088,8.594302)"
       clip-rule="evenodd"
       fill="#d4af37"
       fill-rule="evenodd"
       image-rendering="optimizeQuality"
       shape-rendering="geometricPrecision"
       text-rendering="geometricPrecision" /><path
       d="m 382.6147,1646.6684 c 0,5.1565 0,1.7188 1.74086,3.4377 h 38.2988 l 1.74085,-3.4377 v -192.5125 h -40.03965 c -1.74086,24.0641 1.74085,187.3558 -1.74086,192.5125 z"
       id="path205"
       gorn="0.1.1.25"
       clip-rule="evenodd"
       fill="#d4af37"
       fill-rule="evenodd"
       stroke-width="1.7298224"
       image-rendering="optimizeQuality"
       shape-rendering="geometricPrecision"
       text-rendering="geometricPrecision" /><polygon
       id="polygon215"
       points="678,955 700,955 701,954 700,841 677,841 677,954 "
       gorn="0.1.1.26"
       transform="matrix(1.7408544,0,0,1.7188606,7.6502808,8.594302)"
       clip-rule="evenodd"
       fill="#d4af37"
       fill-rule="evenodd"
       image-rendering="optimizeQuality"
       shape-rendering="geometricPrecision"
       text-rendering="geometricPrecision" /><path
       d="m 685.52105,1646.3935 c 1.74085,5.1565 -1.74085,3.4377 19.1494,3.4377 6.96341,0 13.92683,0 22.63111,0 v -3.4377 -192.5125 H 687.2619 c -1.74085,24.0641 1.74086,185.637 -1.74085,192.5125 z"
       id="path203"
       gorn="0.1.1.27"
       clip-rule="evenodd"
       fill="#d4af37"
       fill-rule="evenodd"
       stroke-width="1.7298224"
       image-rendering="optimizeQuality"
       shape-rendering="geometricPrecision"
       text-rendering="geometricPrecision" /><path
       d="m 334.91677,1648.3872 v 3.4377 h 40.03965 c 0,0 1.74086,-1.7188 1.74086,-3.4377 -3.48171,-3.4378 0,-171.886 -1.74086,-192.5124 h -40.03965 z"
       id="path26-9"
       gorn="0.1.1.28"
       clip-rule="evenodd"
       fill="#d4af37"
       fill-rule="evenodd"
       stroke-width="1.7298224"
       image-rendering="optimizeQuality"
       shape-rendering="geometricPrecision"
       text-rendering="geometricPrecision" /><path
       d="m 1136.7608,1646.6685 v 3.4377 h 40.0404 c 0,-1.7188 0,-1.7188 1.7409,-3.4377 -3.4819,-3.4378 0,-170.1672 -1.7409,-192.5124 h -40.0404 z"
       id="path185"
       gorn="0.1.1.29"
       clip-rule="evenodd"
       fill="#d4af37"
       fill-rule="evenodd"
       stroke-width="1.72983611"
       image-rendering="optimizeQuality"
       shape-rendering="geometricPrecision"
       text-rendering="geometricPrecision" /><path
       d="m 784.41692,1646.6684 c 1.74085,1.7188 0,1.7188 1.74085,3.4377 h 38.29879 l 1.74085,-3.4377 v -192.5125 h -40.03964 c -1.74085,18.9075 1.74085,190.7935 -1.74085,192.5125 z"
       id="path179"
       gorn="0.1.1.30"
       clip-rule="evenodd"
       fill="#d4af37"
       fill-rule="evenodd"
       stroke-width="1.7298224"
       image-rendering="optimizeQuality"
       shape-rendering="geometricPrecision"
       text-rendering="geometricPrecision" /><path
       d="m 1635.7089,1646.3935 c 1.7408,5.1565 -1.7409,3.4377 19.1494,3.4377 6.9634,0 13.9268,0 22.631,0 v -3.4377 -192.5125 h -40.0396 c -1.7408,18.9075 1.7409,190.7935 -1.7408,192.5125 z"
       id="path197"
       gorn="0.1.1.31"
       clip-rule="evenodd"
       fill="#d4af37"
       fill-rule="evenodd"
       stroke-width="1.7298224"
       image-rendering="optimizeQuality"
       shape-rendering="geometricPrecision"
       text-rendering="geometricPrecision" /><path
       d="m 1284.0525,1646.6685 v 3.4377 h 40.0396 c 0,0 1.1272,-1.1051 1.1272,-2.824 -0.4133,-5.1566 0.6137,-169.062 -1.1272,-193.1261 h -40.0396 z"
       id="path191"
       gorn="0.1.1.32"
       clip-rule="evenodd"
       fill="#d4af37"
       fill-rule="evenodd"
       stroke-width="1.7298224"
       image-rendering="optimizeQuality"
       shape-rendering="geometricPrecision"
       text-rendering="geometricPrecision" /><path
       d="m 1585.2193,1646.6685 1.7124,3.4377 h 39.3875 c 0,0 1.7126,-1.7188 1.7126,-3.4377 -3.4251,-3.4378 0,-170.1672 -1.7126,-192.5124 h -39.3875 v 192.5124 z"
       id="path195"
       gorn="0.1.1.33"
       clip-rule="evenodd"
       fill="#d4af37"
       fill-rule="evenodd"
       stroke-width="1.71567762"
       image-rendering="optimizeQuality"
       shape-rendering="geometricPrecision"
       text-rendering="geometricPrecision" /><path
       d="m 158.41775,1106.9461 c 0,-5.1566 17.40854,-51.5658 20.89025,-58.4412 h 12.18599 c 3.48171,5.1565 20.89025,53.2846 20.89025,58.4412 H 198.4574 l -3.4817,-6.8754 h -20.89026 l -3.48171,6.8754 H 156.6769 Z m 64.41161,-115.16361 c -5.22256,1.71885 -57.44819,55.00341 -66.15246,63.59781 l -48.74393,48.128 c -3.48171,3.4378 -5.22256,5.1567 -6.96342,6.8755 -3.481704,3.4377 -5.222558,3.4377 -6.963413,8.5944 H 222.82936 Z"
       id="path48"
       clip-rule="evenodd"
       fill="#273ee1"
       fill-rule="evenodd"
       stroke-width="1.7298224"
       image-rendering="optimizeQuality"
       shape-rendering="geometricPrecision"
       text-rendering="geometricPrecision" /><polygon
       points="470,0 404,0 404,65 "
       id="polygon50-9"
       transform="matrix(1.7408544,0,0,1.7188606,3.4817088,8.594302)"
       clip-rule="evenodd"
       fill="#273ee1"
       fill-rule="evenodd"
       image-rendering="optimizeQuality"
       shape-rendering="geometricPrecision"
       text-rendering="geometricPrecision" /><path
       d="m 1840.0831,560.34856 c 10.4451,0 29.5945,-1.71886 36.5579,3.43772 6.9635,5.15658 10.4452,18.90746 -1.7408,24.06404 3.4816,3.43772 6.9634,5.15659 8.7043,13.75083 0,6.87543 -3.4817,10.31316 -6.9635,13.75087 -6.9634,5.15659 -27.8536,3.43773 -38.2988,3.43773 v -58.44119 z m 116.6372,-12.03203 c -6.9633,-1.71886 -118.3781,-1.71886 -128.8232,0 v 5.15658 116.88246 5.15657 z"
       id="path52"
       clip-rule="evenodd"
       fill="#273ee1"
       fill-rule="evenodd"
       stroke-width="1.7298224"
       image-rendering="optimizeQuality"
       shape-rendering="geometricPrecision"
       text-rendering="geometricPrecision" /><path
       d="m 1864.796,1549.3703 v 20.6262 h 13.9269 v -34.3771 l 20.8903,34.3771 h 13.9268 v -58.4412 c -13.9268,0 -13.9268,-3.4377 -13.9268,8.5943 0,8.5943 0,17.1886 0,25.783 0,0 0,-1.719 -1.7409,0 l -10.4451,-17.1887 c -10.4451,-18.9075 -6.9635,-17.1886 -24.372,-17.1886 v 27.5018 c -34.8171,0 -33.0762,-3.4377 -31.3353,10.3132 h 10.4451 c -5.2226,17.1885 -29.5946,10.313 -31.3354,-8.5944 0,-17.1886 13.9268,-20.6263 22.6312,-15.4697 6.9633,3.4377 1.7408,5.1565 6.9633,6.8755 24.3719,5.1565 8.7044,-20.6264 -12.186,-22.3453 -19.1494,0 -31.3354,12.0321 -33.0762,27.5018 -3.4817,37.815 47.0031,42.9715 57.4482,18.9075 3.4817,-6.8754 0,-6.8754 8.7043,-6.8754 z"
       id="path54"
       clip-rule="evenodd"
       fill="#000000"
       fill-rule="evenodd"
       stroke-width="1.7298224"
       image-rendering="optimizeQuality"
       shape-rendering="geometricPrecision"
       text-rendering="geometricPrecision" /><path
       d="m 1840.0831,618.78975 c 10.4451,0 31.3354,1.71886 38.2987,-3.43773 3.4818,-3.43771 6.9635,-6.87544 6.9635,-13.75087 0,-8.59424 -3.4817,-8.59424 -8.7043,-13.75083 12.186,-5.15658 8.7043,-20.62632 1.7408,-24.06404 -6.9633,-5.15658 -26.1127,-3.43772 -36.5579,-3.43772 v 58.44119 z"
       id="path56"
       clip-rule="evenodd"
       fill="#000000"
       fill-rule="evenodd"
       stroke-width="1.7298224"
       image-rendering="optimizeQuality"
       shape-rendering="geometricPrecision"
       text-rendering="geometricPrecision" /><path
       d="m 1929.5658,1525.3066 c 33.0761,-5.1566 29.5944,37.8149 0,32.6583 z m -13.9269,44.6903 c 69.6342,10.3132 62.6707,-56.7224 24.3719,-58.4412 -5.2225,0 -10.445,0 -13.9268,0 -6.9634,0 -8.7042,-1.7189 -10.4451,3.4377 -1.7408,10.3132 0,42.9715 0,55.0035 z"
       id="path58"
       clip-rule="evenodd"
       fill="#000000"
       fill-rule="evenodd"
       stroke-width="1.7298224"
       image-rendering="optimizeQuality"
       shape-rendering="geometricPrecision"
       text-rendering="geometricPrecision" /><path
       d="m 170.57271,1535.9878 c 0,-12.032 17.40854,-15.4697 17.40854,1.7189 0,13.7509 1.74086,25.7829 -13.92683,22.3451 -3.48171,-3.4377 -3.48171,-18.9074 -3.48171,-24.064 z m -13.92683,22.3452 c 5.22256,20.6263 41.78051,20.6263 45.26222,-3.4377 0,-5.1566 0,-20.6263 0,-25.783 -3.48171,-13.7509 -20.89026,-22.3451 -34.81709,-13.7509 -10.44513,6.8755 -12.18598,27.5018 -8.70427,42.9716 z"
       id="path60"
       clip-rule="evenodd"
       fill="#000000"
       fill-rule="evenodd"
       stroke-width="1.7298224"
       image-rendering="optimizeQuality"
       shape-rendering="geometricPrecision"
       text-rendering="geometricPrecision" /><path
       d="m 158.41775,1106.9461 h 13.92683 l 3.48171,-6.8754 h 20.89026 l 3.48171,6.8754 h 13.92683 c 0,-5.1566 -17.40854,-51.5658 -20.89025,-58.4412 h -12.18599 c -3.48171,6.8754 -20.89025,53.2846 -20.89025,58.4412 z"
       id="path62"
       text-rendering="geometricPrecision"
       shape-rendering="geometricPrecision"
       image-rendering="optimizeQuality"
       clip-rule="evenodd"
       stroke-width="1.7298224"
       fill-rule="evenodd"
       fill="#000000" /><path
       d="m 1444.9092,1528.3848 c 3.4817,-6.8754 0,-10.3131 13.9268,-6.8754 v 6.8754 c -5.2226,5.1567 -3.4818,3.4378 -12.186,3.4378 v 10.3131 c 6.9634,0 8.7042,0 13.9269,3.4378 l -1.7409,10.3131 h -12.186 l -1.7408,-8.5942 h -13.9269 c 0,15.4697 8.7042,22.3451 22.6311,22.3451 17.4085,0 24.372,-12.0321 20.8902,-24.064 -1.7408,-3.4378 -5.2225,-5.1566 -6.9634,-8.5943 5.2226,-3.4377 8.7044,-10.3132 5.2226,-18.9075 -6.9634,-13.7509 -41.7805,-13.7509 -40.0396,10.3131 z"
       id="path64"
       clip-rule="evenodd"
       fill="#000000"
       fill-rule="evenodd"
       stroke-width="1.7298224"
       image-rendering="optimizeQuality"
       shape-rendering="geometricPrecision"
       text-rendering="geometricPrecision" /><path
       d="m 1012.8037,1530.4681 h 12.186 l 3.4817,-6.8754 c 6.9634,-1.7188 6.9634,-1.7188 10.4451,3.4377 3.4817,17.1886 -27.3402,10.4355 -29.0811,46.5315 l 43.6216,0.6137 -0.6137,-14.4869 h -24.3719 c 0,-8.5942 6.9634,-6.8753 15.6677,-15.4697 5.2226,-3.4377 12.1859,-13.7509 6.9634,-24.064 -8.7043,-13.7509 -40.0397,-12.032 -40.0397,10.3131 z"
       id="path66"
       clip-rule="evenodd"
       fill="#000000"
       fill-rule="evenodd"
       stroke-width="1.7298224"
       image-rendering="optimizeQuality"
       shape-rendering="geometricPrecision"
       text-rendering="geometricPrecision" /><path
       d="m 1493.9911,1511.5504 h -15.6677 l 20.8902,58.4412 h 13.9268 c 3.4817,-10.3132 20.8903,-49.8469 20.8903,-58.4412 h -13.9269 c -5.2225,10.3132 -8.7042,32.6583 -13.9268,37.815 z"
       id="path68"
       text-rendering="geometricPrecision"
       shape-rendering="geometricPrecision"
       image-rendering="optimizeQuality"
       clip-rule="evenodd"
       stroke-width="1.7298224"
       fill-rule="evenodd"
       fill="#000000" /><path
       d="m 1096.7383,293.92517 c -26.1128,10.31316 -12.186,48.1281 13.9268,39.5338 8.7042,-3.43773 17.4086,-13.75089 13.9269,-27.50178 -3.4817,-8.5943 -13.9269,-17.1886 -27.8537,-12.03202 z"
       id="path70"
       clip-rule="evenodd"
       fill="#273ee1"
       fill-rule="evenodd"
       stroke-width="1.7298224"
       image-rendering="optimizeQuality"
       shape-rendering="geometricPrecision"
       text-rendering="geometricPrecision" /><path
       d="m 938.32052,293.92517 c -27.85367,8.5943 -12.18599,49.84696 13.92683,39.5338 26.11281,-10.31316 12.18598,-49.84696 -13.92683,-39.5338 z"
       id="path72"
       clip-rule="evenodd"
       fill="#273ee1"
       fill-rule="evenodd"
       stroke-width="1.7298224"
       image-rendering="optimizeQuality"
       shape-rendering="geometricPrecision"
       text-rendering="geometricPrecision" /><polygon
       points="577,662 577,700 596,700 596,689 577,689 577,673 596,673 596,662 "
       id="polygon74"
       transform="matrix(1.7408544,0,0,1.7188606,3.4817088,8.594302)"
       clip-rule="evenodd"
       fill="#969696"
       fill-rule="evenodd"
       image-rendering="optimizeQuality"
       shape-rendering="geometricPrecision"
       text-rendering="geometricPrecision" /><path
       d="m 1168.1133,1165.3874 h 31.3354 v 29.2206 h -31.3354 z m -1.7409,46.4092 h 34.8171 v -65.3167 h -33.0762 v 42.9715 22.3452 z"
       id="path76"
       clip-rule="evenodd"
       fill="#969696"
       fill-rule="evenodd"
       stroke-width="1.7298224"
       image-rendering="optimizeQuality"
       shape-rendering="geometricPrecision"
       text-rendering="geometricPrecision" /><path
       d="m 1326.5311,1008.9711 h 33.0762 v 29.2206 h -31.3354 v -29.2206 z m 33.0762,-17.18861 c -6.9635,-1.71886 -17.4085,0 -26.1128,0 -12.1861,0 -8.7043,1.71885 -8.7043,15.46971 0,15.4698 0,34.3772 0,49.8469 h 33.0763 v -63.59776 z"
       id="path78"
       clip-rule="evenodd"
       fill="#969696"
       fill-rule="evenodd"
       stroke-width="1.7298224"
       image-rendering="optimizeQuality"
       shape-rendering="geometricPrecision"
       text-rendering="geometricPrecision" /><polygon
       points="688,518 688,480 668,480 668,490 687,490 687,507 668,507 668,518 "
       id="polygon80-1"
       transform="matrix(1.7408544,0,0,1.7188606,3.4817088,8.594302)"
       clip-rule="evenodd"
       fill="#969696"
       fill-rule="evenodd"
       image-rendering="optimizeQuality"
       shape-rendering="geometricPrecision"
       text-rendering="geometricPrecision" /><path
       d="m 849.53694,1008.9711 h 33.07624 v 29.2206 H 851.2778 v -29.2206 z m 33.07624,-17.18861 c -6.96343,-1.71886 -17.40855,0 -26.11282,0 -12.18598,0 -8.70427,1.71885 -8.70427,15.46971 0,15.4698 0,34.3772 0,49.8469 h 33.07624 v -63.59776 z"
       id="path82"
       clip-rule="evenodd"
       fill="#969696"
       fill-rule="evenodd"
       stroke-width="1.7298224"
       image-rendering="optimizeQuality"
       shape-rendering="geometricPrecision"
       text-rendering="geometricPrecision" /><path
       d="m 1326.5311,1165.3874 h 33.0762 v 27.5018 h -33.0762 z m 0,-17.1886 c -1.7409,17.1886 0,34.3772 0,51.5658 0,13.7509 -1.7409,12.032 12.1859,12.032 10.4451,0 20.8903,1.7189 20.8903,-3.4377 v -61.879 h -33.0762 z"
       id="path84"
       clip-rule="evenodd"
       fill="#969696"
       fill-rule="evenodd"
       stroke-width="1.7298224"
       image-rendering="optimizeQuality"
       shape-rendering="geometricPrecision"
       text-rendering="geometricPrecision" /><path
       d="m 1041.031,567.224 h -33.0763 v -29.22063 c 10.4451,0 24.372,-1.71886 33.0763,1.71886 v -18.90747 h -34.8172 v 65.31671 h 34.8172 z"
       id="path86"
       clip-rule="evenodd"
       fill="#969696"
       fill-rule="evenodd"
       stroke-width="1.7298224"
       image-rendering="optimizeQuality"
       shape-rendering="geometricPrecision"
       text-rendering="geometricPrecision" /><path
       d="m 849.53694,1165.3874 h 33.07624 v 27.5018 h -33.07624 z m 0,-17.1886 c 0,10.3131 0,22.3451 0,34.3772 0,10.3132 -1.74085,29.2206 3.48171,29.2206 36.55795,0 31.33538,3.4377 31.33538,-13.7509 v -51.5658 H 851.2778 Z"
       id="path88"
       clip-rule="evenodd"
       fill="#969696"
       fill-rule="evenodd"
       stroke-width="1.7298224"
       image-rendering="optimizeQuality"
       shape-rendering="geometricPrecision"
       text-rendering="geometricPrecision" /><path
       d="m 1166.3724,538.00337 h 33.0763 c 1.7408,6.87544 1.7408,22.34519 0,29.22063 h -33.0763 v 18.90747 h 34.8171 v -65.31671 h -34.8171 z"
       id="path90"
       clip-rule="evenodd"
       fill="#969696"
       fill-rule="evenodd"
       stroke-width="1.7298224"
       image-rendering="optimizeQuality"
       shape-rendering="geometricPrecision"
       text-rendering="geometricPrecision" /><path
       d="m 849.53694,694.41961 h 31.33539 v 27.50177 h -33.07624 v -29.22063 z m -1.74085,-17.1886 c -1.74085,15.46974 0,32.65834 0,49.84696 0,13.75087 -3.48171,15.46973 10.44512,15.46973 6.96342,0 15.66769,0 24.37197,0 v -63.59783 h -33.07624 z"
       id="path92"
       clip-rule="evenodd"
       fill="#969696"
       fill-rule="evenodd"
       stroke-width="1.7298224"
       image-rendering="optimizeQuality"
       shape-rendering="geometricPrecision"
       text-rendering="geometricPrecision" /><path
       d="m 1326.5311,694.41961 h 33.0762 v 29.22063 h -33.0762 v -27.50177 z m 0,-17.1886 c 0,13.75088 0,27.50177 0,41.25264 0,24.06405 -5.2227,22.34519 17.4085,22.34519 12.1859,0 15.6677,1.71886 15.6677,-3.43771 v -61.87899 h -33.0762 z"
       id="path94"
       clip-rule="evenodd"
       fill="#969696"
       fill-rule="evenodd"
       stroke-width="1.7298224"
       image-rendering="optimizeQuality"
       shape-rendering="geometricPrecision"
       text-rendering="geometricPrecision" /><path
       d="m 1007.9547,694.41961 h 31.3354 v 29.22063 h -33.0763 v -29.22063 z m -1.7409,46.40923 h 34.8172 v -65.3167 h -33.0763 v 41.25266 22.34519 z"
       id="path96-4"
       clip-rule="evenodd"
       fill="#969696"
       fill-rule="evenodd"
       stroke-width="1.7298224"
       image-rendering="optimizeQuality"
       shape-rendering="geometricPrecision"
       text-rendering="geometricPrecision" /><path
       d="m 1041.031,880.05655 h -33.0763 v -29.22063 c 10.4451,0 24.372,-1.71886 33.0763,1.71887 v -18.90748 h -34.8172 v 65.31671 h 33.0763 v -18.90747 z"
       id="path98-1"
       clip-rule="evenodd"
       fill="#969696"
       fill-rule="evenodd"
       stroke-width="1.7298224"
       image-rendering="optimizeQuality"
       shape-rendering="geometricPrecision"
       text-rendering="geometricPrecision" /><path
       d="m 1168.1133,694.41961 h 31.3354 v 5.15658 24.06405 h -33.0763 v -29.22063 z m -1.7409,46.40923 h 34.8171 v -65.3167 h -33.0762 v 42.97151 22.34519 z"
       id="path100-3"
       clip-rule="evenodd"
       fill="#969696"
       fill-rule="evenodd"
       stroke-width="1.7298224"
       image-rendering="optimizeQuality"
       shape-rendering="geometricPrecision"
       text-rendering="geometricPrecision" /><path
       d="m 1168.1133,1007.2522 h 31.3354 v 29.2207 h -33.0763 v -29.2207 z m 0,46.4092 h 33.0762 v -65.31663 h -33.0762 z"
       id="path102-0"
       clip-rule="evenodd"
       fill="#969696"
       fill-rule="evenodd"
       stroke-width="1.7298224"
       image-rendering="optimizeQuality"
       shape-rendering="geometricPrecision"
       text-rendering="geometricPrecision" /><polygon
       points="414,336 414,298 395,298 395,308 414,308 413,325 395,325 395,336 "
       id="polygon104"
       transform="matrix(1.7408544,0,0,1.7188606,3.4817088,8.594302)"
       clip-rule="evenodd"
       fill="#969696"
       fill-rule="evenodd"
       image-rendering="optimizeQuality"
       shape-rendering="geometricPrecision"
       text-rendering="geometricPrecision" /><path
       d="m 1007.9547,1008.9711 h 31.3354 v 29.2206 h -33.0763 v -29.2206 z m 0,46.4092 h 33.0763 v -65.31667 h -33.0763 z"
       id="path106-3"
       clip-rule="evenodd"
       fill="#969696"
       fill-rule="evenodd"
       stroke-width="1.7298224"
       image-rendering="optimizeQuality"
       shape-rendering="geometricPrecision"
       text-rendering="geometricPrecision" /><path
       d="m 691.11919,1165.3874 h 31.33539 v 29.2206 h -31.33539 z m -1.74085,46.4092 h 33.07624 v -63.5978 h -33.07624 v 41.2526 24.0641 z"
       id="path108-7"
       clip-rule="evenodd"
       fill="#969696"
       fill-rule="evenodd"
       stroke-width="1.7298224"
       image-rendering="optimizeQuality"
       shape-rendering="geometricPrecision"
       text-rendering="geometricPrecision" /><polygon
       points="414,518 414,480 395,480 395,490 414,490 413,507 395,507 395,518 "
       id="polygon110-1"
       transform="matrix(1.7408544,0,0,1.7188606,3.4817088,8.594302)"
       clip-rule="evenodd"
       fill="#969696"
       fill-rule="evenodd"
       image-rendering="optimizeQuality"
       shape-rendering="geometricPrecision"
       text-rendering="geometricPrecision" /><path
       d="m 1967.1655,831.92845 c 3.4817,24.06405 45.2621,20.62634 40.0396,-6.87544 -3.4817,-24.06405 -43.5214,-18.90746 -40.0396,6.87544 z"
       id="path112-9"
       clip-rule="evenodd"
       fill="#fefefe"
       fill-rule="evenodd"
       stroke-width="1.7298224"
       image-rendering="optimizeQuality"
       shape-rendering="geometricPrecision"
       text-rendering="geometricPrecision" /><path
       d="m 691.11919,694.41961 h 31.33539 v 29.22063 h -31.33539 z m -1.74085,46.40923 h 33.07624 v -63.59783 h -33.07624 v 42.97151 22.34518 z"
       id="path114-8"
       clip-rule="evenodd"
       fill="#969696"
       fill-rule="evenodd"
       stroke-width="1.7298224"
       image-rendering="optimizeQuality"
       shape-rendering="geometricPrecision"
       text-rendering="geometricPrecision" /><path
       d="m 691.11919,1007.2522 h 31.33539 v 5.1566 24.0641 h -29.59453 -1.74086 z m 0,46.4092 h 33.07624 v -65.31663 h -33.07624 z"
       id="path116-7"
       clip-rule="evenodd"
       fill="#969696"
       fill-rule="evenodd"
       stroke-width="1.7298224"
       image-rendering="optimizeQuality"
       shape-rendering="geometricPrecision"
       text-rendering="geometricPrecision" /><path
       d="m 43.52136,831.92845 c 3.481709,24.06405 45.262214,18.90747 38.298796,-6.87544 -5.222563,-24.06405 -43.52136,-18.90746 -38.298796,6.87544 z"
       id="path118-6"
       clip-rule="evenodd"
       fill="#fefefe"
       fill-rule="evenodd"
       stroke-width="1.7298224"
       image-rendering="optimizeQuality"
       shape-rendering="geometricPrecision"
       text-rendering="geometricPrecision" /><path
       d="m 561.58351,1533.2236 h 12.18598 v 37.8148 h 13.92684 v -58.4412 c -15.66769,0 -10.44513,-1.7189 -13.92684,8.5943 l -12.18598,3.4377 z"
       id="path120-3"
       clip-rule="evenodd"
       fill="#000000"
       fill-rule="evenodd"
       stroke-width="1.7298224"
       image-rendering="optimizeQuality"
       shape-rendering="geometricPrecision"
       text-rendering="geometricPrecision" /><polygon
       points="779,507 779,490 759,490 759,507 "
       id="polygon122"
       transform="matrix(1.7408544,0,0,1.7188606,3.4817088,8.594302)"
       clip-rule="evenodd"
       fill="#e22a26"
       fill-rule="evenodd"
       image-rendering="optimizeQuality"
       shape-rendering="geometricPrecision"
       text-rendering="geometricPrecision" /><polygon
       points="779,325 779,308 759,308 759,325 "
       id="polygon124-7"
       transform="matrix(1.7408544,0,0,1.7188606,3.4817088,8.594302)"
       clip-rule="evenodd"
       fill="#e22a26"
       fill-rule="evenodd"
       image-rendering="optimizeQuality"
       shape-rendering="geometricPrecision"
       text-rendering="geometricPrecision" /><polygon
       points="505,507 505,490 486,490 486,507 "
       id="polygon126-9"
       transform="matrix(1.7408544,0,0,1.7188606,3.4817088,8.594302)"
       clip-rule="evenodd"
       fill="#e22a26"
       fill-rule="evenodd"
       image-rendering="optimizeQuality"
       shape-rendering="geometricPrecision"
       text-rendering="geometricPrecision" /><polygon
       points="505,325 505,308 486,308 486,325 "
       id="polygon128-0"
       transform="matrix(1.7408544,0,0,1.7188606,3.4817088,8.594302)"
       clip-rule="evenodd"
       fill="#e22a26"
       fill-rule="evenodd"
       image-rendering="optimizeQuality"
       shape-rendering="geometricPrecision"
       text-rendering="geometricPrecision" /><path
       d="m 1166.3724,567.224 h 33.0763 c 1.7408,-6.87544 1.7408,-22.34519 0,-29.22063 h -33.0763 v 27.50176 z"
       id="path130-9"
       clip-rule="evenodd"
       fill="#e22a26"
       fill-rule="evenodd"
       stroke-width="1.7298224"
       image-rendering="optimizeQuality"
       shape-rendering="geometricPrecision"
       text-rendering="geometricPrecision" /><path
       d="m 1041.031,880.05655 v -27.50176 c -6.9635,-1.71887 -22.6312,-1.71887 -33.0763,-1.71887 v 29.22063 z"
       id="path132-2"
       clip-rule="evenodd"
       fill="#e22a26"
       fill-rule="evenodd"
       stroke-width="1.7298224"
       image-rendering="optimizeQuality"
       shape-rendering="geometricPrecision"
       text-rendering="geometricPrecision" /><path
       d="m 1041.031,567.224 v -27.50177 c -6.9635,-1.71886 -22.6312,-1.71886 -33.0763,-1.71886 V 567.224 Z"
       id="path134-0"
       clip-rule="evenodd"
       fill="#e22a26"
       fill-rule="evenodd"
       stroke-width="1.7298224"
       image-rendering="optimizeQuality"
       shape-rendering="geometricPrecision"
       text-rendering="geometricPrecision" /><polygon
       points="687,507 687,490 668,490 668,507 "
       id="polygon136"
       transform="matrix(1.7408544,0,0,1.7188606,3.4817088,8.594302)"
       clip-rule="evenodd"
       fill="#e22a26"
       fill-rule="evenodd"
       image-rendering="optimizeQuality"
       shape-rendering="geometricPrecision"
       text-rendering="geometricPrecision" /><polygon
       points="413,507 414,490 395,490 395,507 "
       id="polygon138"
       transform="matrix(1.7408544,0,0,1.7188606,3.4817088,8.594302)"
       clip-rule="evenodd"
       fill="#e22a26"
       fill-rule="evenodd"
       image-rendering="optimizeQuality"
       shape-rendering="geometricPrecision"
       text-rendering="geometricPrecision" /><polygon
       points="413,325 414,308 395,308 395,325 "
       id="polygon140-2"
       transform="matrix(1.7408544,0,0,1.7188606,3.4817088,8.594302)"
       clip-rule="evenodd"
       fill="#e22a26"
       fill-rule="evenodd"
       image-rendering="optimizeQuality"
       shape-rendering="geometricPrecision"
       text-rendering="geometricPrecision" /><polygon
       points="778,416 778,399 760,399 759,416 "
       id="polygon142-6"
       transform="matrix(1.7408544,0,0,1.7188606,3.4817088,8.594302)"
       clip-rule="evenodd"
       fill="#e22a26"
       fill-rule="evenodd"
       image-rendering="optimizeQuality"
       shape-rendering="geometricPrecision"
       text-rendering="geometricPrecision" /><polygon
       points="778,598 778,582 760,582 760,598 "
       id="polygon144-4"
       transform="matrix(1.7408544,0,0,1.7188606,3.4817088,8.594302)"
       clip-rule="evenodd"
       fill="#e22a26"
       fill-rule="evenodd"
       image-rendering="optimizeQuality"
       shape-rendering="geometricPrecision"
       text-rendering="geometricPrecision" /><polygon
       points="669,416 687,416 687,402 687,399 669,399 "
       id="polygon146-4"
       transform="matrix(1.7408544,0,0,1.7188606,3.4817088,8.594302)"
       clip-rule="evenodd"
       fill="#e22a26"
       fill-rule="evenodd"
       image-rendering="optimizeQuality"
       shape-rendering="geometricPrecision"
       text-rendering="geometricPrecision" /><polygon
       points="414,584 413,581 395,581 395,598 396,598 414,598 "
       id="polygon148-5"
       transform="matrix(1.7408544,0,0,1.7188606,3.4817088,8.594302)"
       clip-rule="evenodd"
       fill="#e22a26"
       fill-rule="evenodd"
       image-rendering="optimizeQuality"
       shape-rendering="geometricPrecision"
       text-rendering="geometricPrecision" /><polygon
       points="505,598 505,582 486,582 486,598 "
       id="polygon150"
       transform="matrix(1.7408544,0,0,1.7188606,3.4817088,8.594302)"
       clip-rule="evenodd"
       fill="#e22a26"
       fill-rule="evenodd"
       image-rendering="optimizeQuality"
       shape-rendering="geometricPrecision"
       text-rendering="geometricPrecision" /><polygon
       points="596,416 596,399 577,399 577,416 "
       id="polygon152"
       transform="matrix(1.7408544,0,0,1.7188606,3.4817088,8.594302)"
       clip-rule="evenodd"
       fill="#e22a26"
       fill-rule="evenodd"
       image-rendering="optimizeQuality"
       shape-rendering="geometricPrecision"
       text-rendering="geometricPrecision" /><polygon
       points="414,416 414,399 395,399 395,416 "
       id="polygon154"
       transform="matrix(1.7408544,0,0,1.7188606,3.4817088,8.594302)"
       clip-rule="evenodd"
       fill="#e22a26"
       fill-rule="evenodd"
       image-rendering="optimizeQuality"
       shape-rendering="geometricPrecision"
       text-rendering="geometricPrecision" /><polygon
       points="596,598 596,581 577,582 577,598 "
       id="polygon156-1"
       transform="matrix(1.7408544,0,0,1.7188606,3.4817088,8.594302)"
       clip-rule="evenodd"
       fill="#e22a26"
       fill-rule="evenodd"
       image-rendering="optimizeQuality"
       shape-rendering="geometricPrecision"
       text-rendering="geometricPrecision" /><polygon
       points="687,598 687,581 669,581 669,598 "
       id="polygon158-5"
       transform="matrix(1.7408544,0,0,1.7188606,3.4817088,8.594302)"
       clip-rule="evenodd"
       fill="#e22a26"
       fill-rule="evenodd"
       image-rendering="optimizeQuality"
       shape-rendering="geometricPrecision"
       text-rendering="geometricPrecision" /><polygon
       points="505,416 505,399 486,399 486,416 "
       id="polygon160-6"
       transform="matrix(1.7408544,0,0,1.7188606,3.4817088,8.594302)"
       clip-rule="evenodd"
       fill="#e22a26"
       fill-rule="evenodd"
       image-rendering="optimizeQuality"
       shape-rendering="geometricPrecision"
       text-rendering="geometricPrecision" /><polygon
       points="778,689 778,673 760,673 759,689 "
       id="polygon162-2"
       transform="matrix(1.7408544,0,0,1.7188606,3.4817088,8.594302)"
       clip-rule="evenodd"
       fill="#e22a26"
       fill-rule="evenodd"
       image-rendering="optimizeQuality"
       shape-rendering="geometricPrecision"
       text-rendering="geometricPrecision" /><polygon
       points="596,673 577,673 577,689 596,689 "
       id="polygon164-3"
       transform="matrix(1.7408544,0,0,1.7188606,3.4817088,8.594302)"
       clip-rule="evenodd"
       fill="#e22a26"
       fill-rule="evenodd"
       image-rendering="optimizeQuality"
       shape-rendering="geometricPrecision"
       text-rendering="geometricPrecision" /><polygon
       points="505,689 505,673 486,673 486,689 "
       id="polygon166"
       transform="matrix(1.7408544,0,0,1.7188606,3.4817088,8.594302)"
       clip-rule="evenodd"
       fill="#e22a26"
       fill-rule="evenodd"
       image-rendering="optimizeQuality"
       shape-rendering="geometricPrecision"
       text-rendering="geometricPrecision" /><polygon
       points="687,689 687,673 669,673 669,689 "
       id="polygon168"
       transform="matrix(1.7408544,0,0,1.7188606,3.4817088,8.594302)"
       clip-rule="evenodd"
       fill="#e22a26"
       fill-rule="evenodd"
       image-rendering="optimizeQuality"
       shape-rendering="geometricPrecision"
       text-rendering="geometricPrecision" /><polygon
       points="414,689 414,673 395,673 395,689 "
       id="polygon170"
       transform="matrix(1.7408544,0,0,1.7188606,3.4817088,8.594302)"
       clip-rule="evenodd"
       fill="#e22a26"
       fill-rule="evenodd"
       image-rendering="optimizeQuality"
       shape-rendering="geometricPrecision"
       text-rendering="geometricPrecision" /><path
       d="m 1930.6076,1559.0064 c 29.5944,6.8755 33.0761,-37.8149 0,-32.6583 z"
       id="path172"
       clip-rule="evenodd"
       fill="#d4af37"
       fill-rule="evenodd"
       stroke-width="1.7298224"
       image-rendering="optimizeQuality"
       shape-rendering="geometricPrecision"
       text-rendering="geometricPrecision" /><polygon
       points="486,325 486,336 505,336 505,325 "
       id="polygon174-5"
       transform="matrix(1.7408544,0,0,1.7188606,3.4817088,8.594302)"
       clip-rule="evenodd"
       fill="#969696"
       fill-rule="evenodd"
       image-rendering="optimizeQuality"
       shape-rendering="geometricPrecision"
       text-rendering="geometricPrecision" /><polygon
       points="759,325 759,336 779,336 779,325 "
       id="polygon176-5"
       transform="matrix(1.7408544,0,0,1.7188606,3.4817088,8.594302)"
       clip-rule="evenodd"
       fill="#969696"
       fill-rule="evenodd"
       image-rendering="optimizeQuality"
       shape-rendering="geometricPrecision"
       text-rendering="geometricPrecision" /><polygon
       points="486,507 486,518 505,518 505,507 "
       id="polygon178-1"
       transform="matrix(1.7408544,0,0,1.7188606,3.4817088,8.594302)"
       clip-rule="evenodd"
       fill="#969696"
       fill-rule="evenodd"
       image-rendering="optimizeQuality"
       shape-rendering="geometricPrecision"
       text-rendering="geometricPrecision" /><polygon
       points="759,507 759,518 779,518 779,507 "
       id="polygon180-0"
       transform="matrix(1.7408544,0,0,1.7188606,3.4817088,8.594302)"
       clip-rule="evenodd"
       fill="#969696"
       fill-rule="evenodd"
       image-rendering="optimizeQuality"
       shape-rendering="geometricPrecision"
       text-rendering="geometricPrecision" /><polygon
       points="505,308 505,298 486,298 486,308 "
       id="polygon182"
       transform="matrix(1.7408544,0,0,1.7188606,3.4817088,8.594302)"
       clip-rule="evenodd"
       fill="#969696"
       fill-rule="evenodd"
       image-rendering="optimizeQuality"
       shape-rendering="geometricPrecision"
       text-rendering="geometricPrecision" /><polygon
       points="505,490 505,480 486,480 486,490 "
       id="polygon184"
       transform="matrix(1.7408544,0,0,1.7188606,3.4817088,8.594302)"
       clip-rule="evenodd"
       fill="#969696"
       fill-rule="evenodd"
       image-rendering="optimizeQuality"
       shape-rendering="geometricPrecision"
       text-rendering="geometricPrecision" /><polygon
       points="779,308 779,298 759,298 759,308 "
       id="polygon186"
       transform="matrix(1.7408544,0,0,1.7188606,3.4817088,8.594302)"
       clip-rule="evenodd"
       fill="#969696"
       fill-rule="evenodd"
       image-rendering="optimizeQuality"
       shape-rendering="geometricPrecision"
       text-rendering="geometricPrecision" /><polygon
       points="779,490 779,480 759,480 759,490 "
       id="polygon188-9"
       transform="matrix(1.7408544,0,0,1.7188606,3.4817088,8.594302)"
       clip-rule="evenodd"
       fill="#969696"
       fill-rule="evenodd"
       image-rendering="optimizeQuality"
       shape-rendering="geometricPrecision"
       text-rendering="geometricPrecision" /><path
       d="m 170.57026,1535.9801 c 0,5.1566 -1.74085,22.3452 3.48171,24.064 15.66769,3.4378 13.92683,-8.5942 13.92683,-22.3451 0,-18.9076 -17.40854,-15.4698 -17.40854,-1.7189 z"
       id="path190"
       clip-rule="evenodd"
       fill="#d4af37"
       fill-rule="evenodd"
       stroke-width="1.7298224"
       image-rendering="optimizeQuality"
       shape-rendering="geometricPrecision"
       text-rendering="geometricPrecision" /><rect
       id="connector0pin"
       width="41.666679"
       height="41.666679"
       x="21.875006"
       y="1568.4916"
       rx="22.731483"
       ry="9.6171656"
       clip-rule="evenodd"
       fill="none"
       fill-rule="evenodd"
       stroke="none"
       stroke-width="0"
       image-rendering="optimizeQuality"
       shape-rendering="geometricPrecision"
       text-rendering="geometricPrecision" /><rect
       ry="9.6171656"
       rx="22.731483"
       y="1568.377"
       x="158.33337"
       height="41.666679"
       width="41.666679"
       id="connector1pin"
       clip-rule="evenodd"
       fill="none"
       fill-rule="evenodd"
       stroke="none"
       stroke-width="0"
       image-rendering="optimizeQuality"
       shape-rendering="geometricPrecision"
       text-rendering="geometricPrecision" /><rect
       id="connector2pin"
       width="41.666679"
       height="41.666679"
       x="284.37509"
       y="1568.377"
       rx="22.731483"
       ry="9.6171656"
       clip-rule="evenodd"
       fill="none"
       fill-rule="evenodd"
       stroke="none"
       stroke-width="0"
       image-rendering="optimizeQuality"
       shape-rendering="geometricPrecision"
       text-rendering="geometricPrecision" /><rect
       ry="9.6171656"
       rx="22.731483"
       y="1568.377"
       x="333.33344"
       height="41.666679"
       width="41.666679"
       id="connector3pin"
       clip-rule="evenodd"
       fill="none"
       fill-rule="evenodd"
       stroke="none"
       stroke-width="0"
       image-rendering="optimizeQuality"
       shape-rendering="geometricPrecision"
       text-rendering="geometricPrecision" /><rect
       id="connector4pin"
       width="41.666679"
       height="41.666679"
       x="383.33344"
       y="1568.377"
       rx="22.731483"
       ry="9.6171656"
       clip-rule="evenodd"
       fill="none"
       fill-rule="evenodd"
       stroke="none"
       stroke-width="0"
       image-rendering="optimizeQuality"
       shape-rendering="geometricPrecision"
       text-rendering="geometricPrecision" /><rect
       ry="9.6171656"
       rx="22.731483"
       y="1568.377"
       x="432.29178"
       height="41.666679"
       width="41.666679"
       id="connector5pin"
       clip-rule="evenodd"
       fill="none"
       fill-rule="evenodd"
       stroke="none"
       stroke-width="0"
       image-rendering="optimizeQuality"
       shape-rendering="geometricPrecision"
       text-rendering="geometricPrecision" /><rect
       id="connector6pin"
       width="41.666679"
       height="41.666679"
       x="558.3335"
       y="1568.377"
       rx="22.731483"
       ry="9.6171656"
       clip-rule="evenodd"
       fill="none"
       fill-rule="evenodd"
       stroke="none"
       stroke-width="0"
       image-rendering="optimizeQuality"
       shape-rendering="geometricPrecision"
       text-rendering="geometricPrecision" /><rect
       ry="9.6171656"
       rx="22.731483"
       y="1568.377"
       x="685.41687"
       height="41.666679"
       width="41.666679"
       id="connector7pin"
       clip-rule="evenodd"
       fill="none"
       fill-rule="evenodd"
       stroke="none"
       stroke-width="0"
       image-rendering="optimizeQuality"
       shape-rendering="geometricPrecision"
       text-rendering="geometricPrecision" /><rect
       id="connector8pin"
       width="41.666679"
       height="41.666679"
       x="733.33356"
       y="1568.377"
       rx="22.731483"
       ry="9.6171656"
       clip-rule="evenodd"
       fill="none"
       fill-rule="evenodd"
       stroke="none"
       stroke-width="0"
       image-rendering="optimizeQuality"
       shape-rendering="geometricPrecision"
       text-rendering="geometricPrecision" /><rect
       ry="9.6171656"
       rx="22.731483"
       y="1568.377"
       x="784.37524"
       height="41.666679"
       width="41.666679"
       id="connector9pin"
       clip-rule="evenodd"
       fill="none"
       fill-rule="evenodd"
       stroke="none"
       stroke-width="0"
       image-rendering="optimizeQuality"
       shape-rendering="geometricPrecision"
       text-rendering="geometricPrecision" /><rect
       id="connector10pin"
       width="41.666679"
       height="41.666679"
       x="832.29193"
       y="1568.377"
       rx="22.731483"
       ry="9.6171656"
       clip-rule="evenodd"
       fill="none"
       fill-rule="evenodd"
       stroke="none"
       stroke-width="0"
       image-rendering="optimizeQuality"
       shape-rendering="geometricPrecision"
       text-rendering="geometricPrecision" /><rect
       ry="9.6171656"
       rx="22.731483"
       y="1568.377"
       x="882.29193"
       height="41.666679"
       width="41.666679"
       id="connector11pin"
       clip-rule="evenodd"
       fill="none"
       fill-rule="evenodd"
       stroke="none"
       stroke-width="0"
       image-rendering="optimizeQuality"
       shape-rendering="geometricPrecision"
       text-rendering="geometricPrecision" /><rect
       id="connector12pin"
       width="41.666679"
       height="41.666679"
       x="1010.4169"
       y="1568.377"
       rx="22.731483"
       ry="9.6171656"
       clip-rule="evenodd"
       fill="none"
       fill-rule="evenodd"
       stroke="none"
       stroke-width="0"
       image-rendering="optimizeQuality"
       shape-rendering="geometricPrecision"
       text-rendering="geometricPrecision" /><rect
       ry="9.6171656"
       rx="22.731483"
       y="1568.377"
       x="1135.417"
       height="41.666679"
       width="41.666679"
       id="connector13pin"
       clip-rule="evenodd"
       fill="none"
       fill-rule="evenodd"
       stroke="none"
       stroke-width="0"
       image-rendering="optimizeQuality"
       shape-rendering="geometricPrecision"
       text-rendering="geometricPrecision" /><rect
       id="connector14pin"
       width="41.666679"
       height="41.666679"
       x="1185.417"
       y="1568.377"
       rx="22.731483"
       ry="9.6171656"
       clip-rule="evenodd"
       fill="none"
       fill-rule="evenodd"
       stroke="none"
       stroke-width="0"
       image-rendering="optimizeQuality"
       shape-rendering="geometricPrecision"
       text-rendering="geometricPrecision" /><rect
       ry="9.6171656"
       rx="22.731483"
       y="1568.377"
       x="1233.3337"
       height="41.666679"
       width="41.666679"
       id="connector15pin"
       clip-rule="evenodd"
       fill="none"
       fill-rule="evenodd"
       stroke="none"
       stroke-width="0"
       image-rendering="optimizeQuality"
       shape-rendering="geometricPrecision"
       text-rendering="geometricPrecision" /><rect
       id="connector16pin"
       width="41.666679"
       height="41.666679"
       x="1283.3337"
       y="1568.377"
       rx="22.731483"
       ry="9.6171656"
       clip-rule="evenodd"
       fill="none"
       fill-rule="evenodd"
       stroke="none"
       stroke-width="0"
       image-rendering="optimizeQuality"
       shape-rendering="geometricPrecision"
       text-rendering="geometricPrecision" /><rect
       ry="9.6171656"
       rx="22.731483"
       y="1568.377"
       x="1332.292"
       height="41.666679"
       width="41.666679"
       id="connector17pin"
       clip-rule="evenodd"
       fill="none"
       fill-rule="evenodd"
       stroke="none"
       stroke-width="0"
       image-rendering="optimizeQuality"
       shape-rendering="geometricPrecision"
       text-rendering="geometricPrecision" /><rect
       id="connector18pin"
       width="41.666679"
       height="41.666679"
       x="1463.5421"
       y="1568.377"
       rx="22.731483"
       ry="9.6171656"
       clip-rule="evenodd"
       fill="none"
       fill-rule="evenodd"
       stroke="none"
       stroke-width="0"
       image-rendering="optimizeQuality"
       shape-rendering="geometricPrecision"
       text-rendering="geometricPrecision" /><rect
       ry="9.6171656"
       rx="22.731483"
       y="1568.377"
       x="1585.4171"
       height="41.666679"
       width="41.666679"
       id="connector19pin"
       clip-rule="evenodd"
       fill="none"
       fill-rule="evenodd"
       stroke="none"
       stroke-width="0"
       image-rendering="optimizeQuality"
       shape-rendering="geometricPrecision"
       text-rendering="geometricPrecision" /><rect
       id="connector20pin"
       width="41.666679"
       height="41.666679"
       x="1635.4171"
       y="1568.377"
       rx="22.731483"
       ry="9.6171656"
       clip-rule="evenodd"
       fill="none"
       fill-rule="evenodd"
       stroke="none"
       stroke-width="0"
       image-rendering="optimizeQuality"
       shape-rendering="geometricPrecision"
       text-rendering="geometricPrecision" /><rect
       ry="9.6171656"
       rx="22.731483"
       y="1568.377"
       x="1685.4171"
       height="41.666679"
       width="41.666679"
       id="connector21pin"
       clip-rule="evenodd"
       fill="none"
       fill-rule="evenodd"
       stroke="none"
       stroke-width="0"
       image-rendering="optimizeQuality"
       shape-rendering="geometricPrecision"
       text-rendering="geometricPrecision" /><rect
       id="connector22pin"
       width="41.666679"
       height="41.666679"
       x="1734.3755"
       y="1568.377"
       rx="22.731483"
       ry="9.6171656"
       clip-rule="evenodd"
       fill="none"
       fill-rule="evenodd"
       stroke="none"
       stroke-width="0"
       image-rendering="optimizeQuality"
       shape-rendering="geometricPrecision"
       text-rendering="geometricPrecision" /><rect
       ry="9.6171656"
       rx="22.731483"
       y="1568.377"
       x="1870.8339"
       height="41.666679"
       width="41.666679"
       id="connector23pin"
       clip-rule="evenodd"
       fill="none"
       fill-rule="evenodd"
       stroke="none"
       stroke-width="0"
       image-rendering="optimizeQuality"
       shape-rendering="geometricPrecision"
       text-rendering="geometricPrecision" /><rect
       id="connector24pin"
       width="41.666679"
       height="41.666679"
       x="1986.4589"
       y="1568.377"
       rx="22.731483"
       ry="9.6171656"
       clip-rule="evenodd"
       fill="none"
       fill-rule="evenodd"
       stroke="none"
       stroke-width="0"
       image-rendering="optimizeQuality"
       shape-rendering="geometricPrecision"
       text-rendering="geometricPrecision" /><rect
       ry="9.6171656"
       rx="22.731483"
       y="35.157784"
       x="236.22054"
       height="41.666679"
       width="41.666679"
       id="connector25pin"
       clip-rule="evenodd"
       fill="none"
       fill-rule="evenodd"
       stroke="none"
       stroke-width="0"
       image-rendering="optimizeQuality"
       shape-rendering="geometricPrecision"
       text-rendering="geometricPrecision" /><rect
       id="connector26pin"
       width="41.666679"
       height="41.666679"
       x="157.48036"
       y="35.15778"
       rx="22.731483"
       ry="9.6171656"
       clip-rule="evenodd"
       fill="none"
       fill-rule="evenodd"
       stroke="none"
       stroke-width="0"
       image-rendering="optimizeQuality"
       shape-rendering="geometricPrecision"
       text-rendering="geometricPrecision" /></g></svg>